<svg xmlns="http://www.w3.org/2000/svg" viewBox="0 0 24 24">
  <style>
    :root {
      --icon-fill: #ff0000;
      --icon-fill-opacity: 1;
      --icon-stroke-opacity: 1;
      --icon-stroke: #ff0000;
      --icon-stroke-width: 0.75;
      --icon-stroke-dasharray: none;
    }
  </style>
  <path
    fill="var(--icon-fill)"
    stroke="var(--icon-stroke)"
    stroke-width="var(--icon-stroke-width)"
    stroke-dasharray="var(--icon-stroke-dasharray)"
    fill-opacity="var(--icon-fill-opacity)"
    stroke-opacity="var(--icon-stroke-opacity)"
    d="m 7.2196989,21.496094 v -2.39015 l 2.8681811,-2.00773 v -3.44181 l -7.648482,3.05938 v -2.86817 L 10.08788,8.4936743 v -4.20666 q 0,-0.78875 0.561685,-1.35044 0.561685,-0.56168 1.350435,-0.56168 0.78875,0 1.350435,0.56168 0.561685,0.56169 0.561685,1.35044 v 4.20666 l 7.648482,5.3539397 v 2.86817 l -7.648482,-3.05938 v 3.44181 l 2.868181,2.00773 v 2.39015 L 12,20.062004 Z" />
  <path
     fill="#ffffff"
     d="m 12.003887,9.14549 q 0.456381,0 0.452514,0.58982 -0.0058,0.85862 0.0077,1.71336 0,0.0135 0.03674,0.0503 0.03868,0.0387 0.05028,0.0387 0.85668,0.0155 1.715295,0.0117 0.587879,-0.002 0.587879,0.45445 0,0.45638 -0.589813,0.45252 -0.858615,-0.005 -1.713361,0.008 -0.01354,0 -0.05028,0.0367 -0.03868,0.0387 -0.03868,0.0503 -0.01547,0.85669 -0.0116,1.7153 0.002,0.58787 -0.454446,0.58787 -0.456382,0 -0.452514,-0.58981 0.0058,-0.85861 -0.0077,-1.71529 0,-0.0116 -0.03674,-0.0503 -0.03868,-0.0367 -0.05028,-0.0367 -0.85668,-0.0155 -1.715295,-0.0135 -0.587881,0.004 -0.587881,-0.45251 0,-0.45638 0.589815,-0.45252 0.858615,0.005 1.713361,-0.008 0.01354,0 0.05028,-0.0387 0.03868,-0.0367 0.03868,-0.0483 0.01547,-0.85668 0.01354,-1.71529 -0.0038,-0.58981 0.452512,-0.58789 z"
     style="stroke:none" />
</svg>
