<svg version="1.0" xmlns="http://www.w3.org/2000/svg"
 width="24.000000pt" height="24.000000pt" viewBox="0 0 24.000000 24.000000"
 preserveAspectRatio="xMidYMid meet">
<title>ais-passenger</title>
<style type="text/css">
    .vessel-stroke-passenger {
        fill: #000000;
        stroke: #000000;
    }
    .vessel-fill-passenger {
        fill: #0026FF;
        stroke: none;
    }
</style>

<g transform="translate(0.000000,24.000000) scale(0.100000,-0.100000)"
    class="vessel-stroke-passenger">
    <path d="M103 180 c-14 -31 -23 -72 -23 -101 0 -51 8 -60 30 -34 12 14 15 14
        30 0 9 -8 20 -15 23 -15 16 0 5 108 -16 153 l-22 48 -22 -51z m46 -29 c6 -19
        11 -52 11 -75 0 -38 -1 -39 -17 -23 -16 16 -18 16 -36 -1 -19 -17 -20 -16 -15
        38 6 64 25 117 37 104 5 -5 13 -24 20 -43z"/>
</g>
<g transform="translate(0.000000,24.000000) scale(0.100000,-0.100000)"
    class="vessel-fill-passenger">
    <path d="M149 151  c6 -19
        11 -52 11 -75 0 -38 -1 -39 -17 -23 -16 16 -18 16 -36 -1 -19 -17 -20 -16 -15
        38 6 64 25 117 37 104 5 -5 13 -24 20 -43z"/>
</g>
<g transform="translate(0.000000,24.000000) scale(0.100000,-0.100000)"
    class="vessel-stroke-passenger">
    <path d="M133 110 l-14 0 0 14 14 0 0 -14 -14 0z"/>
</g>
</svg>
