<svg xmlns="http://www.w3.org/2000/svg" viewBox="0 0 24 24">
  <style>
    :root {
      --icon-fill: #50505f;
      --icon-fill-opacity: 1;
      --icon-stroke-opacity: 1;
      --icon-stroke: #82829e;
      --icon-stroke-width: 0.75;
      --icon-stroke-dasharray: none;
    }
  </style>
  <path
    fill="var(--icon-fill)"
    stroke="var(--icon-stroke)"
    stroke-width="var(--icon-stroke-width)"
    stroke-dasharray="var(--icon-stroke-dasharray)"
    fill-opacity="var(--icon-fill-opacity)"
    stroke-opacity="var(--icon-stroke-opacity)"
    d="m 12.01442,5.0000045 q 0.184296,0 0.301253,0.1116404 1.974097,1.8642287 2.659893,4.4248843 0.264039,0.9852768 0.241002,3.9676868 c -0.01595,2.147761 0.04253,3.708964 -0.04253,5.07878 a 0.26226782,0.26758406 66.3 0 1 -0.06203,0.154172 q -0.299481,0.352644 -0.666302,0.232142 -1.424752,-0.467829 -2.330284,-0.769083 -0.0053,-0.0018 -0.116958,-0.0018 -0.111641,0 -0.116957,0.0018 -0.907306,0.299482 -2.332058,0.763766 -0.36682,0.118731 -0.6663013,-0.233913 a 0.26758406,0.26226782 23.8 0 1 -0.062021,-0.154171 c -0.081519,-1.37159 -0.019494,-2.932792 -0.028354,-5.080554 Q 8.7768231,10.512945 9.042635,9.5294412 9.735518,6.9705572 11.714932,5.1098728 11.831888,5 12.014414,5 Z" />
  <g
     transform="matrix(0.01002373,0,0,0.01002373,9.4339274,9.4339218)"
     style="fill:#ffffff">
    <path
       class="st0"
       d="m 508.727,159.883 c -14.908,-8.942 -74.31,45.732 -91.456,68.595 -57.163,-34.302 -108.602,-57.164 -108.602,-57.164 0,0 22.862,-100.025 -8.578,-94.318 -28.638,5.212 -81.664,42.558 -125.749,77.172 C 100.033,174.176 10.164,225.086 0,274.201 c 28.577,94.318 191.489,140.042 288.66,160.05 47.831,9.852 20.009,-57.155 20.009,-57.155 0,0 51.439,-22.87 108.602,-57.163 17.147,22.862 76.548,77.536 91.456,68.594 14.293,-8.577 -22.862,-114.326 -22.862,-114.326 0,0 37.155,-105.74 22.862,-114.318 z M 101.69,279.265 c -13.027,0 -23.582,-10.555 -23.582,-23.582 0,-13.018 10.555,-23.573 23.582,-23.573 13.018,0 23.573,10.555 23.573,23.573 0,13.027 -10.555,23.582 -23.573,23.582 z"
       style="fill:#ffffff" />
  </g>
</svg>
