<svg xmlns="http://www.w3.org/2000/svg" viewBox="0 0 24 24">
  <style>
    :root {
      --icon-fill: #50505f;
      --icon-fill-opacity: 1;
      --icon-stroke-opacity: 1;
      --icon-stroke: #82829e;
      --icon-stroke-width: 0.75;
      --icon-stroke-dasharray: none;
    }
  </style>
  <g
    fill="var(--icon-fill)"
    stroke="var(--icon-stroke)"
    stroke-width="var(--icon-stroke-width)"
    stroke-dasharray="var(--icon-stroke-dasharray)"
    fill-opacity="var(--icon-fill-opacity)"
    stroke-opacity="var(--icon-stroke-opacity)">
    <path
       d="m 12.008993,4.2148446 q 0.14941,0 0.183756,0.094463 2.33904,6.4521084 4.114782,11.2967644 c 0.113374,0.309126 0.211237,0.753921 -0.134008,0.886153 q -0.216384,0.08408 -0.367512,-0.07902 -1.449444,-1.590274 -2.826765,-3.18226 -0.140767,-0.161433 -0.793418,-0.832922 -0.05669,-0.05669 -0.183759,-0.05669 -0.127063,-0.0019 -0.182038,0.05669 -0.654322,0.669769 -0.795141,0.831201 -1.379029,1.590273 -2.8319193,3.178826 -0.1511266,0.163152 -0.3675142,0.07902 C 7.4803156,16.353112 7.5799216,15.908325 7.6932617,15.600921 q 1.7826182,-4.842946 4.1302433,-11.2916195 0.03435,-0.094463 0.185475,-0.094463 z" />
    <path
       d="m 12.882257,14.816773 c -0.08701,-0.09979 -0.17507,-0.200209 -0.26139,-0.299984 -0.0594,-0.06821 -0.227958,-0.244538 -0.503481,-0.528038 -0.02397,-0.02397 -0.06208,-0.03501 -0.115725,-0.03501 -0.05371,-7.16e-4 -0.09263,0.0109 -0.115725,0.03501 -0.276246,0.282774 -0.44402,0.458131 -0.503479,0.526283 -0.08617,0.09928 -0.174555,0.198899 -0.261384,0.298229 -0.239759,1.236945 -0.517665,2.672047 -0.726276,3.74189 -0.04216,0.216225 -0.07944,0.52854 0.04918,0.622774 0.05384,0.03943 0.09926,0.02214 0.136842,-0.0544 0.36092,-0.744927 0.713503,-1.490989 1.056075,-2.236714 0.03491,-0.07564 0.133899,-0.2701 0.296477,-0.584178 0.0137,-0.02741 0.03502,-0.04118 0.06664,-0.04037 0.03152,0 0.05434,0.01355 0.0684,0.04037 0.162117,0.314888 0.261492,0.510233 0.296474,0.58593 0.342149,0.746537 0.692503,1.492738 1.052569,2.238466 0.03758,0.07657 0.08477,0.09381 0.138587,0.0544 0.128605,-0.09293 0.09131,-0.405341 0.04918,-0.622771 -0.207716,-1.069755 -0.513234,-2.573161 -0.751973,-3.810047 z" />
  </g>
</svg>
