<svg xmlns="http://www.w3.org/2000/svg" viewBox="0 0 24 24">
  <style>
    :root {
      --icon-fill: #50505f;
      --icon-fill-opacity: 1;
      --icon-stroke-opacity: 1;
      --icon-stroke: #82829e;
      --icon-stroke-width: 0.75;
      --icon-stroke-dasharray: none;
    }
  </style>
  <path
    fill="var(--icon-fill)"
    stroke="var(--icon-stroke)"
    stroke-width="var(--icon-stroke-width)"
    stroke-dasharray="var(--icon-stroke-dasharray)"
    fill-opacity="var(--icon-fill-opacity)"
    stroke-opacity="var(--icon-stroke-opacity)"
    d="m 12.004295,1.0000002 q 0.268046,0 0.613406,0.427837 2.561865,3.180423 3.249149,4.0532782 0.221655,0.2800693 0.242274,0.7353977 0.207904,4.5360979 0.690721,15.5739359 a 0.55154825,0.55326647 66.2 0 1 -0.161513,0.414091 l -0.623712,0.625431 a 0.58591263,0.58591263 0 0 1 -0.553265,0.152922 q -1.134024,-0.281788 -2.831625,-0.735397 -0.436427,-0.11684 -0.628873,-0.11684 -0.194153,0 -0.630587,0.11684 -1.697594,0.451891 -2.831618,0.733679 A 0.58591263,0.58591263 0 0 1 7.98538,22.828253 L 7.3616682,22.202822 A 0.55326647,0.55154825 23.8 0 1 7.2001549,21.788731 Q 7.6881328,10.750892 7.8994743,6.214795 7.9201165,5.7594666 8.14174,5.4793973 8.829024,4.6065421 11.392612,1.4278372 q 0.34536,-0.427837 0.611683,-0.427837 z" />
</svg>
