<svg xmlns="http://www.w3.org/2000/svg" viewBox="0 0 24 24">
  <style>
    :root {
      --icon-fill: #0000ff;
      --icon-fill-opacity: 1;
      --icon-stroke-opacity: 1;
      --icon-stroke: #82829e;
      --icon-stroke-width: 0.75;
      --icon-stroke-dasharray: none;
    }
  </style>
  <path
    fill="var(--icon-fill)"
    stroke="var(--icon-stroke)"
    stroke-width="var(--icon-stroke-width)"
    stroke-dasharray="var(--icon-stroke-dasharray)"
    fill-opacity="var(--icon-fill-opacity)"
    stroke-opacity="var(--icon-stroke-opacity)"
     d="m 12.005451,4.9999998 c -0.133231,0 -0.268411,0.06697 -0.40518,0.2013795 C 10.324554,6.454696 9.4644711,7.921577 9.0199738,9.6017041 8.8537297,10.225414 8.7769548,11.237608 8.7899237,12.638304 c 0.011797,1.357069 0.011249,3.235171 -0.00175,5.634512 -0.00355,0.469253 0.2033432,0.710344 0.620723,0.723309 A 0.39085117,0.38200839 35.7 0 0 9.5595,18.973305 c 0.824148,-0.281786 1.599091,-0.537064 2.325377,-0.765798 0.0059,-0.0024 0.04319,-0.0036 0.111571,-0.0036 0.06838,0 0.105676,0.0012 0.111571,0.0036 0.725107,0.229915 1.499503,0.486283 2.323649,0.769255 a 0.38200839,0.39085117 54.4 0 0 0.150259,0.02282 c 0.417379,-0.0118 0.625153,-0.252327 0.622793,-0.721586 -0.0094,-2.399342 -0.0078,-4.277438 0.0052,-5.634513 C 15.22523,11.242787 15.15045,10.230045 14.98538,9.605155 14.543241,7.9250275 13.685351,6.4576014 12.411991,5.203107 12.274044,5.0675181 12.13866,4.9999998 12.005429,4.9999998 Z" />
  <path
     d="m 11.095336,13.163139 0.904663,-0.678497 0.88851,0.678497 -0.33925,-1.09852 0.904665,-0.710808 h -1.098521 l -0.355404,-1.098519 -0.355403,1.098519 h -1.09852 l 0.888508,0.710808 z m 0.904663,2.067803 Q 10.877247,14.948234 10.146247,13.942604 9.4152467,12.936972 9.4152467,11.709216 V 9.7383395 l 2.5847523,-0.9692811 2.584754,0.9692811 v 1.9708765 q 0,1.227756 -0.731,2.233388 -0.731001,1.00563 -1.853754,1.288338 z m 0,-0.678498 q 0.840045,-0.266552 1.389306,-1.06621 0.549259,-0.799659 0.549259,-1.777018 V 10.182595 L 11.999999,9.4556336 10.061434,10.182595 v 1.526621 q 0,0.977359 0.54926,1.777018 0.54926,0.799658 1.389305,1.06621 z m 0,-2.552444 z"
     id="path1"
     style="fill:#ffffff;stroke-width:0.00807734" />
</svg>
