<?xml version="1.0"?>
<svg width="300" height="189.88" xmlns="http://www.w3.org/2000/svg" xmlns:svg="http://www.w3.org/2000/svg" data-name="Layer 1">
 <title>flag</title>
 <g class="layer">
  <title>layer 1</title>
  <path class="cls-1" d="m27.88,100.5l-15.62,-71.58a11.62,5.41 0 0 1 5.86,-5.26c73.51,-21.89 108.83,-13.01 141.37,-4.83c25.73,6.47 49.24,12.38 100.13,-7.75a12.03,5.6 0 0 1 16.76,0.55a11.4,5.31 0 0 1 2.7,3.04l15.62,71.57a11.43,5.32 0 0 1 -3.73,4.49c-58.89,24.96 -94.59,16.55 -131.34,7.89c-29.75,-7.03 -60.54,-14.27 -112.26,5.7a12.08,5.62 0 0 1 -16.78,-0.63a11.51,5.36 0 0 1 -2.7,-3.2l-0.01,0.01z" fill="#bfbfbf" stroke="black" stroke-width="1" id="svg_1"/>
  <path class="cls-2" d="m20.94,25.59l8.1,151.02a5.64,10.55 0 1 1 -11.23,2.07l-8.07,-150.53a8.31,15.55 0 1 1 11.2,-2.56z" fill="#1a1a1a" id="svg_2" transform="rotate(-2.59232 17.6824 94.22)"/>
 </g>
</svg>