<svg viewBox="0 0 24 24" xmlns="http://www.w3.org/2000/svg">
  <g
     stroke-width="2"
     fill="none"
     stroke-linecap="butt"
     id="g3"
     transform="matrix(0.19471995,0,0,0.19471995,-18.884076,-10.415156)">
    <path
       stroke="#600405"
       vector-effect="non-scaling-stroke"
       d="m 177.39,93.54 8.87,2.58 a 1.03,1.02 -75.5 0 0 1.29,-0.76 l 6.12,-27.29 a 1.06,1.05 -51.9 0 0 -0.08,-0.69 q -1.27,-2.62 -3.6,-2.41 a 1.31,1.3 -79.8 0 0 -1.08,0.76 l -12.03,26.71 a 0.81,0.8 20.3 0 0 0.51,1.1"
       id="path1" />
    <path
       stroke="#004204"
       vector-effect="non-scaling-stroke"
       d="m 176.92,94.44 a 0.9,0.9 0 0 0 -1.07,0.49 l -14.65,32.5 a 0.9,0.9 0 0 0 0.63,1.25 l 16.55,3.71 a 0.9,0.9 0 0 0 1.08,-0.68 l 7.51,-33.47 a 0.9,0.9 0 0 0 -0.63,-1.06 l -9.42,-2.74"
       id="path2" />
    <path
       stroke="#600405"
       vector-effect="non-scaling-stroke"
       d="m 135.5,157.11 h 11.15 a 1.94,1.94 0 0 0 1.81,-1.24 q 2.79,-7.23 10.24,-7.98 c 7.21,-0.73 10.58,2.88 13.62,8.51 a 1.29,1.27 -13.9 0 0 1.13,0.67 h 6.83 a 1.03,1.01 -3.2 0 0 1.02,-1.13 l -2.42,-21.5 a 1.4,1.39 3.3 0 0 -1.08,-1.2 l -17.02,-3.82 a 1.55,1.55 0 0 0 -1.49,0.47 l -24.12,26.48 a 0.44,0.44 0 0 0 0.33,0.74"
       id="path3" />
  </g>
  <path
     fill="#000407"
     d="m 19.082419,20.148088 a 0.19861435,0.20056155 0 0 1 0.19862,0.200562 v 0.780827 a 0.18693115,0.18887835 0 0 1 -0.18694,0.188878 h -4.23126 a 0.38359831,0.38359831 0 0 0 -0.36023,0.253136 l -0.15578,0.424489 a 0.11683197,0.18887835 58.3 0 1 -0.0156,0.03116 q -0.87818,1.224788 -2.38921,1.080695 c -0.83729,-0.07983 -1.65317,-0.70878 -1.91215,-1.526604 A 0.36996791,0.37191511 81.3 0 0 9.6754792,21.322253 h -5.55731 a 0.22003355,0.22003355 0 0 1 -0.22001,-0.220037 v -0.708781 a 0.21808635,0.21808635 0 0 1 0.2103,-0.218086 l 1.143,-0.0331 a 0.18498396,0.18498396 0 0 0 0.10515,-0.037 q 0.44786,-0.344655 0.99892,-0.948286 4.0423798,-4.437668 4.5875998,-5.052983 0.24534,-0.276503 0.627,-1.117693 0.46732,-1.028121 4.53697,-10.1585401 0.29987,-0.675678 0.58027,-0.954127 0.31934,-0.315447 0.84898,-0.747725 c 0.63089,-0.51406105 1.4896,-0.13435705 2.05234,0.262872 0.4576,0.325182 0.47512,0.724358 0.50433,1.246208 q 0.0467,0.860662 -0.15383,1.822578 -0.331019,1.588915 -2.42426,10.5830301 -0.18304,0.784721 -0.10126,1.477924 0.22782,1.929675 0.3466,3.477699 a 0.16356476,0.16356476 0 0 0 0.16357,0.151881 z m -3.42512,-12.3491391 1.72716,0.502377 a 0.19861435,0.20056155 14.5 0 0 0.25119,-0.147987 l 1.19169,-5.313908 a 0.20445595,0.20640315 38.1 0 0 -0.0156,-0.134356 q -0.24729,-0.510167 -0.700991,-0.469275 a 0.25313594,0.25508314 10.2 0 0 -0.2103,0.147987 l -2.34248,5.20097 a 0.15772316,0.15577596 20.3 0 0 0.0993,0.214192 z m -0.0915,0.175248 a 0.17524796,0.17524796 0 0 0 -0.208349,0.09541 l -2.852651,6.3283991 a 0.17524796,0.17524796 0 0 0 0.122681,0.2434 l 3.222609,0.722411 a 0.17524796,0.17524796 0 0 0 0.2103,-0.13241 l 1.46234,-6.5172771 a 0.17524796,0.17524796 0 0 0 -0.12269,-0.206401 z M 7.5004992,20.177296 h 2.17113 a 0.37775671,0.37775671 0 0 0 0.3524398,-0.241453 q 0.54327,-1.407825 1.99393,-1.553865 c 1.403931,-0.142145 2.060141,0.560794 2.652091,1.657067 a 0.24729434,0.25118874 76.1 0 0 0.220029,0.130462 h 1.32994 a 0.19666715,0.20056155 86.8 0 0 0.19861,-0.220033 l -0.47122,-4.186479 a 0.27260793,0.27066073 3.3 0 0 -0.2103,-0.233664 l -3.31413,-0.74383 a 0.30181593,0.30181593 0 0 0 -0.29013,0.09152 l -4.6966498,5.156184 a 0.08567678,0.08567678 0 0 0 0.0643,0.144093 z m 6.1570798,0.340332 a 1.1761085,1.1761085 0 0 0 -1.18633,-1.165789 l -0.42447,0.0037 a 1.1761085,1.1761085 0 0 0 -1.16579,1.186331 l 0.004,0.42447 a 1.1761085,1.1761085 0 0 0 1.18633,1.165789 l 0.42447,-0.0037 a 1.1761085,1.1761085 0 0 0 1.16579,-1.186331 z"
     id="path4"
     style="stroke-width:0.19472" />
  <path
     fill="#bf0303"
     d="M 15.6573,7.7989489 A 0.15772316,0.15577596 20.3 0 1 15.558,7.5847569 l 2.34248,-5.20097 a 0.25313594,0.25508314 10.2 0 1 0.210299,-0.147987 q 0.453701,-0.04089 0.700991,0.469275 a 0.20445595,0.20640315 38.1 0 1 0.0156,0.134356 l -1.19169,5.313908 a 0.19861435,0.20056155 14.5 0 1 -0.251191,0.147987 z"
     id="path5"
     style="stroke-width:0.19472" />
  <path
     fill="#008000"
     d="m 15.56578,7.9741969 1.834259,0.533532 a 0.17524796,0.17524796 0 0 1 0.12267,0.206403 l -1.46234,6.5172771 a 0.17524796,0.17524796 0 0 1 -0.210299,0.13241 l -3.22261,-0.722411 a 0.17524796,0.17524796 0 0 1 -0.12268,-0.2434 l 2.85265,-6.3283991 a 0.17524796,0.17524796 0 0 1 0.20835,-0.09541 z"
     id="path6"
     style="stroke-width:0.19472" />
  <path
     fill="#bf0303"
     d="m 7.5004792,20.177296 a 0.08567678,0.08567678 0 0 1 -0.0643,-0.144093 l 4.6966498,-5.156184 a 0.30181593,0.30181593 0 0 1 0.29013,-0.09152 l 3.314131,0.74383 a 0.27260793,0.27066073 3.3 0 1 0.2103,0.233664 l 0.47122,4.186479 a 0.19666715,0.20056155 86.8 0 1 -0.198611,0.220033 H 14.89006 A 0.24729434,0.25118874 76.1 0 1 14.67003,20.039043 C 14.078079,18.94277 13.42187,18.239831 12.017939,18.381976 q -1.45066,0.14604 -1.99393,1.553865 a 0.37775671,0.37775671 0 0 1 -0.3524398,0.241453 z"
     id="path7"
     style="stroke-width:0.19472" />
</svg>
