<svg viewBox="0 0 24 24" xmlns="http://www.w3.org/2000/svg">
  <g
     id="g3"
     transform="translate(-113.01811,-56.924632)">
    <path
       stroke="#600405"
       stroke-width="0.384942"
       fill="none"
       stroke-linecap="butt"
       vector-effect="non-scaling-stroke"
       d="m 120.5534,77.013034 h 2.15567 a 0.38109301,0.3791683 10.6 0 0 0.35415,-0.240589 q 0.59474,-1.514748 2.23844,-1.549393 c 1.22989,-0.02695 1.83425,0.673649 2.36547,1.6745 a 0.2059442,0.20786892 76.3 0 0 0.18285,0.109708 h 1.355 a 0.14050399,0.14050399 0 0 0 0.1405,-0.138579 q 0.002,-0.427286 -0.0597,-1.085538 -0.0173,-0.184772 -0.32142,-2.64263 c -0.0346,-0.288706 0,-0.742938 0.0751,-1.077838 q 1.47818,-6.563269 2.72347,-12.194977 a 0.1732241,0.18284766 38.6 0 0 -0.008,-0.09624 q -0.1944,-0.47348 -0.6467,-0.498501 a 0.19439593,0.19632064 16 0 0 -0.18478,0.103935 q -0.41766,0.769885 -0.53122,1.027796 -2.23651,5.100487 -2.87744,6.467033 -0.60244,1.287632 -1.41851,3.189248 c -0.27524,0.642854 -0.54855,1.193321 -0.92772,1.672575 q -0.25983,0.329126 -4.67512,5.144755 a 0.08083791,0.08083791 0 0 0 0.0597,0.13473"
       id="path1" />
    <path
       fill="#000407"
       d="m 132.01313,76.986088 a 0.20209478,0.20209478 0 0 1 0.2021,0.202095 v 0.752563 a 0.18862179,0.18862179 0 0 1 -0.1867,0.188621 q -2.6638,0.02695 -4.04382,0.01155 c -0.62361,-0.0058 -0.46771,0.438834 -0.73332,0.789132 q -0.84879,1.116333 -2.29618,0.979678 c -0.82378,-0.07891 -1.63408,-0.69867 -1.88429,-1.505125 a 0.36762003,0.36762003 0 0 0 -0.3503,-0.257911 h -5.49698 A 0.21364305,0.21364305 0 0 1 117.01,77.933047 v -0.708294 a 0.20979363,0.20979363 0 0 1 0.20402,-0.209794 l 1.13173,-0.03464 a 0.17129938,0.1732241 25.2 0 0 0.10009,-0.03657 q 0.44845,-0.342599 0.94503,-0.887293 2.21342,-2.428986 4.30366,-4.736716 c 0.39456,-0.43691 0.73908,-1.014324 0.95273,-1.505125 q 1.48588,-3.391343 4.39797,-9.875698 0.34644,-0.77181 0.65632,-1.07399 0.46386,-0.454232 0.98353,-0.810304 c 0.57549,-0.394566 1.64563,0.198246 2.06714,0.592812 0.45038,0.421512 0.23289,2.305805 0.13281,2.756188 q -1.21835,5.41229 -2.42129,10.533949 c -0.12896,0.550468 -0.14051,1.129806 -0.0674,1.73994 q 0.28871,2.454008 0.30796,3.154603 a 0.1578264,0.15975111 89.3 0 0 0.15975,0.153977 z m -11.45973,0.02695 h 2.15567 a 0.38109301,0.3791683 10.6 0 0 0.35415,-0.240589 q 0.59474,-1.514748 2.23844,-1.549393 c 1.22989,-0.02695 1.83425,0.673649 2.36547,1.6745 a 0.2059442,0.20786892 76.3 0 0 0.18285,0.109708 h 1.355 a 0.14050399,0.14050399 0 0 0 0.1405,-0.138579 q 0.002,-0.427286 -0.0597,-1.085538 -0.0173,-0.184772 -0.32142,-2.64263 c -0.0346,-0.288706 0,-0.742938 0.0751,-1.077838 q 1.47818,-6.563269 2.72347,-12.194977 a 0.1732241,0.18284766 38.6 0 0 -0.008,-0.09624 q -0.1944,-0.47348 -0.6467,-0.498501 a 0.19439593,0.19632064 16 0 0 -0.18478,0.103935 q -0.41766,0.769885 -0.53122,1.027796 -2.23651,5.100487 -2.87744,6.467033 -0.60244,1.287632 -1.41851,3.189248 c -0.27524,0.642854 -0.54855,1.193321 -0.92772,1.672575 q -0.25983,0.329126 -4.67512,5.144755 a 0.08083791,0.08083791 0 0 0 0.0597,0.13473 z m 6.10139,0.340251 a 1.1644509,1.1644509 0 0 0 -1.17457,-1.15425 l -0.41572,0.0036 a 1.1644509,1.1644509 0 0 0 -1.15425,1.174575 l 0.004,0.415718 a 1.1644509,1.1644509 0 0 0 1.17458,1.15425 l 0.41572,-0.0036 a 1.1644509,1.1644509 0 0 0 1.15425,-1.174574 z"
       id="path2"
       style="stroke-width:0.192471" />
    <path
       fill="#bf0303"
       d="m 120.5534,77.013034 a 0.08083791,0.08083791 0 0 1 -0.0597,-0.13473 q 4.41529,-4.815629 4.67512,-5.144755 c 0.37917,-0.479254 0.65248,-1.029721 0.92772,-1.672575 q 0.81607,-1.901616 1.41851,-3.189248 0.64093,-1.366546 2.87744,-6.467033 0.11356,-0.257911 0.53122,-1.027796 a 0.19439593,0.19632064 16 0 1 0.18478,-0.103935 q 0.4523,0.02502 0.6467,0.498501 a 0.1732241,0.18284766 38.6 0 1 0.008,0.09624 q -1.24529,5.631708 -2.72347,12.194977 c -0.0751,0.3349 -0.10971,0.789132 -0.0751,1.077838 q 0.3041,2.457858 0.32142,2.64263 0.0616,0.658252 0.0597,1.085538 a 0.14050399,0.14050399 0 0 1 -0.1405,0.138579 h -1.355 a 0.2059442,0.20786892 76.3 0 1 -0.18285,-0.109708 c -0.53122,-1.000851 -1.13558,-1.701446 -2.36547,-1.6745 q -1.6437,0.03464 -2.23844,1.549393 a 0.38109301,0.3791683 10.6 0 1 -0.35415,0.240589 z"
       id="path3"
       style="stroke-width:0.192471" />
  </g>
</svg>
