<svg viewBox="0 0 24 24" xmlns="http://www.w3.org/2000/svg">
  <g
     id="g7"
     transform="translate(0.88822723,0.07416019)">
    <g
       stroke-width="2"
       fill="none"
       stroke-linecap="butt"
       id="g3"
       transform="matrix(0.19242623,0,0,0.19242623,-19.412174,-10.210823)">
      <path
         stroke="#003204"
         vector-effect="non-scaling-stroke"
         d="m 185.32,100.72 a 0.85,0.85 0 0 0 1.06,-0.63 l 7.39,-32.68 a 0.85,0.85 0 0 0 -0.6,-1.01 l -3.24,-0.92 a 0.85,0.85 0 0 0 -1.01,0.47 l -13.87,30.84 a 0.85,0.85 0 0 0 0.55,1.17 l 9.72,2.76"
         id="path1" />
      <path
         stroke="#600405"
         vector-effect="non-scaling-stroke"
         d="m 163.08,124.58 15.53,4.41 a 1.28,1.27 -71.9 0 0 1.54,-0.79 q 1.11,-3.06 1.36,-4.44 1.98,-11.04 4.37,-21.24 a 0.6,0.6 0 0 0 -0.41,-0.71 l -9.34,-2.64 a 2.29,2.29 0 0 0 -2.77,1.4 c -1.9,5.06 -5.58,10.77 -7.66,16.2 q -0.29,0.74 -2.94,7.17 a 0.48,0.48 0 0 0 0.32,0.64"
         id="path2" />
      <path
         stroke="#003204"
         vector-effect="non-scaling-stroke"
         d="m 180.84,157.03 a 0.37,0.36 85.9 0 0 0.36,-0.42 q -1.45,-10.83 -2.34,-20.87 c -0.17,-1.87 0.44,-3.26 0.6,-4.74 a 0.77,0.76 -79 0 0 -0.54,-0.81 q -5.79,-1.81 -13.25,-3.85 -1.95,-0.54 -3.04,-0.22 a 1.56,1.52 10.3 0 0 -0.77,0.52 q -7.18,9 -14.57,16.6 c -5.05,5.2 -7.55,8.47 -11.71,12.75 a 0.66,0.66 0 0 0 0.47,1.13 h 9.98 a 2.64,2.64 0 0 0 2.44,-1.64 q 2.88,-7.07 10.39,-7.84 c 6.5,-0.67 10.77,2.97 13.46,8.87 a 0.9,0.89 77.5 0 0 0.81,0.52 h 7.71"
         id="path3" />
    </g>
    <path
       fill="#000407"
       d="m 18.105165,19.992398 a 0.19819902,0.20012328 0 0 1 0.1982,0.200123 v 0.769705 a 0.18665344,0.18665344 0 0 1 -0.18665,0.186653 h -4.20644 a 0.3367459,0.3367459 0 0 0 -0.32327,0.244382 q -0.19436,0.679264 -0.86592,1.144936 -0.58883,0.406019 -1.39702,0.386776 -1.5836701,-0.03464 -2.1955801,-1.566349 a 0.32520033,0.32712459 79.4 0 0 -0.30403,-0.205896 h -5.51109 a 0.21166885,0.21166885 0 0 1 -0.21167,-0.211669 V 20.23293 a 0.21359312,0.21551738 88.9 0 1 0.20782,-0.213593 l 1.12569,-0.03464 a 0.19435049,0.18857771 24.7 0 0 0.10969,-0.03849 q 0.41564,-0.315579 0.98329,-0.933267 2.36107,-2.570814 4.5508901,-5.0204 0.254,-0.282867 0.63693,-1.143012 2.16864,-4.8664585 4.36615,-9.7887215 0.39832,-0.88901 0.74469,-1.223831 0.39832,-0.384853 1.01023,-0.80819 a 0.56958164,0.57920295 30.9 0 1 0.38486,-0.10006204 q 0.93904,0.09814 1.64139,0.73891704 a 0.43103475,0.43103475 0 0 1 0.12893,0.225138 q 0.26939,1.221907 -0.0212,2.51886 -1.38354,6.1711085 -2.4034,10.4891535 -0.1905,0.815887 -0.10969,1.502848 0.20782,1.737609 0.34445,3.43096 a 0.17318361,0.17318361 0 0 0 0.17318,0.15779 z M 16.248255,9.1703465 a 0.1635623,0.1635623 0 0 0 0.20397,-0.121228 l 1.42203,-6.288489 a 0.1635623,0.1635623 0 0 0 -0.11545,-0.194351 l -0.62347,-0.177032 a 0.1635623,0.1635623 0 0 0 -0.19435,0.09044 l -2.66895,5.934425 a 0.1635623,0.1635623 0 0 0 0.10584,0.225139 z m -4.27956,4.5912895 2.98838,0.8486 a 0.24438131,0.24630557 18.1 0 0 0.29634,-0.152017 q 0.21359,-0.588824 0.2617,-0.854372 0.381,-2.124386 0.8409,-4.0871325 a 0.11545574,0.11545574 0 0 0 -0.0789,-0.136623 l -1.79726,-0.508005 a 0.44065607,0.44065607 0 0 0 -0.53302,0.269397 c -0.36561,0.9736755 -1.07374,2.0724295 -1.47398,3.1173035 q -0.0558,0.142396 -0.56574,1.379697 a 0.09236459,0.09236459 0 0 0 0.0616,0.123152 z m 3.41749,6.244231 a 0.07119771,0.06927344 85.9 0 0 0.0693,-0.08082 q -0.27901,-2.083976 -0.45027,-4.015935 c -0.0327,-0.359837 0.0847,-0.627309 0.11545,-0.9121 a 0.14624393,0.1481682 11 0 0 -0.10394,-0.155865 q -1.11415,-0.348291 -2.54965,-0.740841 -0.37523,-0.10391 -0.58497,-0.04233 a 0.30018492,0.29248787 10.3 0 0 -0.14817,0.100061 q -1.38162,1.731836 -2.8036501,3.194276 c -0.97175,1.000616 -1.45282,1.62985 -2.25331,2.453434 a 0.12700131,0.12700131 0 0 0 0.0904,0.217442 h 1.92041 a 0.50800525,0.50800525 0 0 0 0.46952,-0.315579 q 0.55419,-1.360454 1.9993101,-1.508622 c 1.25077,-0.128925 2.07243,0.571506 2.59006,1.706821 a 0.17318361,0.17125934 77.5 0 0 0.15586,0.100061 z m -2.64422,0.353199 a 1.1718757,1.1718757 0 0 0 -1.18408,-1.159541 l -0.39638,0.0042 a 1.1718757,1.1718757 0 0 0 -1.15954,1.184076 l 0.004,0.407924 a 1.1718757,1.1718757 0 0 0 1.18408,1.159541 l 0.39638,-0.0042 a 1.1718757,1.1718757 0 0 0 1.15954,-1.184076 z"
       id="path4"
       style="stroke-width:0.192426" />
    <path
       fill="#006000"
       d="m 16.248255,9.1703465 -1.87038,-0.531096 a 0.1635623,0.1635623 0 0 1 -0.10584,-0.225139 l 2.66895,-5.934425 a 0.1635623,0.1635623 0 0 1 0.19435,-0.09044 l 0.62347,0.177032 a 0.1635623,0.1635623 0 0 1 0.11545,0.194351 l -1.42203,6.288489 a 0.1635623,0.1635623 0 0 1 -0.20397,0.121228 z"
       id="path5"
       style="stroke-width:0.192426" />
    <path
       fill="#bf0303"
       d="m 11.968695,13.761636 a 0.09236459,0.09236459 0 0 1 -0.0616,-0.123152 q 0.50993,-1.237301 0.56574,-1.379697 c 0.40024,-1.044874 1.10837,-2.143628 1.47398,-3.1173035 a 0.44065607,0.44065607 0 0 1 0.53302,-0.269397 l 1.79726,0.508005 a 0.11545574,0.11545574 0 0 1 0.0789,0.136623 q -0.4599,1.9627465 -0.8409,4.0871325 -0.0481,0.265548 -0.2617,0.854372 a 0.24438131,0.24630557 18.1 0 1 -0.29634,0.152017 z"
       id="path6"
       style="stroke-width:0.192426" />
    <path
       fill="#006000"
       d="m 15.386185,20.005867 h -1.48361 a 0.17318361,0.17125934 77.5 0 1 -0.15586,-0.100061 c -0.51763,-1.135315 -1.33929,-1.835746 -2.59006,-1.706821 q -1.4451201,0.148168 -1.9993101,1.508622 a 0.50800525,0.50800525 0 0 1 -0.46952,0.315579 h -1.92041 a 0.12700131,0.12700131 0 0 1 -0.0904,-0.217442 c 0.80049,-0.823584 1.28156,-1.452818 2.25331,-2.453434 q 1.4220301,-1.46244 2.8036501,-3.194276 a 0.30018492,0.29248787 10.3 0 1 0.14817,-0.100061 q 0.20974,-0.06158 0.58497,0.04233 1.4355,0.39255 2.54965,0.740841 a 0.14624393,0.1481682 11 0 1 0.10391,0.155866 c -0.0308,0.284791 -0.14817,0.552263 -0.11545,0.9121 q 0.17126,1.931959 0.45027,4.015935 a 0.07119771,0.06927344 85.9 0 1 -0.0693,0.08082 z"
       id="path7"
       style="stroke-width:0.192426" />
  </g>
</svg>
