<svg viewBox="0 0 24 24" xmlns="http://www.w3.org/2000/svg">
  <g
     id="g3"
     transform="translate(-113.02565,-56.991186)">
    <path
       stroke="#003204"
       stroke-width="0.385244"
       fill="none"
       stroke-linecap="butt"
       vector-effect="non-scaling-stroke"
       d="m 120.5192,76.954593 a 0.08090125,0.08090125 0 0 0 0.0597,0.134836 q 1.13261,-0.0077 1.91273,-0.0096 0.58172,0 0.61639,-0.444957 a 0.28508058,0.28893302 62.3 0 1 0.0366,-0.115573 c 1.12106,-1.878065 3.69642,-1.664255 4.4958,0.429547 a 0.18684335,0.18491713 79.3 0 0 0.17336,0.119425 h 1.44274 a 0.09438479,0.09245857 86.8 0 0 0.0925,-0.104016 l -0.45844,-4.091291 a 0.65684107,0.66454595 48 0 1 0.0135,-0.22922 l 2.85851,-12.759283 a 0.20417934,0.20417934 0 0 0 -0.1175,-0.231146 l -0.57401,-0.256187 a 0.15217139,0.15217139 0 0 0 -0.20226,0.07705 l -5.1796,11.597772 a 2.1747026,2.2382678 77.3 0 1 -0.37947,0.581718 l -4.79051,5.300958"
       id="path1" />
    <path
       fill="#000407"
       d="m 132.01681,77.054757 a 0.2003269,0.19840068 0 0 1 0.20033,0.1984 v 0.774341 a 0.18684335,0.18491713 0 0 1 -0.18685,0.184917 h -4.20879 a 0.33901475,0.33901475 0 0 0 -0.32553,0.24463 q -0.19455,0.679956 -0.8668,1.144175 -0.58749,0.408358 -1.39843,0.389096 -1.58528,-0.03467 -2.19589,-1.566017 a 0.32938365,0.33323609 79.2 0 0 -0.3082,-0.208031 h -5.51284 A 0.21381044,0.21381044 0 0 1 117,78.002457 V 77.29746 a 0.19840068,0.19840068 0 0 1 0.18684,-0.1984 l 1.1018,-0.05971 a 0.39872757,0.41221111 24.4 0 0 0.23115,-0.09053 q 0.30434,-0.213811 1.00163,-0.976594 2.77376,-3.029944 4.21457,-4.644117 c 0.3602,-0.40258 0.69344,-0.957331 0.88028,-1.384952 q 1.72204,-3.917932 4.44957,-9.989378 0.3159,-0.70307 0.56246,-0.949626 0.31397,-0.3159 0.83598,-0.745448 c 0.64913,-0.533563 1.45429,-0.169507 2.05142,0.229221 0.78975,0.527784 0.52201,2.290275 0.3448,3.081952 q -0.99971,4.474609 -2.39044,10.434335 -0.17722,0.75893 -0.10017,1.419624 0.21189,1.858802 0.34865,3.484532 a 0.15795005,0.15795005 0 0 0 0.15795,0.146393 z M 120.5192,76.954593 a 0.08090125,0.08090125 0 0 0 0.0597,0.134836 q 1.13261,-0.0077 1.91273,-0.0096 0.58172,0 0.61639,-0.444957 a 0.28508058,0.28893302 62.3 0 1 0.0366,-0.115573 c 1.12106,-1.878065 3.69642,-1.664255 4.4958,0.429547 a 0.18684335,0.18491713 79.3 0 0 0.17336,0.119425 h 1.44274 a 0.09438479,0.09245857 86.8 0 0 0.0925,-0.104016 l -0.45844,-4.091291 a 0.65684107,0.66454595 48 0 1 0.0135,-0.22922 l 2.85851,-12.759283 a 0.20417934,0.20417934 0 0 0 -0.1175,-0.231146 l -0.57401,-0.256187 a 0.15217139,0.15217139 0 0 0 -0.20226,0.07705 l -5.1796,11.597772 a 2.1747026,2.2382678 77.3 0 1 -0.37947,0.581718 z m 6.13087,0.467205 a 1.1730681,1.1730681 0 0 0 -1.18528,-1.160721 l -0.39678,0.0042 a 1.1730681,1.1730681 0 0 0 -1.16072,1.18528 l 0.004,0.408339 a 1.1730681,1.1730681 0 0 0 1.18528,1.160721 l 0.39678,-0.0042 a 1.1730681,1.1730681 0 0 0 1.16072,-1.185281 z"
       id="path2"
       style="stroke-width:0.192622" />
    <path
       fill="#006000"
       d="m 120.5192,76.954593 4.79051,-5.300958 a 2.1747026,2.2382678 77.3 0 0 0.37947,-0.581718 l 5.1796,-11.597772 a 0.15217139,0.15217139 0 0 1 0.20226,-0.07705 l 0.57401,0.256187 a 0.20417934,0.20417934 0 0 1 0.1175,0.231146 l -2.85851,12.759283 a 0.65684107,0.66454595 48 0 0 -0.0135,0.22922 l 0.45844,4.091291 a 0.09438479,0.09245857 86.8 0 1 -0.0925,0.104016 h -1.44274 a 0.18684335,0.18491713 79.3 0 1 -0.17336,-0.119425 c -0.79938,-2.093802 -3.37474,-2.307612 -4.4958,-0.429547 a 0.28508058,0.28893302 62.3 0 0 -0.0366,0.115573 q -0.0347,0.444957 -0.61639,0.444957 -0.78012,0.0019 -1.91273,0.0096 a 0.08090125,0.08090125 0 0 1 -0.0597,-0.134836 z"
       id="path3"
       style="stroke-width:0.192622" />
  </g>
</svg>
