<svg>
  <defsid="defs1">
    <svg id="dashboard" xmlns="http://www.w3.org/2000/svg" width="24" height="24" viewBox="0 0 24 24">
      <path fill="currentColor" d="M5 5h4v6H5zm10 8h4v6h-4zM5 17h4v2H5zM15 5h4v2h-4z" opacity="0.3" />
      <path fill="currentColor" d="M3 13h8V3H3zm2-8h4v6H5zm8 16h8V11h-8zm2-8h4v6h-4zM13 3v6h8V3zm6 4h-4V5h4zM3 21h8v-6H3zm2-4h4v2H5z" />
    </svg>
    <svg id="dataset" xmlns="http://www.w3.org/2000/svg" width="24" height="24" viewBox="0 0 24 24">
      <path fill="currentColor" d="M5 19h14V5H5zm8-12h4v4h-4zm0 6h4v4h-4zM7 7h4v4H7zm0 6h4v4H7z" opacity="0.3" />
      <path fill="currentColor" d="M7 13h4v4H7zm6 0h4v4h-4z" />
      <path fill="currentColor" d="M19 3H5c-1.1 0-2 .9-2 2v14c0 1.1.9 2 2 2h14c1.1 0 2-.9 2-2V5c0-1.1-.9-2-2-2m0 16H5V5h14z" />
      <path fill="currentColor" d="M7 7h4v4H7zm6 0h4v4h-4z" />
    </svg>
    <svg id="help-center" xmlns="http://www.w3.org/2000/svg" width="24" height="24" viewBox="0 0 24 24">
      <path fill="currentColor" d="M5 5v14h14V5zm7.01 13c-.7 0-1.26-.56-1.26-1.26c0-.71.56-1.25 1.26-1.25c.71 0 1.25.54 1.25 1.25c-.01.69-.54 1.26-1.25 1.26m3.01-7.4c-.76 1.11-1.48 1.46-1.87 2.17c-.16.29-.22.48-.22 1.41h-1.82c0-.49-.08-1.29.31-1.98c.49-.87 1.42-1.39 1.96-2.16c.57-.81.25-2.33-1.37-2.33c-1.06 0-1.58.8-1.8 1.48l-1.65-.7C9.01 7.15 10.22 6 11.99 6c1.48 0 2.49.67 3.01 1.52c.44.72.7 2.07.02 3.08" opacity="0.3" />
      <path fill="currentColor" d="M13.25 16.74c0 .69-.53 1.26-1.25 1.26c-.7 0-1.26-.56-1.26-1.26c0-.71.56-1.25 1.26-1.25c.71 0 1.25.55 1.25 1.25M11.99 6c-1.77 0-2.98 1.15-3.43 2.49l1.64.69c.22-.67.74-1.48 1.8-1.48c1.62 0 1.94 1.52 1.37 2.33c-.54.77-1.47 1.29-1.96 2.16c-.39.69-.31 1.49-.31 1.98h1.82c0-.93.07-1.12.22-1.41c.39-.72 1.11-1.06 1.87-2.17c.68-1 .42-2.36-.02-3.08c-.51-.84-1.52-1.51-3-1.51M19 5H5v14h14zm0-2c1.1 0 2 .9 2 2v14c0 1.1-.9 2-2 2H5c-1.1 0-2-.9-2-2V5c0-1.1.9-2 2-2z" />
    </svg>
    <svg id="settings" xmlns="http://www.w3.org/2000/svg" width="24" height="24" viewBox="0 0 24 24">
      <path fill="currentColor" d="m19.28 8.6l-.7-1.21l-1.27.51l-1.06.43l-.91-.7c-.39-.3-.8-.54-1.23-.71l-1.06-.43l-.16-1.13L12.7 4h-1.4l-.19 1.35l-.16 1.13l-1.06.44c-.41.17-.82.41-1.25.73l-.9.68l-1.05-.42l-1.27-.52l-.7 1.21l1.08.84l.89.7l-.14 1.13c-.03.3-.05.53-.05.73s.02.43.05.73l.14 1.13l-.89.7l-1.08.84l.7 1.21l1.27-.51l1.06-.43l.91.7c.39.3.8.54 1.23.71l1.06.43l.16 1.13l.19 1.36h1.39l.19-1.35l.16-1.13l1.06-.43c.41-.17.82-.41 1.25-.73l.9-.68l1.04.42l1.27.51l.7-1.21l-1.08-.84l-.89-.7l.14-1.13c.04-.31.05-.52.05-.73s-.02-.43-.05-.73l-.14-1.13l.89-.7zM12 16c-2.21 0-4-1.79-4-4s1.79-4 4-4s4 1.79 4 4s-1.79 4-4 4" opacity="0.3" />
      <path fill="currentColor" d="M19.43 12.98c.04-.32.07-.64.07-.98s-.03-.66-.07-.98l2.11-1.65c.19-.15.24-.42.12-.64l-2-3.46a.5.5 0 0 0-.61-.22l-2.49 1c-.52-.4-1.08-.73-1.69-.98l-.38-2.65A.49.49 0 0 0 14 2h-4c-.25 0-.46.18-.49.42l-.38 2.65c-.61.25-1.17.59-1.69.98l-2.49-1a.6.6 0 0 0-.18-.03c-.17 0-.34.09-.43.25l-2 3.46c-.13.22-.07.49.12.64l2.11 1.65c-.04.32-.07.65-.07.98s.03.66.07.98l-2.11 1.65c-.19.15-.24.42-.12.64l2 3.46a.5.5 0 0 0 .61.22l2.49-1c.52.4 1.08.73 1.69.98l.38 2.65c.03.24.24.42.49.42h4c.25 0 .46-.18.49-.42l.38-2.65c.61-.25 1.17-.59 1.69-.98l2.49 1q.09.03.18.03c.17 0 .34-.09.43-.25l2-3.46c.12-.22.07-.49-.12-.64zm-1.98-1.71c.04.31.05.52.05.73s-.02.43-.05.73l-.14 1.13l.89.7l1.08.84l-.7 1.21l-1.27-.51l-1.04-.42l-.9.68c-.43.32-.84.56-1.25.73l-1.06.43l-.16 1.13l-.2 1.35h-1.4l-.19-1.35l-.16-1.13l-1.06-.43c-.43-.18-.83-.41-1.23-.71l-.91-.7l-1.06.43l-1.27.51l-.7-1.21l1.08-.84l.89-.7l-.14-1.13c-.03-.31-.05-.54-.05-.74s.02-.43.05-.73l.14-1.13l-.89-.7l-1.08-.84l.7-1.21l1.27.51l1.04.42l.9-.68c.43-.32.84-.56 1.25-.73l1.06-.43l.16-1.13l.2-1.35h1.39l.19 1.35l.16 1.13l1.06.43c.43.18.83.41 1.23.71l.91.7l1.06-.43l1.27-.51l.7 1.21l-1.07.85l-.89.7zM12 8c-2.21 0-4 1.79-4 4s1.79 4 4 4s4-1.79 4-4s-1.79-4-4-4m0 6c-1.1 0-2-.9-2-2s.9-2 2-2s2 .9 2 2s-.9 2-2 2" />
    </svg>
    <svg id="troubleshoot" xmlns="http://www.w3.org/2000/svg" width="24" height="24" viewBox="0 0 24 24">
      <path fill="currentColor" d="m22 20.59l-4.69-4.69A7.9 7.9 0 0 0 19 11c0-4.42-3.58-8-8-8c-4.08 0-7.44 3.05-7.93 7h2.02C5.57 7.17 8.03 5 11 5c3.31 0 6 2.69 6 6s-2.69 6-6 6c-2.42 0-4.5-1.44-5.45-3.5H3.4C4.45 16.69 7.46 19 11 19c1.85 0 3.55-.63 4.9-1.69L20.59 22z" />
      <path fill="currentColor" d="M8.43 9.69L9.65 15h1.64l1.26-3.78l.95 2.28h2V12h-1l-1.25-3h-1.54l-1.12 3.37L9.35 7H7.7l-1.25 4H1v1.5h6.55z" />
    </svg>
    <svg id="tune" xmlns="http://www.w3.org/2000/svg" width="24" height="24" viewBox="0 0 24 24">
      <path fill="currentColor" d="M3 5h10v2H3zm4 6H3v2h4v2h2V9H7zm6 4h-2v6h2v-2h8v-2h-8zM3 17h6v2H3zm8-6h10v2H11zm6-8h-2v6h2V7h4V5h-4z" />
    </svg>
  </defs>
</svg>
