<svg xmlns="http://www.w3.org/2000/svg" viewBox="0 0 24 24">
  <style>
    :root {
      --icon-fill: #00d000;
      --icon-fill-opacity: 1;
      --icon-stroke-opacity: 1;
      --icon-stroke: #00d000;
      --icon-stroke-width: 1;
      --icon-stroke-dasharray: none;
    }
  </style>
  <path
    fill="var(--icon-fill)"
    stroke="var(--icon-stroke)"
    stroke-width="var(--icon-stroke-width)"
    stroke-dasharray="var(--icon-stroke-dasharray)"
    fill-opacity="var(--icon-fill-opacity)"
    stroke-opacity="var(--icon-stroke-opacity)"
    d="m 12.006775,5 c 0.105455,0 0.162864,0.1142445 0.242542,0.319296 0.305819,0.7827109 0.652654,1.5531172 0.970191,2.3346564 0.852428,2.093283 1.397279,4.3342036 1.525583,6.4485776 0.0785,1.291239 0.09549,2.879509 0.05097,4.764811 -0.0017,0.08423 -0.07906,0.14649 -0.161698,0.130061 -1.036975,-0.201536 -1.915767,-0.302304 -2.636376,-0.302304 -0.719438,-0.0012 -1.597644,0.0984 -2.6346193,0.298789 -0.082634,0.01643 -0.1600332,-0.04583 -0.1616984,-0.130061 -0.04218,-1.885303 -0.023433,-3.473573 0.05624,-4.764812 C 9.3897277,11.98464 9.9363367,9.7454778 10.790523,7.6521948 11.109232,6.8706557 11.457238,6.1008352 11.764229,5.319296 11.845078,5.1142445 11.902488,5 12.006772,5 Z" />
    <circle
     style="fill:#000000;fill-opacity:1;stroke:none;stroke-width:0.347695;stroke-linejoin:round;stroke-miterlimit:0;stroke-dasharray:none;stroke-opacity:1"
     id="path43"
     cx="12"
     cy="12"
     r="1.1764351" />
</svg>
