<svg xmlns="http://www.w3.org/2000/svg" viewBox="0 0 24 24">
  <style>
    :root {
      --icon-fill: #b1b1b1;
      --icon-fill-opacity: 1;
      --icon-stroke-opacity: 1;
      --icon-stroke: #049931;
      --icon-stroke-width: 1;
      --icon-stroke-dasharray: none;
    }
  </style>
  <path
    fill="var(--icon-fill)"
    stroke="var(--icon-stroke)"
    stroke-width="var(--icon-stroke-width)"
    stroke-dasharray="var(--icon-stroke-dasharray)"
    fill-opacity="var(--icon-fill-opacity)"
    stroke-opacity="var(--icon-stroke-opacity)"
    d="m 12.006443,0.9999993 c 1.733156,0 2.711171,1.1235145 3.416589,2.6024985 q 1.036944,2.1751957 1.342691,4.5658914 c 0.180495,1.429262 0.34995,3.2526658 0.364677,4.8016498 q 0.0553,6.188532 0.01286,8.923646 -0.01469,0.941176 -0.928283,1.097737 a 0.60596126,0.60043578 49.4 0 1 -0.29653,-0.0239 q -2.291231,-0.773575 -3.501316,-1.210085 -0.250485,-0.09025 -0.418096,-0.09025 -0.165767,0 -0.418096,0.09025 -1.210075,0.434676 -3.5013155,1.208242 a 0.60043578,0.60596126 40.6 0 1 -0.2965302,0.02208 Q 6.8695524,22.831195 6.854815,21.890029 6.8142999,19.154914 6.8732494,12.966372 C 6.8898606,11.417398 7.0611079,9.5939846 7.2416128,8.1647226 Q 7.5491934,5.7740371 8.5879909,3.6006746 c 0.7054187,-1.478984 1.6834231,-2.600655 3.4184321,-2.600655 z" />
</svg>
