<svg xmlns="http://www.w3.org/2000/svg" viewBox="0 0 24 24">
  <style>
    :root {
      --icon-fill: #b1b1b1;
      --icon-fill-opacity: 1;
      --icon-stroke-opacity: 1;
      --icon-stroke: #ff9100;
      --icon-stroke-width: 1;
      --icon-stroke-dasharray: none;
    }
  </style>
  <path
    fill="var(--icon-fill)"
    stroke="var(--icon-stroke)"
    stroke-width="var(--icon-stroke-width)"
    stroke-dasharray="var(--icon-stroke-dasharray)"
    fill-opacity="var(--icon-fill-opacity)"
    stroke-opacity="var(--icon-stroke-opacity)"
    d="m 12.01442,5.0000045 q 0.184296,0 0.301253,0.1116404 1.974097,1.8642287 2.659893,4.4248843 0.264039,0.9852768 0.241002,3.9676868 c -0.01595,2.147761 0.04253,3.708964 -0.04253,5.07878 a 0.26226782,0.26758406 66.3 0 1 -0.06203,0.154172 q -0.299481,0.352644 -0.666302,0.232142 -1.424752,-0.467829 -2.330284,-0.769083 -0.0053,-0.0018 -0.116958,-0.0018 -0.111641,0 -0.116957,0.0018 -0.907306,0.299482 -2.332058,0.763766 -0.36682,0.118731 -0.6663013,-0.233913 a 0.26758406,0.26226782 23.8 0 1 -0.062021,-0.154171 c -0.081519,-1.37159 -0.019494,-2.932792 -0.028354,-5.080554 Q 8.7768231,10.512945 9.042635,9.5294412 9.735518,6.9705572 11.714932,5.1098728 11.831888,5 12.014414,5 Z" />
</svg>
