<svg xmlns="http://www.w3.org/2000/svg" viewBox="0 0 24 24">
  <style>
    :root {
      --icon-fill: #b1b1b1;
      --icon-fill-opacity: 1;
      --icon-stroke-opacity: 1;
      --icon-stroke: #e600ff;
      --icon-stroke-width: 1;
      --icon-stroke-dasharray: none;
    }
  </style>
  <path
    fill="var(--icon-fill)"
    stroke="var(--icon-stroke)"
    stroke-width="var(--icon-stroke-width)"
    stroke-dasharray="var(--icon-stroke-dasharray)"
    fill-opacity="var(--icon-fill-opacity)"
    stroke-opacity="var(--icon-stroke-opacity)"
    d="m 12.004051,5 q 0.142769,0 0.202797,0.077873 0.971788,1.2621904 1.954932,2.5470934 c 0.369895,0.4834612 0.363412,0.8484907 0.412077,1.5639479 q 0.296893,4.3105917 0.611633,8.4492087 0.05355,0.712219 -0.0795,0.906901 c -0.254711,0.373136 -0.572692,0.536992 -1.072375,0.415319 -0.915008,-0.222261 -1.495807,-0.452635 -2.03443,-0.45426 -0.537,0 -1.119423,0.230375 -2.0328073,0.452635 C 9.4666948,19.080399 9.1487141,18.916518 8.8940033,18.5434 Q 8.7609673,18.348717 8.8145055,17.636506 9.1324862,13.497883 9.4326279,9.1872921 C 9.4812862,8.4718349 9.4748315,8.1068054 9.8447048,7.6233442 Q 10.829473,6.3400634 11.801262,5.077873 11.861272,5 12.004051,5 Z" />
</svg>
