<svg xmlns="http://www.w3.org/2000/svg" viewBox="0 0 24 24">
  <style>
    :root {
      --icon-fill: #ff0000;
      --icon-fill-opacity: 1;
      --icon-stroke-opacity: 1;
      --icon-stroke: #ff0000;
      --icon-stroke-width: 1;
      --icon-stroke-dasharray: none;
    }
  </style>

  <path
    fill="var(--icon-fill)"
    stroke="var(--icon-stroke)"
    stroke-width="var(--icon-stroke-width)"
    stroke-dasharray="var(--icon-stroke-dasharray)"
    fill-opacity="var(--icon-fill-opacity)"
    stroke-opacity="var(--icon-stroke-opacity)"
    d="m 12.004699,5.0000002 q 0.178912,0 0.275491,0.1009076 2.639332,2.751054 2.607665,6.8475392 -0.02692,3.383053 -0.01898,6.367788 c 0.0015,0.479752 -0.286575,0.801949 -0.73781,0.642621 Q 12.90877,18.526901 12.482867,18.346331 12.202626,18.22595 11.996799,18.22595 q -0.205825,0 -0.486066,0.11861 -0.425903,0.180571 -1.6497817,0.610756 C 9.4097001,19.114642 9.1215428,18.792447 9.1247095,18.312695 Q 9.1357935,15.32796 9.1120405,11.944907 9.0851235,7.8484215 11.727622,5.1009079 11.824202,5.0000003 12.004699,5.0000002 Z" />
  <path
     style="fill:#ffffff;stroke: #ffffff;stroke-width:1"
     d="m 11.58995,11.539655 q -0.03008,0.03541 -0.04116,0.03541 -0.699811,0.01239 -1.402788,0.0072 -0.482902,-0.0036 -0.482902,0.414252 0,0.417792 0.481319,0.414252 0.702977,-0.0018 1.404371,0.01239 0.0095,0 0.04116,0.03364 0.03008,0.0354 0.03008,0.04603 0.01108,0.784244 0.0063,1.57026 -0.0032,0.539944 0.370489,0.539944 0.373654,0 0.372071,-0.538175 -0.0032,-0.786014 0.0095,-1.570259 0,-0.01062 0.03166,-0.04603 0.03008,-0.03364 0.04116,-0.03364 0.69981,-0.01239 1.402789,-0.0072 0.482901,0.0036 0.482901,-0.414252 0,-0.417792 -0.481317,-0.416023 -0.702979,0.0036 -1.404373,-0.01062 -0.0095,0 -0.04116,-0.0354 -0.03008,-0.03364 -0.03008,-0.04603 -0.01108,-0.782474 -0.0063,-1.5684887 0.0032,-0.539943 -0.370488,-0.539943 -0.373654,-0.00177 -0.370488,0.5381732 0.0015,0.7860145 -0.01108,1.5702585 0,0.01062 -0.03167,0.04426 z"
     id="path1" />
</svg>
