<?xml version="1.0" encoding="UTF-8" standalone="no"?>
<svg viewBox="0 0 24 24" xmlns="http://www.w3.org/2000/svg">
<g
   id="g9"
   transform="matrix(0.05487187,0,0,0.05487187,1.0000008,1.0000008)">
	<g
   id="g8">
		<g
   id="g7">
			<g
   id="g2">

					<rect
   x="177.243"
   y="138.832"
   transform="matrix(-0.7683,-0.6401,0.6401,-0.7683,210.7379,455.1261)"
   style="fill:#1e252b"
   width="21.000999"
   height="101.178"
   id="rect1" />

					<rect
   x="162.60201"
   y="178.92101"
   transform="matrix(-0.6401,-0.7683,0.7683,-0.6401,204.1216,474.4629)"
   style="fill:#1e252b"
   width="101.178"
   height="21.000999"
   id="rect2" />
			</g>
			<g
   id="g4">

					<rect
   x="176.71899"
   y="214.56799"
   transform="matrix(-0.5228,-0.8525,0.8525,-0.5228,36.2481,604.1187)"
   style="fill:#1e252b"
   width="21.000999"
   height="154.69"
   id="rect3" />

					<rect
   x="136.35899"
   y="281.38699"
   transform="matrix(-0.8524,-0.5228,0.5228,-0.8524,243.2565,652.4296)"
   style="fill:#1e252b"
   width="154.677"
   height="20.999001"
   id="rect4" />
			</g>

				<rect
   x="143.00999"
   y="83.009003"
   transform="matrix(-0.9504,-0.3111,0.3111,-0.9504,226.6148,504.0947)"
   style="fill:#333e48"
   width="20.999001"
   height="301.93201"
   id="rect5" />

				<rect
   x="96.459999"
   y="223.47501"
   transform="matrix(-0.3111,-0.9504,0.9504,-0.3111,102.033,541.9107)"
   style="fill:#333e48"
   width="301.93201"
   height="20.999001"
   id="rect6" />
			<circle
   style="fill:#c3c6c8"
   cx="200.468"
   cy="90.5"
   r="39"
   id="circle6" />
			<path
   style="fill:#1e252b"
   d="m 139.869,383.435 c 0,5.5 -4.5,10 -10,10 H 83.202 c -5.5,0 -10,-4.5 -10,-10 v -7.334 c 0,-5.5 4.5,-10 10,-10 h 46.667 c 5.5,0 10,4.5 10,10 z"
   id="path6" />
			<path
   style="fill:#1e252b"
   d="m 261.066,383.435 c 0,5.5 4.5,10 10,10 h 46.667 c 5.5,0 10,-4.5 10,-10 v -7.334 c 0,-5.5 -4.5,-10 -10,-10 h -46.667 c -5.5,0 -10,4.5 -10,10 z"
   id="path7" />
		</g>
	</g>
	<path
   style="fill:#071c2c"
   d="M 317.733,358.601 H 307.171 L 245.163,169.179 c 28.02,-15.974 45.805,-46.156 45.805,-78.679 0,-49.902 -40.598,-90.5 -90.5,-90.5 -49.902,0 -90.5,40.598 -90.5,90.5 0,32.525 17.775,62.727 45.798,78.7 L 93.765,358.6 H 83.202 c -9.649,0 -17.5,7.851 -17.5,17.5 v 7.334 c 0,9.649 7.851,17.5 17.5,17.5 h 46.667 c 9.649,0 17.5,-7.851 17.5,-17.5 V 376.1 c 0,-9.061 -6.922,-16.533 -15.755,-17.412 l 4.734,-14.463 64.119,-39.325 64.119,39.326 4.734,14.462 c -8.833,0.878 -15.755,8.351 -15.755,17.412 v 7.334 c 0,9.649 7.851,17.5 17.5,17.5 h 46.667 c 9.649,0 17.5,-7.851 17.5,-17.5 V 376.1 c 10e-4,-9.649 -7.849,-17.499 -17.499,-17.499 z M 124.968,90.5 c 0,-41.631 33.869,-75.5 75.5,-75.5 41.631,0 75.5,33.869 75.5,75.5 0,26.103 -13.729,50.405 -35.583,64.082 l -2.22,-6.779 c 19.201,-12.627 30.9,-34.04 30.9,-57.303 0,-37.825 -30.772,-68.597 -68.598,-68.597 -37.826,0 -68.597,30.772 -68.597,68.597 0,23.264 11.696,44.684 30.897,57.311 l -2.217,6.772 C 138.694,140.907 124.968,116.603 124.968,90.5 Z m 95.584,184.487 -5.737,-3.519 21.615,-13.257 1.919,5.862 z m 22.594,3.741 4.145,12.658 -12.393,-7.601 z m -42.677,-16.059 -31.165,-19.114 2.092,-6.39 29.072,-34.896 29.071,34.893 2.094,6.394 z m -16.437,-64.106 3.765,-11.502 2.909,3.491 z m 9.273,-28.326 2.203,-6.73 16.341,19.613 5.055,15.443 z M 200.468,122 c -17.369,0 -31.5,-14.131 -31.5,-31.5 0,-17.369 14.131,-31.5 31.5,-31.5 17.369,0 31.5,14.131 31.5,31.5 0,17.369 -14.131,31.5 -31.5,31.5 z m 46.5,-31.5 c 0,-25.64 -20.859,-46.5 -46.5,-46.5 -25.641,0 -46.5,20.86 -46.5,46.5 0,14.009 6.235,26.58 16.066,35.113 l -2.378,7.265 C 154.659,122.822 146.87,107.277 146.87,90.501 c 0,-29.554 24.044,-53.597 53.598,-53.597 29.554,0 53.598,24.043 53.598,53.597 0,16.773 -7.8,32.301 -20.793,42.357 l -2.371,-7.245 c 9.83,-8.533 16.066,-21.104 16.066,-35.113 z M 132.369,376.101 v 7.334 c 0,1.355 -1.145,2.5 -2.5,2.5 H 83.202 c -1.355,0 -2.5,-1.145 -2.5,-2.5 v -7.334 c 0,-1.355 1.145,-2.5 2.5,-2.5 h 46.667 c 1.356,0 2.5,1.145 2.5,2.5 z m -16.51,-17.5 h -6.312 l 73.637,-224.945 c 1.846,0.742 3.742,1.379 5.695,1.882 z m 41.931,-79.875 8.249,5.059 -12.394,7.601 z m -14.234,43.483 2.883,-8.806 33.946,-20.82 5.737,3.519 z m 19.031,-58.138 1.919,-5.861 89.991,55.193 2.883,8.806 z m 49.469,-128.533 c 1.953,-0.503 3.85,-1.141 5.695,-1.882 L 291.387,358.6 h -6.311 z m 108.177,247.897 c 0,1.355 -1.145,2.5 -2.5,2.5 h -46.667 c -1.355,0 -2.5,-1.145 -2.5,-2.5 v -7.334 c 0,-1.355 1.145,-2.5 2.5,-2.5 h 46.667 c 1.355,0 2.5,1.145 2.5,2.5 z"
   id="path8" />
</g>
</svg>
