<svg viewBox="0 0 24 24" xmlns="http://www.w3.org/2000/svg">
  <path
     fill="#000000"
     d="M 10.111073,4.6320208 11.908864,1.058734 a 0.10883782,0.10883782 0 0 1 0.194076,0.00165 l 1.785988,3.5785289 a 0.10883782,0.10883782 0 0 1 -0.09835,0.1573557 L 10.20811,4.7896786 A 0.10883782,0.10883782 0 0 1 10.11107,4.632317 Z"
     id="path9"
     style="display:inline;stroke-width:0.2;stroke:#ffcc00;stroke-opacity:1;stroke-dasharray:none" />
  <path
     fill="#000000"
     d="m 10.111074,5.5732163 1.797791,3.5732866 a 0.10883782,0.10883782 0 0 0 0.194076,-0.00161 l 1.785988,-3.578569 A 0.10883782,0.10883782 0 0 0 13.79058,5.4089685 l -3.582468,0.00659 A 0.10883782,0.10883782 0 0 0 10.111072,5.57292 Z"
     id="path9-3"
     style="display:inline;stroke-width:0.2;stroke:#ffcc00;stroke-opacity:1;stroke-dasharray:none" />
  <path
     id="rect19"
     style="fill:#000000;fill-opacity:1;stroke-width:0.2;stroke-linejoin:round;stroke-miterlimit:0;stroke:#ffcc00;stroke-opacity:1;stroke-dasharray:none"
     d="M 11.800781 9.7402344 C 11.764718 9.7469079 11.736328 9.8031683 11.736328 9.8710938 L 11.736328 11.447266 L 10.761719 11.447266 C 10.683624 11.447266 10.619141 11.50278 10.619141 11.570312 L 10.619141 22.353516 L 9.8613281 22.353516 C 9.7671319 22.353516 9.6914062 22.398604 9.6914062 22.455078 L 9.6914062 22.898438 C 9.6914062 22.954911 9.7671319 23 9.8613281 23 L 14.138672 23 C 14.232868 23 14.308594 22.954911 14.308594 22.898438 L 14.308594 22.455078 C 14.308594 22.398604 14.232868 22.353516 14.138672 22.353516 L 13.380859 22.353516 L 13.380859 11.570312 C 13.380859 11.50278 13.316376 11.447266 13.238281 11.447266 L 12.263672 11.447266 L 12.263672 9.8710938 C 12.263672 9.79864 12.230931 9.7402344 12.191406 9.7402344 L 11.808594 9.7402344 C 11.806123 9.7402344 11.803185 9.7397895 11.800781 9.7402344 z " />
  <path
     fill="#ffcc00"
     d="m 13.02939,18.654917 a 0.08407355,0.10353853 0 0 1 -0.08395,0.103706 l -1.885446,0.0042 a 0.08407355,0.10353853 0 0 1 -0.0842,-0.103377 l -0.0052,-3.948046 a 0.08407355,0.10353853 0 0 1 0.08395,-0.103706 l 1.885454,-0.0042 a 0.08407355,0.10353853 0 0 1 0.0842,0.103377 z"
     id="path13"
     style="display:inline;stroke-width:0.15295" />
</svg>
