<svg viewBox="0 0 24 24" xmlns="http://www.w3.org/2000/svg">
  <g
     id="g5"
     transform="translate(0.5369405,-0.3316579)">
    <path
       stroke="#806803"
       stroke-width="0.259451"
       fill="none"
       stroke-linecap="butt"
       vector-effect="non-scaling-stroke"
       d="m 11.998444,18.957923 a 0.18161578,0.18161578 0 0 0 0.233505,-0.133619 l 0.839325,-3.711447 a 0.18161578,0.18161578 0 0 0 -0.12194,-0.212749 L 12.226758,14.665306 A 0.18161578,0.18161578 0 0 0 12.00623,14.76 l -1.629351,3.457186 a 0.18161578,0.18161578 0 0 0 0.107671,0.250375 l 1.513894,0.490361"
       id="path1" />
    <path
       fill="#000306"
       d="m 17.350923,1.3995699 0.530576,3.677722 A 0.09859143,0.09859143 0 0 1 17.754368,5.1836663 L 14.438579,4.1315924 a 0.05967376,0.05967376 0 0 1 -0.02202,-0.099888 c 0.263345,-0.2361009 0.570797,-0.4592245 0.843219,-0.7212716 q 0.699224,-0.6719806 1.956261,-1.9549646 a 0.0791326,0.0791326 0 0 1 0.134917,0.044108 z"
       id="path2"
       style="stroke-width:0.129726" />
    <path
       fill="#000306"
       d="m 14.635764,8.6745784 -0.50982,-3.6867987 a 0.09859143,0.09859143 0 0 1 0.128428,-0.1063744 l 3.315789,1.0728302 a 0.05967376,0.05967376 0 0 1 0.02078,0.1011792 c -0.264642,0.2348031 -0.57469,0.4566361 -0.848408,0.7173855 Q 16.03812,7.442178 14.770701,8.7199789 a 0.0791326,0.0791326 0 0 1 -0.134917,-0.045416 z"
       id="path3"
       style="stroke-width:0.129726" />
    <path
       fill="#000306"
       d="m 14.721382,9.2336958 -0.57598,1.7798342 a 0.07394357,0.07394357 0 0 0 0.07006,0.09601 q 0.347666,0.0029 0.595438,0.138801 a 0.18939932,0.18939932 0 0 1 0.0934,0.208857 q -0.745928,3.143254 -1.600817,6.595249 -0.255559,1.035211 -0.1881,1.92772 0.03244,0.439774 0.146588,1.403633 a 0.28150446,0.28150446 0 0 0 0.27891,0.247773 h 0.46053 a 0.23220876,0.23220876 0 0 1 0.229612,0.199779 l 0.03376,0.247781 a 0.16864323,0.16864323 0 0 1 -0.167349,0.191988 h -2.515379 a 0.19848011,0.19977736 10.1 0 0 -0.186804,0.131024 q -0.147885,0.412521 -0.463117,0.620087 -1.0780201,0.710896 -2.04188,-0.211459 A 0.06097102,0.055782 9.1 0 1 8.875965,22.792623 L 8.6515475,22.378797 A 0.20626363,0.20626363 0 0 0 8.4699284,22.269826 H 5.1878726 A 0.14399537,0.14399537 0 0 1 5.0438575,22.125819 V 21.779458 A 0.14788713,0.14788713 0 0 1 5.1917438,21.631563 H 5.8312893 A 0.41901355,0.41641904 23.7 0 0 6.1127946,21.522594 Q 6.7238053,20.972561 7.5903675,19.993135 8.2364014,19.26278 9.1470779,18.371561 c 0.4631169,-0.45404 0.6914385,-1.192173 1.0001801,-1.857666 q 1.207747,-2.600998 1.404932,-2.984985 c 0.399551,-0.778356 0.791324,-1.7513 1.2739,-2.66716 a 0.289288,0.289288 0 0 1 0.396963,-0.116748 q 0.18291,0.101179 0.342476,0.120641 a 0.14529263,0.14529263 0 0 0 0.15697,-0.0986 l 0.535766,-1.6552918 a 0.05707924,0.05707924 0 0 1 0.08692,-0.029813 q 0.146588,0.1037793 0.335986,0.097296 a 0.04021492,0.04151218 7.8 0 1 0.04024,0.054462 z m -2.722938,9.7242272 a 0.18161578,0.18161578 0 0 0 0.233505,-0.133619 l 0.839325,-3.711447 a 0.18161578,0.18161578 0 0 0 -0.12194,-0.212749 L 12.226758,14.665306 A 0.18161578,0.18161578 0 0 0 12.00623,14.76 l -1.629351,3.457186 a 0.18161578,0.18161578 0 0 0 0.107671,0.250375 z m -1.112432,3.000179 a 0.80689295,0.84970241 87.7 0 0 -0.881398,-0.772144 0.80689295,0.84970241 87.7 0 0 -0.8166368,0.840354 0.80689295,0.84970241 87.7 0 0 0.8813978,0.772136 0.80689295,0.84970241 87.7 0 0 0.816637,-0.840346 z"
       id="path4"
       style="stroke-width:0.129726" />
    <path
       fill="#ffcc00"
       d="m 10.299113,18.392737 c -0.103967,-0.034 -0.103581,-0.16637 -0.05674,-0.265224 l 1.520461,-3.45078 c 0.03921,-0.08256 0.146475,-0.123112 0.463928,-0.01142 l 0.921139,0.292449 c 0.08961,0.02863 0.161745,0.133765 0.141156,0.22556 l -0.973836,3.660205 c -0.0231,0.104762 -0.138831,0.176296 -0.240857,0.143153 -0.616886,-0.162053 -1.193421,-0.360324 -1.77525,-0.593943 z"
       id="path5"
       style="stroke-width:0.129726" />
  </g>
</svg>
