<svg viewBox="0 0 24 24" xmlns="http://www.w3.org/2000/svg">
  <path
     stroke="#806803"
     stroke-width="0.259451"
     fill="none"
     stroke-linecap="butt"
     vector-effect="non-scaling-stroke"
     d="m 12.535384,18.626265 a 0.18161578,0.18161578 0 0 0 0.233505,-0.133619 l 0.839325,-3.711447 a 0.18161578,0.18161578 0 0 0 -0.12194,-0.212749 l -0.722575,-0.234802 a 0.18161578,0.18161578 0 0 0 -0.220528,0.09469 l -1.629351,3.457186 a 0.18161578,0.18161578 0 0 0 0.107671,0.250375 l 1.513894,0.490361"
     id="path1" />
  <path
     fill="#000306"
     d="M 17.887864,1.067912 18.41844,4.745634 A 0.09859143,0.09859143 0 0 1 18.291308,4.8520084 L 14.97552,3.7999345 A 0.05967376,0.05967376 0 0 1 14.9535,3.7000465 C 15.216845,3.4639456 15.524297,3.240822 15.796719,2.9787749 Q 16.495942,2.3067943 17.75298,1.0238103 a 0.0791326,0.0791326 0 0 1 0.134917,0.044108 z"
     id="path2"
     style="stroke-width:0.2;stroke:#ffcc00;stroke-opacity:1;stroke-dasharray:none" />
  <path
     fill="#000306"
     d="m 15.172705,8.3429205 -0.50982,-3.6867987 a 0.09859143,0.09859143 0 0 1 0.128428,-0.1063744 l 3.315788,1.0728302 a 0.05967376,0.05967376 0 0 1 0.02078,0.1011792 c -0.264642,0.2348031 -0.57469,0.4566361 -0.848408,0.7173855 Q 16.57506,7.1105201 15.307642,8.388321 A 0.0791326,0.0791326 0 0 1 15.172725,8.342905 Z"
     id="path3"
     style="stroke-width:0.2;stroke:#ffcc00;stroke-opacity:1;stroke-dasharray:none" />
  <path
     fill="#000306"
     d="m 15.258323,8.9020379 -0.57598,1.7798341 a 0.07394357,0.07394357 0 0 0 0.07006,0.09601 q 0.347666,0.0029 0.595438,0.138801 a 0.18939932,0.18939932 0 0 1 0.0934,0.208857 q -0.745928,3.143254 -1.600817,6.595249 -0.255559,1.035211 -0.1881,1.92772 0.03244,0.439774 0.146588,1.403633 a 0.28150446,0.28150446 0 0 0 0.27891,0.247773 h 0.46053 a 0.23220876,0.23220876 0 0 1 0.229612,0.199779 l 0.03376,0.247781 a 0.16864323,0.16864323 0 0 1 -0.167349,0.191988 h -2.515379 a 0.19848011,0.19977736 10.1 0 0 -0.186804,0.131024 q -0.147885,0.412521 -0.463117,0.620087 -1.078021,0.710896 -2.0418805,-0.211459 a 0.06097102,0.055782 9.1 0 1 -0.014289,-0.01815 L 9.188488,22.047139 A 0.20626363,0.20626363 0 0 0 9.0068689,21.938168 H 5.7248131 A 0.14399537,0.14399537 0 0 1 5.580798,21.794161 V 21.4478 A 0.14788713,0.14788713 0 0 1 5.7286843,21.299905 H 6.3682298 A 0.41901355,0.41641904 23.7 0 0 6.6497351,21.190936 Q 7.2607458,20.640903 8.127308,19.661477 8.7733419,18.931122 9.6840184,18.039903 c 0.4631166,-0.45404 0.6914386,-1.192173 1.0001796,-1.857666 q 1.207747,-2.600998 1.404933,-2.984985 c 0.399551,-0.778356 0.791323,-1.7513 1.273899,-2.66716 a 0.289288,0.289288 0 0 1 0.396963,-0.116748 q 0.18291,0.101179 0.342476,0.120641 a 0.14529263,0.14529263 0 0 0 0.15697,-0.0986 l 0.535766,-1.6552917 a 0.05707924,0.05707924 0 0 1 0.08692,-0.029813 q 0.146588,0.1037793 0.335986,0.097296 a 0.04021492,0.04151218 7.8 0 1 0.04024,0.054462 z m -2.722939,9.7242271 a 0.18161578,0.18161578 0 0 0 0.233505,-0.133619 l 0.839325,-3.711447 a 0.18161578,0.18161578 0 0 0 -0.12194,-0.212749 l -0.722575,-0.234802 a 0.18161578,0.18161578 0 0 0 -0.220528,0.09469 l -1.629351,3.457186 a 0.18161578,0.18161578 0 0 0 0.107671,0.250375 z m -1.112432,3.000179 A 0.80689295,0.84970241 87.7 0 0 10.541554,20.8543 0.80689295,0.84970241 87.7 0 0 9.7249177,21.694654 0.80689295,0.84970241 87.7 0 0 10.606315,22.46679 0.80689295,0.84970241 87.7 0 0 11.422952,21.626444 Z"
     id="path4"
     style="stroke-width:0.2;stroke:#ffcc00;stroke-opacity:1;stroke-dasharray:none" />
  <path
     fill="#ffcc00"
     d="m 10.836054,18.061079 c -0.103968,-0.034 -0.103581,-0.16637 -0.05674,-0.265224 l 1.520461,-3.45078 c 0.03921,-0.08256 0.146475,-0.123112 0.463928,-0.01142 l 0.921139,0.292449 c 0.08961,0.02863 0.161745,0.133765 0.141156,0.22556 l -0.973836,3.660205 c -0.0231,0.104762 -0.138831,0.176296 -0.240857,0.143153 -0.616886,-0.162053 -1.193421,-0.360324 -1.77525,-0.593943 z"
     id="path5"
     style="stroke-width:0.129726" />
</svg>
