<svg viewBox="0 0 24 24" xmlns="http://www.w3.org/2000/svg">
  <path
     fill="#000000"
     d="M 10.111073,4.6320208 11.908864,1.058734 a 0.10883782,0.10883782 0 0 1 0.194076,0.00165 l 1.785988,3.5785289 a 0.10883782,0.10883782 0 0 1 -0.09835,0.1573557 L 10.20811,4.7896786 A 0.10883782,0.10883782 0 0 1 10.11107,4.632317 Z"
     id="path9"
     style="display:inline;stroke-width:0.13113" />
  <path
     fill="#000000"
     d="m 10.111074,5.5732163 1.797791,3.5732866 a 0.10883782,0.10883782 0 0 0 0.194076,-0.00161 l 1.785988,-3.578569 A 0.10883782,0.10883782 0 0 0 13.79058,5.4089685 l -3.582468,0.00659 A 0.10883782,0.10883782 0 0 0 10.111072,5.57292 Z"
     id="path9-3"
     style="display:inline;stroke-width:0.13113" />
  <rect
     style="fill:#000000;fill-opacity:1;stroke-width:0.631398;stroke-linejoin:round;stroke-miterlimit:0"
     id="rect19"
     width="2.7602751"
     height="11.105944"
     x="10.619862"
     y="11.447474"
     ry="0.12190025"
     rx="0.14096494" />
  <rect
     style="fill:#000000;fill-opacity:1;stroke-width:0.441075;stroke-linejoin:round;stroke-miterlimit:0"
     id="rect20"
     width="4.6179342"
     height="0.64726102"
     x="9.6910324"
     y="22.352739"
     rx="0.17002945"
     ry="0.10193813" />
  <path
     fill="#ffcc00"
     d="m 13.148926,18.654917 a 0.09383637,0.10353853 0 0 1 -0.0937,0.103706 l -2.104388,0.0042 a 0.09383637,0.10353853 0 0 1 -0.09398,-0.103377 l -0.0058,-3.948046 a 0.09383637,0.10353853 0 0 1 0.0937,-0.103706 l 2.104397,-0.0042 a 0.09383637,0.10353853 0 0 1 0.09398,0.103377 z"
     id="path13"
     style="display:inline;stroke-width:0.161586" />
  <rect
     style="fill:#000000;fill-opacity:1;stroke-width:0.454614;stroke-linejoin:round;stroke-miterlimit:0"
     id="rect21"
     width="0.52595037"
     height="1.922044"
     x="11.737024"
     y="9.7396612"
     rx="0.071343638"
     ry="0.1307831" />
</svg>
