<svg viewBox="0 0 24 24" xmlns="http://www.w3.org/2000/svg">
  <path
     fill="#000000"
     d="m 10.111073,9.0410044 1.797791,-3.5732868 a 0.10883782,0.10883782 0 0 1 0.194076,0.00165 l 1.785988,3.5785289 a 0.10883782,0.10883782 0 0 1 -0.09835,0.1573557 L 10.20811,9.1986622 A 0.10883782,0.10883782 0 0 1 10.11107,9.0413006 Z"
     id="path9"
     style="display:inline;stroke-width:0.2;stroke-dasharray:none;stroke:#ffcc00;stroke-opacity:1" />
  <path
     fill="#000000"
     d="m 10.111074,4.6320402 1.797791,-3.5732866 a 0.10883782,0.10883782 0 0 1 0.194076,0.00161 l 1.785988,3.578569 A 0.10883782,0.10883782 0 0 1 13.79058,4.796288 l -3.582468,-0.00659 a 0.10883782,0.10883782 0 0 1 -0.09704,-0.1573615 z"
     id="path9-3"
     style="display:inline;stroke-width:0.2;stroke-dasharray:none;stroke:#ffcc00;stroke-opacity:1" />
  <path
     id="rect19-8"
     style="fill:#000000;fill-opacity:1;stroke-width:0.2;stroke-linejoin:round;stroke-miterlimit:0;stroke:#ffcc00;stroke-opacity:1;stroke-dasharray:none"
     d="M 11.808594 9.7402344 C 11.769069 9.7402344 11.736328 9.79864 11.736328 9.8710938 L 11.736328 11.449219 L 10.761719 11.449219 C 10.683624 11.449219 10.619141 11.477281 10.619141 11.511719 L 10.619141 17.050781 C 10.619141 17.085219 10.683624 17.111328 10.761719 17.111328 L 13.238281 17.111328 C 13.316376 17.111328 13.380859 17.085219 13.380859 17.050781 L 13.380859 11.511719 C 13.380859 11.477281 13.316376 11.449219 13.238281 11.449219 L 12.263672 11.449219 L 12.263672 9.8710938 C 12.263672 9.79864 12.230931 9.7402344 12.191406 9.7402344 L 11.808594 9.7402344 z " />
  <path
     id="rect19-8-7"
     style="fill:#ffcc00;fill-opacity:1;stroke-width:0.2;stroke-linejoin:round;stroke-miterlimit:0;stroke:#000000;stroke-opacity:1;stroke-dasharray:none"
     d="M 10.761719 16.896484 C 10.683624 16.896484 10.619141 16.924578 10.619141 16.958984 L 10.619141 22.353516 L 9.8613281 22.353516 C 9.7671319 22.353516 9.6914062 22.398604 9.6914062 22.455078 L 9.6914062 22.900391 C 9.6914062 22.956864 9.7671319 23.001953 9.8613281 23.001953 L 14.138672 23.001953 C 14.232868 23.001953 14.308594 22.956864 14.308594 22.900391 L 14.308594 22.455078 C 14.308594 22.398604 14.232868 22.353516 14.138672 22.353516 L 13.380859 22.353516 L 13.380859 16.958984 C 13.380859 16.924578 13.316376 16.896484 13.238281 16.896484 L 10.761719 16.896484 z " />
</svg>
