<svg viewBox="0 0 24 24" xmlns="http://www.w3.org/2000/svg">
  <path
     stroke="#806600"
     stroke-width="0.261316"
     fill="none"
     stroke-linecap="butt"
     vector-effect="non-scaling-stroke"
     d="m 7.6299949,21.219379 a 0.08884733,0.08754076 9.7 0 0 0.08362,0.117592 h 1.162855 a 0.39458669,0.39589327 15.4 0 0 0.33971,-0.193373 q 0.271769,-0.459916 0.5958,-0.693794 0.1803084,-0.129351 0.7460561,-0.175081 0.870182,-0.07055 1.409799,0.84013 0.116285,0.197293 0.283527,0.215585 0.34363,0.03658 0.799626,-0.01699 a 0.09668681,0.09668681 0 0 0 0.08493,-0.09277 c 0.02613,-0.861036 -0.209053,-1.823984 -0.112366,-2.661501 q 0.111059,-0.970787 0.232571,-1.293512 a 0.06140919,0.06140919 0 0 0 -0.0392,-0.0797 l -1.693326,-0.537003 a 0.18030783,0.18030783 0 0 0 -0.219505,0.100606 c -0.384134,0.892393 -0.763042,1.492113 -1.4646751,2.198972 q -1.166774,1.173307 -1.999065,1.989919 -0.171162,0.169855 -0.210359,0.280914"
     id="path1" />
  <path
     fill="#000000"
     d="m 17.833066,1.0144506 a 0.1450302,0.14633678 73.1 0 1 0.207746,0.109753 l 0.539617,3.627061 a 0.07447497,0.07316839 4.6 0 1 -0.09538,0.08101 l -3.446754,-1.090993 a 0.08362102,0.08362102 0 0 1 -0.0405,-0.131964 q 0.100607,-0.126738 0.215585,-0.222119 1.100139,-0.910685 2.120577,-1.992532 0.245637,-0.260009 0.499113,-0.380214 z"
     id="path2"
     style="stroke-width:0.2;stroke:#ffcc00;stroke-opacity:1;stroke-dasharray:none" />
  <path
     fill="#000000"
     d="m 16.654532,4.8218206 0.55399,3.721135 a 0.09668681,0.09668681 0 0 1 -0.125432,0.105833 l -3.380118,-1.068781 a 0.09668681,0.09668681 0 0 1 -0.03659,-0.162016 l 2.82613,-2.652354 a 0.09668681,0.09668681 0 0 1 0.162015,0.05618 z"
     id="path3"
     style="stroke-width:0.2;stroke:#ffcc00;stroke-opacity:1;stroke-dasharray:none" />
  <path
     fill="#000000"
     d="m 13.794432,18.516068 a 1.6110112,1.590106 49.2 0 0 -0.03397,0.505646 l 0.190761,2.070927 a 0.27568805,0.27438148 87.3 0 0 0.273074,0.249557 h 0.576202 a 0.16593546,0.16462888 0 0 1 0.165935,0.164628 v 0.216892 a 0.24694332,0.24694332 0 0 1 -0.24433,0.246944 l -2.587025,0.02874 a 0.14894995,0.14894995 0 0 0 -0.128045,0.07709 q -0.01568,0.02744 -0.177695,0.303126 c -0.441623,0.755202 -1.631916,0.816611 -2.2211831,0.207746 Q 9.3612119,22.333888 9.2135689,22.115689 A 0.29398015,0.29659331 73.2 0 0 8.9679319,21.985031 H 5.6897269 A 0.25216964,0.25086307 87.4 0 1 5.4401709,21.75638 l -0.02091,-0.223425 A 0.15678942,0.15548284 85.5 0 1 5.5642919,21.3631 c 0.452076,-0.03397 0.798319,0.06925 1.161548,-0.331871 0.318805,-0.352776 0.644143,-0.803546 1.033503,-1.188987 q 1.354922,-1.336629 2.1767604,-2.217263 A 0.44162351,0.43117089 79.9 0 0 10.014503,17.51 l 3.457206,-7.254123 a 0.26392884,0.26523542 21.5 0 1 0.318805,-0.139804 l 0.439011,0.139804 a 0.1633223,0.1633223 0 0 0 0.203826,-0.105833 l 0.531778,-1.6815664 a 0.10060654,0.10191312 21.5 0 1 0.139803,-0.06141 l 0.29398,0.139804 a 0.07186182,0.07055524 22.3 0 1 0.03659,0.08623 l -0.54615,1.7272974 a 0.08623418,0.08623418 0 0 0 0.05618,0.108446 l 0.621931,0.195986 a 0.08754076,0.08884733 10.3 0 1 0.0601,0.08754 q -0.01829,0.320111 -0.04312,0.420717 -1.13803,4.482871 -1.790013,7.342971 z m -6.1644371,2.703311 a 0.08884733,0.08754076 9.7 0 0 0.08362,0.117592 h 1.162855 a 0.39458669,0.39589327 15.4 0 0 0.33971,-0.193373 q 0.271769,-0.459916 0.5958,-0.693794 0.1803084,-0.129351 0.7460561,-0.175081 0.870182,-0.07055 1.409799,0.84013 0.116285,0.197293 0.283527,0.215585 0.34363,0.03658 0.799626,-0.01699 a 0.09668681,0.09668681 0 0 0 0.08493,-0.09277 c 0.02613,-0.861036 -0.209053,-1.823984 -0.112366,-2.661501 q 0.111059,-0.970787 0.232571,-1.293512 a 0.06140919,0.06140919 0 0 0 -0.0392,-0.0797 l -1.693326,-0.537003 a 0.18030783,0.18030783 0 0 0 -0.219505,0.100606 c -0.384134,0.892393 -0.763042,1.492113 -1.4646751,2.198972 q -1.166774,1.173307 -1.999065,1.989919 -0.171162,0.169855 -0.210359,0.280914 z m 2.087821,0.287996 a 0.87802072,0.81661153 6.2 0 0 0.7846921,0.906661 0.87802072,0.81661153 6.2 0 0 0.96108,-0.716998 0.87802072,0.81661153 6.2 0 0 -0.784692,-0.906661 0.87802072,0.81661153 6.2 0 0 -0.9610801,0.716998 z"
     id="path4"
     style="stroke-width:0.2;stroke:#ffcc00;stroke-opacity:1;stroke-dasharray:none" />
  <path
     fill="#ffcc00"
     d="m 7.6299949,21.219379 q 0.0392,-0.111059 0.210359,-0.280914 0.832291,-0.816612 1.999065,-1.989919 C 10.541052,18.241687 10.91996,17.641967 11.304094,16.749574 a 0.18030783,0.18030783 0 0 1 0.219505,-0.100606 l 1.693326,0.537003 a 0.06140919,0.06140919 0 0 1 0.0392,0.0797 q -0.121512,0.322725 -0.232571,1.293512 c -0.09669,0.837517 0.138497,1.800465 0.112366,2.661501 a 0.09668681,0.09668681 0 0 1 -0.08493,0.09277 q -0.455996,0.05357 -0.799626,0.01699 -0.167242,-0.01829 -0.283527,-0.215585 -0.539617,-0.910685 -1.409799,-0.84013 -0.5657477,0.04573 -0.7460561,0.175081 -0.324031,0.233878 -0.5958,0.693794 a 0.39458669,0.39589327 15.4 0 1 -0.33971,0.193373 h -1.162855 a 0.08884733,0.08754076 9.7 0 1 -0.08362,-0.117592 z"
     id="path5"
     style="stroke-width:0.130658" />
</svg>
