<svg viewBox="0 0 24 24" xmlns="http://www.w3.org/2000/svg">
  <path
     stroke="#806804"
     stroke-width="0.25994"
     fill="none"
     stroke-linecap="butt"
     vector-effect="non-scaling-stroke"
     d="m 13.547271,11.537706 a 0.17415949,0.17415949 0 0 0 -0.131272,0.09618 l -2.213382,4.581435 a 0.17415949,0.17415949 0 0 0 0.09747,0.239146 l 1.169729,0.427594 a 0.17415949,0.17415949 0 0 0 0.230049,-0.123464 l 1.187922,-5.029834 a 0.17415949,0.17415949 0 0 0 -0.19495,-0.213153 l -0.145567,0.02206"
     id="path1" />
  <path
     fill="#000407"
     d="M 16.079076,4.7233904 15.5436,1.0959375 a 0.08318065,0.08318065 0 0 1 0.106576,-0.092283 l 3.31683,1.0098684 a 0.08318065,0.08318065 0 0 1 0.03379,0.1403695 l -2.782651,2.6175933 a 0.08318065,0.08318065 0 0 1 -0.139072,-0.048087 z"
     id="path2"
     style="stroke-width:0.12997" />
  <path
     fill="#000407"
     d="M 14.901556,8.3521491 A 0.12607068,0.12607068 0 0 1 14.7053,8.2663868 L 14.188018,4.7701979 a 0.06758428,0.06758428 0 0 1 0.09228,-0.072792 q 0.239137,0.094877 0.49518,0.1299757 a 0.20275284,0.20665193 58.5 0 1 0.04553,0.010412 l 2.721567,0.8721017 a 0.12867007,0.12996976 34 0 1 0.04288,0.2222407 q -1.102141,0.9240879 -2.040523,1.8949662 c -0.187159,0.1936533 -0.456199,0.3938006 -0.643349,0.5250733 z"
     id="path3"
     style="stroke-width:0.12997" />
  <path
     fill="#000407"
     d="m 14.334881,8.9669108 c 0.04096,-0.1135773 0.07664,-0.1188368 0.271643,-0.061057 l 0.184811,0.086865 c 0.03494,0.1019855 -0.01643,0.1795774 -0.0652,0.3121243 l -0.470493,1.2854011 c -0.03513,0.09771 0.01485,0.205233 0.111774,0.240444 l 0.548472,0.200156 c 0.06579,0.02441 0.102721,0.09437 0.08576,0.162463 l -1.889761,7.552541 c -0.01633,0.06359 -0.02117,0.129613 -0.01429,0.194959 l 0.254737,2.264071 c 0.006,0.05453 0.05237,0.0959 0.107873,0.09617 h 0.632956 c 0.07537,0 0.136473,0.06168 0.136469,0.137775 v 0.349614 c 10e-7,0.0847 -0.06866,0.153367 -0.153366,0.153366 h -2.353751 c -0.11967,-6.8e-5 -0.230232,0.06389 -0.289835,0.16766 -0.285928,0.49908 -1.020262,1.052759 -1.6545155,0.8461 -0.5164167,-0.168957 -0.8755663,-0.455754 -1.0774488,-0.86039 -0.046798,-0.09388 -0.142905,-0.153256 -0.248243,-0.153366 H 5.1499361 c -0.1150355,5.4e-5 -0.1994709,-0.108048 -0.1715598,-0.219646 l 0.045528,-0.17936 c 0.026619,-0.108541 0.1184758,-0.188979 0.2300494,-0.201453 l 0.5939567,-0.06626 c 0.1035401,-0.01176 0.2004877,-0.05795 0.2755333,-0.131267 0.9401145,-0.921921 1.892361,-1.872435 2.8567395,-2.851542 0.535476,-0.543267 0.9019861,-1.350386 1.2009198,-2.048325 0.466592,-1.085245 0.817511,-1.767585 1.332191,-2.795647 0.0061,-0.01212 0.223984,-0.483477 0.653752,-1.414071 0.217482,-0.470487 0.453161,-0.935776 0.707036,-1.395869 0.02514,-0.04602 0.109779,-0.167517 0.159025,-0.184184 0.315789,-0.03698 0.642886,0.225742 0.736446,0.03468 z m -0.78761,2.5707952 c -0.05697,0.0084 -0.106105,0.04439 -0.131272,0.09618 l -2.213382,4.581435 c -0.04464,0.09285 6.4e-4,0.203953 0.09747,0.239146 l 1.169729,0.427594 c 0.09821,0.03639 0.206087,-0.02151 0.230049,-0.123464 l 1.187922,-5.029834 c 0.02901,-0.120084 -0.07276,-0.231354 -0.19495,-0.213153 z M 9.2037033,21.630381 c -0.00312,0.447176 0.3778032,0.812362 0.8508197,0.815668 0.473021,0.0033 0.85901,-0.356533 0.862132,-0.803713 0.0031,-0.447173 -0.377807,-0.812353 -0.85082,-0.815659 -0.4730169,-0.0033 -0.8590048,0.356527 -0.8621317,0.803704 z"
     id="path4"
     style="stroke-width:0.12997" />
  <path
     fill="#ffcc00"
     d="m 14.430021,11.464241 -1.531461,5.356811 c -0.02396,0.101954 -0.17001,0.175137 -0.268218,0.13875 L 11.084666,16.38021 c -0.09683,-0.03519 -0.141093,-0.135777 -0.09645,-0.228631 0.773235,-1.635225 2.221063,-5.048744 2.368504,-5.114771 0.135803,-0.01685 0.938946,0.224123 1.073303,0.427433 z"
     id="path5"
     style="stroke-width:0.12997" />
</svg>
