<svg viewBox="0 0 24 24" xmlns="http://www.w3.org/2000/svg">
  <path
     fill="#000000"
     d="m 10.111073,5.5732357 1.797791,3.5732868 a 0.10883782,0.10883782 0 0 0 0.194076,-0.00165 l 1.785988,-3.5785289 a 0.10883782,0.10883782 0 0 0 -0.09835,-0.1573557 l -3.582468,0.00659 a 0.10883782,0.10883782 0 0 0 -0.09704,0.1573616 z"
     id="path9"
     style="display:inline;stroke-width:0.3;stroke:#ffcc00;stroke-opacity:1;stroke-dasharray:none" />
  <path
     fill="#000000"
     d="m 10.111074,1.1642522 1.797791,3.5732866 a 0.10883782,0.10883782 0 0 0 0.194076,-0.00161 l 1.785988,-3.578569 A 0.10883782,0.10883782 0 0 0 13.79058,1.0000044 l -3.582468,0.00659 a 0.10883782,0.10883782 0 0 0 -0.09704,0.1573615 z"
     id="path9-3"
     style="display:inline;stroke-width:0.3;stroke-dasharray:none;stroke:#ffcc00;stroke-opacity:1" />
  <path
     id="rect19-8-7"
     style="fill:#000000;fill-opacity:1;stroke:#ffcc00;stroke-width:0.20668;stroke-linejoin:round;stroke-miterlimit:0;stroke-dasharray:none;stroke-opacity:1;stroke-linecap:square"
     d="m 10.731721,16.659326 c -0.08032,0 -0.146646,0.02916 -0.146646,0.06489 v 5.601123 H 9.805646 c -0.096882,0 -0.1747688,0.04682 -0.1747688,0.105451 v 0.462368 c 0,0.05864 0.077885,0.105451 0.1747688,0.105451 h 4.399352 c 0.09689,0 0.17477,-0.04682 0.17477,-0.105451 V 22.43079 c 0,-0.05863 -0.07788,-0.105451 -0.17477,-0.105451 H 13.42557 V 16.72422 c 0,-0.03572 -0.06632,-0.06489 -0.146646,-0.06489 z" />
  <path
     id="rect19-8"
     style="fill:#ffcc00;fill-opacity:1;stroke:#000000;stroke-width:0.2;stroke-linejoin:miter;stroke-miterlimit:0;stroke-dasharray:none;stroke-opacity:1;stroke-linecap:square"
     d="m 11.803364,9.7025011 c -0.0406,0 -0.07424,0.031847 -0.07424,0.071354 v 0.8605019 h -1.001241 c -0.08023,0 -0.146474,0.02921 -0.146474,0.06603 v 5.92341 c 0,0.03682 0.06625,0.06603 0.146474,0.06603 h 2.544236 c 0.08023,0 0.146474,-0.0292 0.146474,-0.06603 v -5.92341 c 0,-0.03682 -0.06625,-0.06603 -0.146474,-0.06603 H 12.270877 V 9.7738546 c 0,-0.039507 -0.03364,-0.071354 -0.07424,-0.071354 z" />
</svg>
