<svg viewBox="0 0 24 24" xmlns="http://www.w3.org/2000/svg">
  <path
     fill="#000000"
     d="m 10.111073,5.5732357 1.797791,3.5732868 a 0.10883782,0.10883782 0 0 0 0.194076,-0.00165 l 1.785988,-3.5785289 a 0.10883782,0.10883782 0 0 0 -0.09835,-0.1573557 l -3.582468,0.00659 a 0.10883782,0.10883782 0 0 0 -0.09704,0.1573616 z"
     id="path9"
     style="display:inline;stroke-width:0.13113" />
  <path
     fill="#000000"
     d="m 10.111074,1.1642522 1.797791,3.5732866 a 0.10883782,0.10883782 0 0 0 0.194076,-0.00161 l 1.785988,-3.578569 A 0.10883782,0.10883782 0 0 0 13.79058,1.0000044 l -3.582468,0.00659 a 0.10883782,0.10883782 0 0 0 -0.09704,0.1573615 z"
     id="path9-3"
     style="display:inline;stroke-width:0.13113" />
  <path
     id="rect19-8"
     style="fill:#ffcc00;fill-opacity:1;stroke-width:0.3;stroke-linejoin:round;stroke-miterlimit:0;stroke:#000000;stroke-opacity:1;stroke-dasharray:none"
     d="M 11.808594 9.7402344 C 11.769069 9.7402344 11.736328 9.79864 11.736328 9.8710938 L 11.736328 11.449219 L 10.761719 11.449219 C 10.683624 11.449219 10.619141 11.50278 10.619141 11.570312 L 10.619141 22.433594 C 10.619141 22.501126 10.683624 22.554688 10.761719 22.554688 L 13.238281 22.554688 C 13.316376 22.554688 13.380859 22.501126 13.380859 22.433594 L 13.380859 11.570312 C 13.380859 11.50278 13.316376 11.449219 13.238281 11.449219 L 12.263672 11.449219 L 12.263672 9.8710938 C 12.263672 9.79864 12.230931 9.7402344 12.191406 9.7402344 L 11.808594 9.7402344 z " />
  <rect
     style="fill:#000000;fill-opacity:1;stroke-width:0.450676;stroke-linejoin:round;stroke-miterlimit:0"
     id="rect19-8-7"
     width="2.7602751"
     height="5.6581907"
     x="10.619863"
     y="16.896595"
     ry="0.062105022"
     rx="0.14096494" />
  <rect
     style="fill:#000000;fill-opacity:1;stroke-width:0.441075;stroke-linejoin:round;stroke-miterlimit:0"
     id="rect20-3"
     width="4.6179342"
     height="0.64726102"
     x="9.6910324"
     y="22.354107"
     rx="0.17002945"
     ry="0.10193813" />
</svg>
