<svg viewBox="0 0 24 24" xmlns="http://www.w3.org/2000/svg">
  <path
     fill="#feffff"
     d="m 15.63426,1.9288816 q -0.09778,-0.086352 -0.06604,-0.2692104 0.133335,0.093972 0.06604,0.2692104 z"
     id="path17"
     style="stroke-width:0.126986" />
  <path
     fill="#feffff"
     d="m 15.759975,2.8101655 q -0.06985,-0.096506 -0.06095,-0.2577825 0.124446,0.054606 0.06095,0.2577825 z"
     id="path18"
     style="stroke-width:0.126986" />
  <path
     fill="#feffff"
     d="m 15.892042,3.7016077 q -0.10159,-0.059683 -0.07111,-0.2603208 0.125715,0.066036 0.07111,0.2603208 z"
     id="path20"
     style="stroke-width:0.126986" />
  <path
     fill="#feffff"
     d="m 16.011407,4.589243 q -0.07366,-0.083809 -0.04319,-0.2400034 0.1181,0.054606 0.04319,0.2400034 z"
     id="path21"
     style="stroke-width:0.126986" />
  <path
     fill="#000407"
     d="m 16.548559,9.5264768 q -1.641934,-0.5790576 -2.462264,-0.8279556 -0.19302,-0.05841 -0.852081,-0.1968282 -0.0508,-0.064762 -0.05841,-0.1244469 -0.0076,-0.055872 0.05206,-0.120633 0.421596,-0.453342 0.895251,-0.8546193 c 0.690806,-0.5841403 1.344789,-1.2736767 1.758764,-1.6673341 a 0.09904937,0.09904937 0 0 1 0.147303,0.01145 q 0.03937,0.052063 0.03555,0.1168311 c -0.01904,0.303495 0.06603,0.603183 0.102859,0.848268 q 0.176511,1.1784327 0.316193,2.1473398 0.0015,0.0114 0.0673,0.2984184 0.04442,0.1892072 -0.0024,0.3695309 z"
     id="path22"
     style="stroke-width:0.126986" />
  <path
     fill="#000407"
     d="m 15.796191,1.4859054 q 1.615804,0.648407 2.424799,0.9319895 0.190359,0.066571 0.842933,0.232911 0.048,0.066865 0.05306,0.1268199 0.0052,0.056145 -0.05715,0.1183082 -0.440506,0.4349899 -0.930809,0.8157468 C 17.413989,4.265894 16.731255,4.9269749 16.300903,5.3026586 A 0.09904937,0.09904937 0 0 1 16.15422,5.2849506 Q 16.1171,5.2312596 16.12367,5.1667125 C 16.15561,4.8643027 16.08337,4.561266 16.057,4.3148357 q -0.126194,-1.184877 -0.224517,-2.1588507 -10e-4,-0.011454 -0.05454,-0.3010121 -0.03633,-0.1909261 0.01812,-0.3690939 z"
     id="path22-2"
     style="stroke-width:0.126986" />
  <path
     fill="#feffff"
     d="m 13.234214,8.501693 q 0.659061,0.1384182 0.852081,0.1968282 0.82033,0.248898 2.462264,0.8279556 0.03555,0.1066668 0.03173,0.1688898 a 0.06476305,0.06603291 11.7 0 1 -0.08635,0.057149 Q 14.962478,9.2166296 13.413245,8.7607442 13.024665,8.6464574 13.234191,8.501693 Z"
     id="path23"
     style="stroke-width:0.126986" />
  <path
     fill="#000407"
     d="m 14.858374,9.6534611 -0.497791,1.4730429 c -0.0091,0.02676 0.0088,0.08456 0.03684,0.0879 0.167425,0.100921 0.370509,0.133559 0.557485,0.205979 0.03655,0.01871 0.09952,0.09783 0.111737,0.136019 -0.05258,0.505778 -1.829173,7.286807 -1.753683,7.586805 -0.01015,0.599375 0.03218,1.250817 0.126984,1.954324 0.02456,0.181166 0.06604,0.331009 0.124447,0.449529 0.01868,0.03729 0.0565,0.06087 0.09778,0.06096 h 0.633659 c 0.04181,-1.24e-4 0.07874,0.02848 0.09016,0.06985 0.05503,0.193866 0.06222,0.387308 0.02157,0.580327 l -2.595598,-0.02925 c -0.06443,-1.2e-5 -0.12398,0.03436 -0.156197,0.09016 -0.172701,0.302228 -0.259898,0.454188 -0.26159,0.455881 -0.392388,0.518103 -0.73594,0.552162 -1.304936,0.514778 -0.4901697,0.01398 -1.0214531,-0.569381 -1.1497123,-0.982087 -0.010561,-0.03337 -0.04194,-0.056 -0.077469,-0.05588 l -3.4286314,0.0015 c -0.041482,-0.147307 -0.048671,-0.284029 -0.021568,-0.410168 0.034395,-0.161856 0.1916558,-0.266698 0.3542904,-0.236196 0.3487903,0.06603 0.658637,-0.03894 0.9295401,-0.314924 0.2057183,-0.209106 1.1919797,-1.263517 2.9587844,-3.163233 0.042928,-0.04629 0.078898,-0.09938 0.1066891,-0.157466 L 13.083129,10.88547 c 0.02242,-0.04767 0.07724,-0.0707 0.126984,-0.05333 l 0.570168,0.201911 c 0.03539,0.01186 0.07377,-0.0068 0.08635,-0.0419 l 0.573975,-1.6279654 c 0.01306,-0.037585 0.04786,-0.0633 0.08762,-0.064759 0.309847,-0.00932 0.419901,0.1087747 0.330164,0.3542901 z m -1.273677,2.1003529 -1.079381,2.300993 c -0.0219,0.04654 -0.0075,0.102073 0.03431,0.132067 0.139685,0.09905 0.349213,0.195138 0.628584,0.288259 0.220956,0.07365 0.358948,0.01101 0.413975,-0.187938 0.06773,-0.248893 0.244237,-1.005732 0.529531,-2.270517 0.01243,-0.05482 -0.01507,-0.110876 -0.06602,-0.134605 l -0.35556,-0.166352 c -0.03961,-0.0189 -0.08702,-0.0018 -0.105402,0.03808 z m -6.0077252,9.847797 h 1.2228815 c 0.072564,8.8e-5 0.1401963,-0.03733 0.1790491,-0.09905 0.2311132,-0.368263 0.5422341,-0.733982 0.9968452,-0.780969 0.8723944,-0.09015 1.2114484,0.10286 1.6889154,0.807637 0.03404,0.05002 0.09061,0.07998 0.151116,0.08 h 0.838109 c 0.04176,3.42e-4 0.07441,-0.03646 0.06985,-0.07873 l -0.232392,-1.955594 c -0.0057,-0.0501 -0.03246,-0.09539 -0.07366,-0.124445 -0.440637,-0.317467 -1.281289,-0.593025 -1.74479,-0.725092 -0.220109,-0.06265 -0.380111,-0.04402 -0.480006,0.05587 -1.076,1.079385 -1.8171781,1.818869 -2.2235344,2.218452 -0.2353474,0.231963 -0.3847673,0.398316 -0.4482597,0.49906 -0.02824,0.04509 0.00352,0.103553 0.055872,0.102858 z m 1.9111443,0.320006 c -0.0075,0.125272 0.01424,0.250485 0.063498,0.365719 0.1763059,0.413537 0.6751279,0.623987 1.0874839,0.444935 0.176994,-0.07625 0.301178,-0.23274 0.385554,-0.405568 0.06482,-0.132093 0.09247,-0.279151 0.08,-0.425403 -0.02689,-0.322713 -0.244214,-0.598485 -0.552387,-0.700966 -0.179694,-0.05991 -0.374699,-0.05496 -0.551124,0.01398 -0.294133,0.115363 -0.4943956,0.391468 -0.5130263,0.707316 z"
     id="path24"
     style="stroke-width:0.126986" />
  <path
     fill="#ffcc00"
     d="m 13.6901,11.715721 c 0.179784,0.07714 0.526376,0.201372 0.686075,0.276141 -0.154368,0.669066 -0.568257,2.268152 -0.655622,2.490861 -0.05503,0.198945 -0.11395,0.124401 -0.175794,0.109083 -0.285842,-0.0708 -0.907895,-0.311189 -1.047579,-0.41024 -0.04178,-0.02999 -0.06648,-0.109504 -0.04458,-0.156041 l 0.979434,-2.32237 c 0.01838,-0.03985 0.08962,-0.0356 0.129226,-0.01671 z"
     id="path26"
     style="stroke-width:0.126986" />
  <path
     fill="#feffff"
     d="m 13.897087,16.75327 -0.100326,0.433024 q -0.04701,-0.292072 0.100326,-0.433024 z"
     id="path29"
     style="stroke-width:0.126986" />
  <path
     fill="#ffcc00"
     d="m 7.5769718,21.601611 a 0.06603291,0.06730278 16.4 0 1 -0.055872,-0.102858 q 0.095239,-0.151116 0.4482597,-0.49906 0.6095344,-0.599375 2.2235345,-2.218452 0.149842,-0.149842 0.480007,-0.05587 c 0.4635,0.132067 1.304153,0.407625 1.744792,0.725092 a 0.17651107,0.17651107 0 0 1 0.07365,0.124446 l 0.232388,1.955593 a 0.07111237,0.06984251 86.8 0 1 -0.06985,0.07873 h -0.838109 a 0.18286039,0.18286039 0 0 1 -0.151116,-0.08 c -0.47746,-0.704777 -0.816514,-0.897793 -1.6889088,-0.807637 -0.4546111,0.04701 -0.765732,0.412706 -0.9968452,0.780969 a 0.21079739,0.21206727 16.1 0 1 -0.1790491,0.09905 z"
     id="path31"
     style="stroke-width:0.126986" />
  <path
     fill="#feffff"
     d="m 11.104655,21.9013 q -0.394926,-0.477473 -0.76954,-0.497791 -0.4558804,-0.02415 -0.8469989,0.518108 a 0.81144301,0.81017311 81 0 1 0.5130269,-0.707316 0.81017311,0.81017311 0 0 1 0.551124,-0.01398 0.81144301,0.80890327 6.8 0 1 0.552388,0.700965 z"
     id="path32"
     style="stroke-width:0.126986" />
</svg>
