<svg viewBox="0 0 24 24" xmlns="http://www.w3.org/2000/svg">
  <path
     stroke="#806d04"
     stroke-width="0.38492"
     fill="none"
     stroke-linecap="butt"
     vector-effect="non-scaling-stroke"
     d="m 17.75919,2.916757 q 0.0231,0.02309 0.0115,0.09046 -0.008,0.05004 -0.1097,0.0943 -0.16937,0.07314 -0.11163,0.234801 a 0.11932523,0.11740063 68.4 0 1 -0.0635,0.148195 q -0.20593,0.08853 -0.10393,0.265595 a 0.10007923,0.10007923 0 0 1 -0.0577,0.144345 q -0.2117,0.06736 -0.13664,0.248273 0.0693,0.171289 -0.0885,0.255972 -0.18091,0.09815 -0.12317,0.277142 a 0.12124983,0.12124983 0 0 1 -0.0731,0.152044 q -0.0693,0.02502 -0.10201,0.09046 -0.15012,0.302162 -0.62549,1.558926 a 0.21170605,0.20978145 83.3 0 1 -0.0751,0.09623 q -0.13857,0.09816 -0.0808,0.22133 a 0.12509903,0.12509903 0 0 1 -0.0751,0.171289 q -0.2117,0.06736 -0.10585,0.230952 a 0.09238082,0.09238082 0 0 1 -0.0635,0.140496 q -0.0808,0.01347 -0.14242,0.211706 -0.16744,0.544662 -0.23673,0.67361 a 6.8535023,8.0371316 19.5 0 0 -0.47345,1.031586 q -0.1097,0.284841 -1.67248,3.810709 c -0.85837,1.939997 -2.33261,3.410392 -3.91848,4.930826 q -0.0308,0.02887 -0.0808,0.236726 a 0.18283705,0.19630925 71.9 0 1 -0.052,0.09431 l -1.58972,1.66093 a 0.06736102,0.06543642 21.2 0 0 0.05,0.111627 l 2.11129,-0.01925 a 0.12702363,0.12702363 0 0 0 0.12317,-0.105853 q 0.008,-0.03079 -0.025,-0.06351 -0.0308,-0.02887 0.0173,-0.123175 0.62935,-1.243292 1.72252,-1.520434 c 1.41843,-0.3599 2.40767,0.336805 3.11978,1.514661 a 0.31178528,0.31178528 0 0 0 0.15012,0.127023 q 0.66013,0.259821 1.28178,0.153968 a 0.09815462,0.09815462 0 0 0 0.0808,-0.107777 l -0.40416,-3.922336 a 2.28835,2.269104 49.8 0 1 0.0654,-0.829503 q 0.29639,-1.262538 2.5347,-11.335897 0.10586,-0.475376 0.30216,-0.875693 A 0.26174567,0.26174567 0 0 0 18.48663,2.616524 c -0.28869,0.01732 -0.52349,-0.08083 -0.7352,0.211706 a 0.06736102,0.06736102 0 0 0 0.008,0.08853"
     id="path1" />
  <path
     fill="#000407"
     d="m 19.00441,20.068796 a 0.19438465,0.19438465 0 0 1 0.19438,0.194385 v 0.767915 a 0.18476165,0.18668625 0 0 1 -0.18476,0.186687 h -4.19755 a 0.33872969,0.33872969 0 0 0 -0.32333,0.236725 q -0.22903,0.714027 -0.90842,1.179781 -0.52541,0.3599 -1.4011,0.365674 -1.02389,0.0058 -1.80336,-0.887241 c -0.3291,-0.379146 -0.17706,-0.896864 -0.85452,-0.89109 q -2.5424,0.01925 -5.32922,-0.01347 A 0.20400765,0.20208305 0.3 0 1 3.99445,21.006077 V 20.297824 A 0.21555525,0.21555525 0 0 1 4.20423,20.082268 C 4.65844,20.068798 5.27431,20.211217 5.72851,19.78588 6.53492,19.027587 7.3471,18.02872 7.9803,17.35126 q 2.53085,-2.713686 3.06204,-3.408467 0.32718,-0.429186 0.80256,-1.514661 1.67632,-3.829955 4.46507,-10.007922 a 0.72942358,0.65243956 79.6 0 1 0.0905,-0.148195 c 0.30987,-0.375297 1.2202,-1.354918 1.83222,-1.266387 0.47538,0.06736 1.53776,0.448432 1.66478,1.027737 0.20016,0.919959 0.0982,1.893807 -0.1097,2.817615 Q 18.7023,9.649009 17.45131,15.014795 c -0.12318,0.53119 -0.14627,1.098947 -0.0789,1.674403 q 0.28484,2.38073 0.31563,3.210233 a 0.17706324,0.17513864 88.7 0 0 0.17514,0.169365 z M 17.75919,2.916757 q 0.0231,0.02309 0.0115,0.09046 -0.008,0.05004 -0.1097,0.0943 -0.16937,0.07314 -0.11163,0.234801 a 0.11932523,0.11740063 68.4 0 1 -0.0635,0.148195 q -0.20593,0.08853 -0.10393,0.265595 a 0.10007923,0.10007923 0 0 1 -0.0577,0.144345 q -0.2117,0.06736 -0.13664,0.248273 0.0693,0.171289 -0.0885,0.255972 -0.18091,0.09815 -0.12317,0.277142 a 0.12124983,0.12124983 0 0 1 -0.0731,0.152044 q -0.0693,0.02502 -0.10201,0.09046 -0.15012,0.302162 -0.62549,1.558926 a 0.21170605,0.20978145 83.3 0 1 -0.0751,0.09623 q -0.13857,0.09816 -0.0808,0.22133 a 0.12509903,0.12509903 0 0 1 -0.0751,0.171289 q -0.2117,0.06736 -0.10585,0.230952 a 0.09238082,0.09238082 0 0 1 -0.0635,0.140496 q -0.0808,0.01347 -0.14242,0.211706 -0.16744,0.544662 -0.23673,0.67361 a 6.8535023,8.0371316 19.5 0 0 -0.47345,1.031586 q -0.1097,0.284841 -1.67248,3.810709 c -0.85837,1.939997 -2.33261,3.410392 -3.91848,4.930826 q -0.0308,0.02887 -0.0808,0.236726 a 0.18283705,0.19630925 71.9 0 1 -0.052,0.09431 l -1.58972,1.66093 a 0.06736102,0.06543642 21.2 0 0 0.05,0.111627 l 2.11129,-0.01925 a 0.12702363,0.12702363 0 0 0 0.12317,-0.105853 q 0.008,-0.03079 -0.025,-0.06351 -0.0308,-0.02887 0.0173,-0.123175 0.62935,-1.243292 1.72252,-1.520434 c 1.41843,-0.3599 2.40767,0.336805 3.11978,1.514661 a 0.31178528,0.31178528 0 0 0 0.15012,0.127023 q 0.66013,0.259821 1.28178,0.153968 a 0.09815462,0.09815462 0 0 0 0.0808,-0.107777 l -0.40416,-3.922336 a 2.28835,2.269104 49.8 0 1 0.0654,-0.829503 q 0.29639,-1.262538 2.5347,-11.335897 0.10586,-0.475376 0.30216,-0.875693 A 0.26174567,0.26174567 0 0 0 18.48663,2.616524 c -0.28869,0.01732 -0.52349,-0.08083 -0.7352,0.211706 a 0.06736102,0.06736102 0 0 0 0.008,0.08853 z M 13.63635,20.425906 A 1.1663079,1.1663079 0 0 0 12.4579,19.271877 l -0.408,0.0043 a 1.1663079,1.1663079 0 0 0 -1.15403,1.178452 l 0.004,0.419544 a 1.1663079,1.1663079 0 0 0 1.17846,1.154029 l 0.40799,-0.0043 a 1.1663079,1.1663079 0 0 0 1.15403,-1.178452 z"
     id="path2"
     style="stroke-width:0.19246" />
  <path
     fill="#ffd500"
     d="M 17.75149,2.828225 C 17.9632,2.535686 18.198,2.63384 18.48669,2.616519 a 0.26174567,0.26174567 0 0 1 0.25212,0.375297 q -0.1963,0.400317 -0.30216,0.875693 -2.23831,10.073359 -2.5347,11.335897 a 2.28835,2.269104 49.8 0 0 -0.0654,0.829503 l 0.40416,3.922336 a 0.09815462,0.09815462 0 0 1 -0.0808,0.107777 q -0.62165,0.105853 -1.28178,-0.153968 A 0.31178528,0.31178528 0 0 1 14.72801,19.782031 C 14.0159,18.604175 13.02666,17.90747 11.60823,18.26737 q -1.09317,0.277142 -1.72252,1.520434 -0.0481,0.09431 -0.0173,0.123175 0.0327,0.03272 0.025,0.06351 a 0.12702363,0.12702363 0 0 1 -0.12317,0.105853 l -2.11129,0.01925 a 0.06736102,0.06543642 21.2 0 1 -0.05,-0.111627 l 1.58972,-1.66093 a 0.18283705,0.19630925 71.9 0 0 0.052,-0.09431 q 0.05,-0.207857 0.0808,-0.236726 c 1.58587,-1.520434 3.06011,-2.990829 3.91848,-4.930826 q 1.56278,-3.525868 1.67248,-3.810709 a 6.8535023,8.0371316 19.5 0 1 0.47345,-1.031586 q 0.0693,-0.128948 0.23673,-0.67361 0.0616,-0.198234 0.14242,-0.211706 a 0.09238082,0.09238082 0 0 0 0.0635,-0.140496 Q 15.73268,7.033475 15.94438,6.966114 a 0.12509903,0.12509903 0 0 0 0.0751,-0.171289 q -0.0577,-0.123175 0.0808,-0.22133 a 0.21170605,0.20978145 83.3 0 0 0.0751,-0.09623 q 0.47537,-1.256764 0.62549,-1.558926 0.0327,-0.06544 0.10201,-0.09046 a 0.12124983,0.12124983 0 0 0 0.0731,-0.152044 q -0.0577,-0.178987 0.12317,-0.277142 0.15782,-0.08468 0.0885,-0.255972 -0.0751,-0.180912 0.13664,-0.248273 a 0.10007923,0.10007923 0 0 0 0.0577,-0.144345 q -0.102,-0.177064 0.10393,-0.265595 a 0.11932523,0.11740063 68.4 0 0 0.0635,-0.148195 q -0.0577,-0.161666 0.11163,-0.234801 0.102,-0.04427 0.1097,-0.0943 0.0115,-0.06736 -0.0115,-0.09046 a 0.06736102,0.06736102 0 0 1 -0.008,-0.08853 z"
     id="path3"
     style="stroke-width:0.19246" />
</svg>
