<?xml version="1.0" encoding="UTF-8" standalone="no"?>
<!-- Generator: Adobe Illustrator 23.0.1, SVG Export Plug-In . SVG Version: 6.00 Build 0)  -->

<svg
   version="1.1"
   x="0px"
   y="0px"
   width="45.7px"
   height="72px"
   viewBox="0 0 45.7 72"
   enable-background="new 0 0 45.7 72"
   xml:space="preserve"
   id="svg16"
   sodipodi:docname="basestation.svg"
   inkscape:version="1.2.2 (b0a8486541, 2022-12-01)"
   xmlns:inkscape="http://www.inkscape.org/namespaces/inkscape"
   xmlns:sodipodi="http://sodipodi.sourceforge.net/DTD/sodipodi-0.dtd"
   xmlns="http://www.w3.org/2000/svg"
   xmlns:svg="http://www.w3.org/2000/svg"><defs
   id="defs20">
	
	

	
	

		
	</defs><sodipodi:namedview
   id="namedview18"
   pagecolor="#ffffff"
   bordercolor="#000000"
   borderopacity="0.25"
   inkscape:showpageshadow="2"
   inkscape:pageopacity="0.0"
   inkscape:pagecheckerboard="0"
   inkscape:deskcolor="#d1d1d1"
   showgrid="false"
   inkscape:zoom="8.2299373"
   inkscape:cx="73.026073"
   inkscape:cy="37.545851"
   inkscape:window-width="1920"
   inkscape:window-height="1008"
   inkscape:window-x="0"
   inkscape:window-y="0"
   inkscape:window-maximized="1"
   inkscape:current-layer="svg16" />
<g
   id="g4"
   transform="rotate(45.196151,41.316247,42.387826)">
		<path
   d="M 35.666407,55.863385 28.863421,62.657013 9.049175,42.77931 -3.4778106,41.218956 14.006665,23.700172 15.574933,36.28623 M 16.821219,35.249671 14.950542,20.740216 -6.451153,42.244688 8.1269831,44.063622 28.692674,64.711429 37.6525,55.775154 Z"
   id="path2"
   sodipodi:nodetypes="ccccccccccccc" />
	</g>

<path
   style="fill:#ffff00;stroke-width:0;stroke-linejoin:bevel"
   d="m 22.435094,47.782904 -4.235826,-0.03359 0.08995,-14.002161 0.08995,-14.002163 -3.790033,-4.903396 C 12.50462,12.144722 10.820987,9.9163117 10.847731,9.8895678 c 0.02674,-0.026744 5.514478,-0.034691 12.194966,-0.017662 l 12.14634,0.030964 -3.872414,4.9210582 -3.872415,4.921058 0.06925,7.351211 c 0.03808,4.043165 0.104283,10.372193 0.147104,14.064505 l 0.07786,6.713296 -0.533749,-0.02875 c -0.293562,-0.01581 -2.43987,-0.04387 -4.769575,-0.06234 z"
   id="path21190" /></svg>
