<?xml version="1.0" encoding="UTF-8" standalone="no"?>
<!-- Generator: Adobe Illustrator 23.0.1, SVG Export Plug-In . SVG Version: 6.00 Build 0)  -->

<svg
   version="1.1"
   id="Layer_2"
   x="0px"
   y="0px"
   width="45.7px"
   height="72px"
   viewBox="0 0 45.7 72"
   enable-background="new 0 0 45.7 72"
   xml:space="preserve"
   sodipodi:docname="real-special.svg"
   inkscape:version="1.2.2 (b0a8486541, 2022-12-01)"
   xmlns:inkscape="http://www.inkscape.org/namespaces/inkscape"
   xmlns:sodipodi="http://sodipodi.sourceforge.net/DTD/sodipodi-0.dtd"
   xmlns="http://www.w3.org/2000/svg"
   xmlns:svg="http://www.w3.org/2000/svg"><defs
   id="defs1056" /><sodipodi:namedview
   id="namedview1054"
   pagecolor="#ffffff"
   bordercolor="#000000"
   borderopacity="0.25"
   inkscape:showpageshadow="2"
   inkscape:pageopacity="0.0"
   inkscape:pagecheckerboard="0"
   inkscape:deskcolor="#d1d1d1"
   showgrid="false"
   inkscape:zoom="11.638889"
   inkscape:cx="19.331742"
   inkscape:cy="42.873508"
   inkscape:window-width="1920"
   inkscape:window-height="1012"
   inkscape:window-x="0"
   inkscape:window-y="0"
   inkscape:window-maximized="1"
   inkscape:current-layer="Layer_2" />



<path
   style="fill:#ffff00;stroke:#212025;stroke-width:1;stroke-linejoin:bevel;stroke-dasharray:none;stroke-opacity:1"
   d="m 19.787973,19.776887 c 0.92448,-1.38222 1.750036,-2.603078 1.83457,-2.713019 0.153235,-0.199291 0.14866,-0.207448 -1.518016,-2.706444 l -1.671715,-2.506552 1.690973,-0.02335 c 1.07054,-0.01478 1.723249,0.0089 1.778939,0.06462 0.04838,0.04838 0.481224,0.774162 0.961872,1.612846 0.480649,0.838684 0.907799,1.516753 0.949224,1.506819 0.04143,-0.0099 0.461952,-0.733675 0.934506,-1.608314 l 0.859189,-1.590253 1.740934,-0.0027 1.740935,-0.0027 -0.204236,0.322196 c -0.112329,0.177207 -0.830226,1.288188 -1.595326,2.468846 -0.881284,1.359947 -1.376422,2.202738 -1.351068,2.299695 0.02201,0.08418 0.797419,1.307424 1.723127,2.718332 0.925707,1.410908 1.683104,2.58953 1.683104,2.619159 0,0.02963 -0.767902,0.05387 -1.706447,0.05387 H 25.93209 l -1.021476,-1.672907 c -0.561812,-0.92014 -1.06014,-1.672386 -1.107395,-1.671656 -0.04726,7.3e-4 -0.545295,0.753572 -1.106755,1.672982 l -1.020835,1.671656 h -1.784264 -1.784263 z"
   id="path8632" /><path
   style="fill:#ffff00;fill-opacity:1;stroke:#212025;stroke-width:1.5;stroke-linejoin:round;stroke-dasharray:none;stroke-opacity:1"
   d="m 18.502723,26.157136 -0.759744,11.468428 -2.14015,0.0047 -0.197184,12.229583 -2.236282,-0.0053 -0.03262,5.864595 c -2.689832,2.673772 -6.6012035,3.355617 -11.9924715,3.386862 l -0.02429,12.079834 43.5105275,0.05513 0.03333,-11.51511 c -4.242302,-0.154524 -7.65947,-1.756906 -10.819116,-3.927091 l -0.08223,-5.938362 -2.247224,-0.0019 0.0354,-12.117799 -1.886999,-0.06721 -0.651749,-11.490115 z"
   id="path497"
   sodipodi:nodetypes="ccccccccccccccccc" /></svg>
