<?xml version="1.0" encoding="UTF-8" standalone="no"?>
<!-- Generator: Adobe Illustrator 23.0.1, SVG Export Plug-In . SVG Version: 6.00 Build 0)  -->

<svg
   version="1.1"
   x="0px"
   y="0px"
   width="45.7px"
   height="72px"
   viewBox="0 0 45.7 72"
   enable-background="new 0 0 45.7 72"
   xml:space="preserve"
   id="svg1038"
   sodipodi:docname="real-aton.svg"
   inkscape:version="1.2.2 (b0a8486541, 2022-12-01)"
   xmlns:inkscape="http://www.inkscape.org/namespaces/inkscape"
   xmlns:sodipodi="http://sodipodi.sourceforge.net/DTD/sodipodi-0.dtd"
   xmlns="http://www.w3.org/2000/svg"
   xmlns:svg="http://www.w3.org/2000/svg"><defs
   id="defs1042" /><sodipodi:namedview
   id="namedview1040"
   pagecolor="#ffffff"
   bordercolor="#000000"
   borderopacity="0.25"
   inkscape:showpageshadow="2"
   inkscape:pageopacity="0.0"
   inkscape:pagecheckerboard="0"
   inkscape:deskcolor="#d1d1d1"
   showgrid="false"
   inkscape:zoom="11.638889"
   inkscape:cx="15.72315"
   inkscape:cy="36"
   inkscape:window-width="1434"
   inkscape:window-height="748"
   inkscape:window-x="350"
   inkscape:window-y="37"
   inkscape:window-maximized="0"
   inkscape:current-layer="svg1038" />
<g
   id="Layer_2">
	<g
   id="g1026">
		<path
   d="M22.9,28.9l19.8,19.8L22.9,68.6L3,48.8L22.9,28.9 M22.9,25.9L0,48.8l22.9,22.9l22.9-22.9L22.9,25.9L22.9,25.9z"
   id="path1024" />
	</g>
	<g
   id="g1030">
		<path
   d="M23.7,42v5.8h5.5v1.5h-5.5v5.8h-1.6v-5.8h-5.5v-1.5h5.5V42H23.7z"
   id="path1028" />
	</g>
</g>
<g
   id="Layer_3"
   display="none">
	<polygon
   display="inline"
   stroke="#000000"
   stroke-width="0.2564"
   stroke-miterlimit="10"
   points="28.5,24.1 17.5,24.1 23,16.9     "
   id="polygon1033" />
	<polygon
   display="inline"
   stroke="#000000"
   stroke-width="0.2564"
   stroke-miterlimit="10"
   points="17.5,7.5 28.5,7.5 22.9,14.6     "
   id="polygon1035" />
</g>
<path
   style="fill:none;stroke:#ffffff;stroke-width:0.131192;stroke-linejoin:bevel;stroke-opacity:0.0094927;fill-opacity:0"
   d="M 12.992098,58.671607 C 7.5712653,53.269439 3.1263566,48.829066 3.1145236,48.804111 3.1026906,48.779158 7.549054,44.302821 12.995332,38.856697 l 9.902322,-9.902044 9.872561,9.872841 9.872562,9.872842 -9.829742,9.867016 c -5.406358,5.426858 -9.860146,9.880372 -9.897309,9.896698 -0.03716,0.01632 -4.502795,-4.390274 -9.923628,-9.792443 z m 10.721506,-6.432944 v -2.921241 h 2.749403 2.749404 v -0.773269 -0.77327 h -2.749404 -2.749403 v -2.921241 -2.921241 h -0.816229 -0.816229 v 2.921241 2.921241 h -2.749404 -2.749403 v 0.77327 0.773269 h 2.749403 2.749404 v 2.921241 2.921242 h 0.816229 0.816229 z"
   id="path1299" /><path
   style="fill:#ffff00;stroke-width:0;stroke-linejoin:bevel"
   d="m 12.973747,58.643437 -9.8806683,-9.8288 9.9021003,-9.908418 9.902101,-9.908419 9.837791,9.83751 c 5.410786,5.41063 9.828109,9.862647 9.816276,9.893372 -0.03753,0.09743 -19.585925,19.748761 -19.642673,19.746099 -0.02984,-0.0014 -4.50056,-4.425504 -9.934927,-9.831344 z m 10.782816,-6.404774 v -2.921241 h 2.749403 2.749404 v -0.77327 -0.773269 h -2.749404 -2.749403 v -2.921241 -2.921241 h -0.859189 -0.859188 v 2.921241 2.921241 h -2.749403 -2.749404 v 0.773269 0.77327 h 2.749404 2.749403 v 2.921241 2.921241 h 0.859188 0.859189 z"
   id="path20380" /></svg>
