<?xml version="1.0" encoding="UTF-8" standalone="no"?>
<!-- Generator: Adobe Illustrator 23.0.1, SVG Export Plug-In . SVG Version: 6.00 Build 0)  -->

<svg
   version="1.1"
   x="0px"
   y="0px"
   width="45.7px"
   height="72px"
   viewBox="0 0 45.7 72"
   enable-background="new 0 0 45.7 72"
   xml:space="preserve"
   id="svg16"
   sodipodi:docname="real-cardinal-north.svg"
   inkscape:version="1.2.2 (b0a8486541, 2022-12-01)"
   xmlns:inkscape="http://www.inkscape.org/namespaces/inkscape"
   xmlns:sodipodi="http://sodipodi.sourceforge.net/DTD/sodipodi-0.dtd"
   xmlns="http://www.w3.org/2000/svg"
   xmlns:svg="http://www.w3.org/2000/svg"><defs
   id="defs20" /><sodipodi:namedview
   id="namedview18"
   pagecolor="#ffffff"
   bordercolor="#000000"
   borderopacity="0.25"
   inkscape:showpageshadow="2"
   inkscape:pageopacity="0.0"
   inkscape:pagecheckerboard="0"
   inkscape:deskcolor="#d1d1d1"
   showgrid="false"
   inkscape:zoom="8.2299373"
   inkscape:cx="11.907746"
   inkscape:cy="31.713486"
   inkscape:window-width="1434"
   inkscape:window-height="752"
   inkscape:window-x="50"
   inkscape:window-y="86"
   inkscape:window-maximized="0"
   inkscape:current-layer="svg16" />


<path
   style="fill:#ffff00;stroke:#212025;stroke-width:1.5;stroke-linejoin:bevel;stroke-dasharray:none;stroke-opacity:1"
   d="m 18.327205,23.266411 c 0.189664,-0.313976 5.549845,-7.281154 5.599775,-7.278603 0.0325,0.0017 0.977122,1.209895 2.099155,2.684964 1.122034,1.47507 2.388539,3.136241 2.814456,3.691491 l 0.774394,1.009547 h -5.676328 c -4.518384,0 -5.663093,-0.02191 -5.611452,-0.107399 z"
   id="path15241" /><path
   style="fill:#ffff00;stroke:#212025;stroke-width:1.5;stroke-linejoin:bevel;stroke-dasharray:none;stroke-opacity:1"
   d="m 18.167628,13.564623 c 0.04721,-0.05907 1.294799,-1.673269 2.772412,-3.5871121 1.477612,-1.9138422 2.714034,-3.510866 2.747603,-3.5489414 0.04747,-0.053846 5.346495,6.6779705 5.617221,7.1360535 0.05051,0.08547 -1.088611,0.107399 -5.579804,0.107399 -4.503125,0 -5.625933,-0.0217 -5.557432,-0.107399 z"
   id="path15243" /><path
   style="fill:#000000;fill-opacity:1;stroke:#212025;stroke-width:1.5;stroke-linejoin:round;stroke-dasharray:none;stroke-opacity:1"
   d="m 18.459563,26.074766 -0.759744,11.468428 -2.14015,0.0047 -0.197184,12.229583 -2.236282,-0.0053 -0.03262,5.864595 c -2.689832,2.673772 -6.6012047,3.355617 -11.9924727,3.386862 l -0.02429,12.079834 43.5105257,0.05513 0.0333,-11.51511 C 40.378374,59.488964 36.961206,57.886582 33.80156,55.716397 l -0.08223,-5.938362 -2.247224,-0.0019 0.0354,-12.117799 -1.886999,-0.06721 -0.651749,-11.490115 z"
   id="path497"
   sodipodi:nodetypes="ccccccccccccccccc" /><path
   style="fill:#ffff00;fill-opacity:1;stroke:#ffff00;stroke-width:2.39684;stroke-linecap:round;stroke-linejoin:miter;stroke-dasharray:none;stroke-opacity:1"
   d="m 3.1198585,69.006789 0.030152,-8.05908 3.0607524,-0.223502 c 3.653777,-0.652191 5.5563471,-1.231478 8.1063621,-3.411385 l 18.336382,0.100348 2.639981,1.583995 c 2.533218,0.982263 5.171786,2.171826 7.25042,2.47612 l -0.004,7.734309 z"
   id="path4369"
   sodipodi:nodetypes="ccccccccc" /></svg>
