<?xml version="1.0" encoding="UTF-8" standalone="no"?>
<!-- Generator: Adobe Illustrator 23.0.1, SVG Export Plug-In . SVG Version: 6.00 Build 0)  -->

<svg
   version="1.1"
   x="0px"
   y="0px"
   width="45.7px"
   height="72px"
   viewBox="0 0 45.7 72"
   enable-background="new 0 0 45.7 72"
   xml:space="preserve"
   id="svg16"
   sodipodi:docname="real-port.svg"
   inkscape:version="1.2.2 (b0a8486541, 2022-12-01)"
   xmlns:inkscape="http://www.inkscape.org/namespaces/inkscape"
   xmlns:sodipodi="http://sodipodi.sourceforge.net/DTD/sodipodi-0.dtd"
   xmlns="http://www.w3.org/2000/svg"
   xmlns:svg="http://www.w3.org/2000/svg"><defs
   id="defs20">
	
	
</defs><sodipodi:namedview
   id="namedview18"
   pagecolor="#ffffff"
   bordercolor="#000000"
   borderopacity="0.25"
   inkscape:showpageshadow="2"
   inkscape:pageopacity="0.0"
   inkscape:pagecheckerboard="0"
   inkscape:deskcolor="#d1d1d1"
   showgrid="false"
   inkscape:zoom="8.2299375"
   inkscape:cx="24.423029"
   inkscape:cy="39.976002"
   inkscape:window-width="1920"
   inkscape:window-height="1012"
   inkscape:window-x="0"
   inkscape:window-y="0"
   inkscape:window-maximized="1"
   inkscape:current-layer="svg16" />


<rect
   style="fill:#000000;fill-opacity:1;stroke-width:0;stroke-linejoin:bevel"
   id="rect946"
   width="11.530267"
   height="13.05794"
   x="18.180321"
   y="9.1515265" /><path
   style="fill:#ff00ff;stroke:#000000;stroke-width:0;stroke-linejoin:bevel;stroke-opacity:1"
   d="M 18.19328,15.7034 V 9.2634973 h 5.710857 5.710858 V 15.7034 22.143304 H 23.904137 18.19328 Z"
   id="path1675" /><path
   style="fill:#ff0000;stroke:#212025;stroke-width:1.5;stroke-linejoin:bevel;stroke-dasharray:none;stroke-opacity:1;fill-opacity:1"
   d="M 18.19328,15.7034 V 9.2634973 h 5.710857 5.710858 V 15.7034 22.143304 H 23.904137 18.19328 Z"
   id="path2231" /><path
   style="fill:#ff0000;fill-opacity:1;stroke:#212025;stroke-width:1.5;stroke-linejoin:round;stroke-dasharray:none;stroke-opacity:1"
   d="m 18.566194,26.268944 -0.759744,11.468428 -2.14015,0.0047 -0.197184,12.229583 -2.236282,-0.0053 -0.03262,5.864595 c -2.689832,2.673772 -6.6012042,3.355617 -11.992472,3.386862 l -0.024293,12.079834 43.510528,0.05513 0.03333,-11.51511 C 40.485005,59.683142 37.067837,58.08076 33.908191,55.910575 l -0.08223,-5.938362 -2.247224,-0.0019 0.0354,-12.117799 -1.886999,-0.06721 -0.651749,-11.490115 z"
   id="path497"
   sodipodi:nodetypes="ccccccccccccccccc" /></svg>
