<?xml version="1.0" encoding="UTF-8" standalone="no"?>
<!-- Generator: Adobe Illustrator 23.0.1, SVG Export Plug-In . SVG Version: 6.00 Build 0)  -->

<svg
   version="1.1"
   x="0px"
   y="0px"
   width="45.7px"
   height="72px"
   viewBox="0 0 45.7 72"
   enable-background="new 0 0 45.7 72"
   xml:space="preserve"
   id="svg16"
   sodipodi:docname="real-cardinal-south.svg"
   inkscape:version="1.2.2 (b0a8486541, 2022-12-01)"
   xmlns:inkscape="http://www.inkscape.org/namespaces/inkscape"
   xmlns:sodipodi="http://sodipodi.sourceforge.net/DTD/sodipodi-0.dtd"
   xmlns="http://www.w3.org/2000/svg"
   xmlns:svg="http://www.w3.org/2000/svg"><defs
   id="defs20" /><sodipodi:namedview
   id="namedview18"
   pagecolor="#ffffff"
   bordercolor="#000000"
   borderopacity="0.25"
   inkscape:showpageshadow="2"
   inkscape:pageopacity="0.0"
   inkscape:pagecheckerboard="0"
   inkscape:deskcolor="#d1d1d1"
   showgrid="false"
   inkscape:zoom="23.277778"
   inkscape:cx="23.326969"
   inkscape:cy="47.169451"
   inkscape:window-width="1434"
   inkscape:window-height="752"
   inkscape:window-x="50"
   inkscape:window-y="86"
   inkscape:window-maximized="0"
   inkscape:current-layer="svg16" />


<path
   style="fill:#ffff00;stroke:#212025;stroke-width:1.5;stroke-linejoin:bevel;stroke-dasharray:none;stroke-opacity:1"
   d="M 21.145337,20.141319 18.376284,16.44906 h 5.638097 5.638097 l -0.244375,0.322196 c -0.367054,0.483942 -5.373093,6.928366 -5.437717,7.000135 -0.0308,0.0342 -1.30207,-1.599329 -2.825049,-3.630072 z"
   id="path9373" /><path
   style="fill:#ffff00;stroke:#212025;stroke-width:1.5;stroke-linejoin:bevel;stroke-dasharray:none;stroke-opacity:1"
   d="m 21.285752,10.46256 -2.76009,-3.6300709 5.597722,-0.022106 c 3.078747,-0.012159 5.614117,-0.00571 5.634155,0.014327 0.03261,0.032609 -5.629626,7.2679229 -5.687754,7.2679229 -0.01317,0 -1.265983,-1.633532 -2.784033,-3.630073 z"
   id="path9375" /><path
   style="fill:#000000;fill-opacity:1;stroke:#212025;stroke-width:1.5;stroke-linejoin:round;stroke-dasharray:none;stroke-opacity:1"
   d="m 18.485053,26.508215 -0.759744,11.468428 -2.14015,0.0047 -0.197184,12.229583 -2.236282,-0.0053 -0.03262,5.864595 c -2.689832,2.673772 -6.6012035,3.355617 -11.9924715,3.386862 l -0.02429,12.079834 43.5105275,0.05513 0.03333,-11.51511 c -4.242302,-0.154524 -7.65947,-1.756906 -10.819116,-3.927091 l -0.08223,-5.938362 -2.247224,-0.0019 0.0354,-12.117799 L 29.646,38.024575 28.994251,26.53446 Z"
   id="path497"
   sodipodi:nodetypes="ccccccccccccccccc" /><path
   style="fill:#ffff00;fill-opacity:1;stroke:#ffff00;stroke-width:1.64;stroke-linecap:round;stroke-linejoin:miter;stroke-dasharray:none;stroke-opacity:1"
   d="m 14.794164,55.528036 -0.01911,-3.724375 2.174234,-0.03059 0.182409,-12.221943 2.092849,-0.02466 0.744093,-11.395216 7.538175,0.02302 0.623381,11.42081 1.802733,0.02263 -8.67e-4,12.068831 2.202144,0.02602 0.0021,3.848173 z"
   id="path4369"
   sodipodi:nodetypes="ccccccccccccc" /></svg>
