<?xml version="1.0" encoding="UTF-8" standalone="no"?>
<!-- Generator: Adobe Illustrator 23.0.1, SVG Export Plug-In . SVG Version: 6.00 Build 0)  -->

<svg
   version="1.1"
   x="0px"
   y="0px"
   width="45.7px"
   height="72px"
   viewBox="0 0 45.7 72"
   enable-background="new 0 0 45.7 72"
   xml:space="preserve"
   id="svg16"
   sodipodi:docname="virtuall-west.svg"
   inkscape:version="1.2.2 (b0a8486541, 2022-12-01)"
   xmlns:inkscape="http://www.inkscape.org/namespaces/inkscape"
   xmlns:sodipodi="http://sodipodi.sourceforge.net/DTD/sodipodi-0.dtd"
   xmlns="http://www.w3.org/2000/svg"
   xmlns:svg="http://www.w3.org/2000/svg"><defs
   id="defs20" /><sodipodi:namedview
   id="namedview18"
   pagecolor="#ffffff"
   bordercolor="#000000"
   borderopacity="0.25"
   inkscape:showpageshadow="2"
   inkscape:pageopacity="0.0"
   inkscape:pagecheckerboard="0"
   inkscape:deskcolor="#d1d1d1"
   showgrid="false"
   inkscape:zoom="5.8194446"
   inkscape:cx="23.885441"
   inkscape:cy="12.372315"
   inkscape:window-width="960"
   inkscape:window-height="1012"
   inkscape:window-x="960"
   inkscape:window-y="0"
   inkscape:window-maximized="0"
   inkscape:current-layer="svg16" />


<path
   style="fill:#ffff00;stroke:#212025;stroke-width:1.5;stroke-linejoin:bevel;stroke-dasharray:3,1.5;stroke-opacity:1;stroke-dashoffset:0"
   d="m 18.426696,23.299689 c 0.189664,-0.313976 5.549845,-7.281154 5.599775,-7.278603 0.0325,0.0017 0.977122,1.209895 2.099155,2.684964 1.122034,1.47507 2.388539,3.136241 2.814456,3.691491 l 0.774394,1.009547 h -5.676328 c -4.518384,0 -5.663093,-0.02191 -5.611452,-0.107399 z"
   id="path3337" /><path
   style="fill:#ffff00;stroke:#212025;stroke-width:1.5;stroke-linejoin:bevel;stroke-dasharray:3,1.5;stroke-opacity:1;stroke-dashoffset:0"
   d="m 21.413194,10.160549 -2.76009,-3.6300716 5.597722,-0.022106 c 3.078747,-0.012159 5.614117,-0.00571 5.634155,0.014327 0.03261,0.032609 -5.629626,7.2679226 -5.687754,7.2679226 -0.01317,0 -1.265983,-1.633532 -2.784033,-3.630072 z"
   id="path3702" /><path
   style="fill:#000000;fill-opacity:1;stroke:#212025;stroke-width:1.5;stroke-linejoin:round;stroke-dasharray:3,1.5;stroke-opacity:1;stroke-dashoffset:0"
   d="m 18.550541,26.03885 -0.759744,11.468428 -2.14015,0.0047 -0.197184,12.229583 -2.236282,-0.0053 -0.03262,5.864595 c -2.689832,2.673772 -6.6012044,3.355617 -11.9924724,3.386862 l -0.02429,12.079834 43.5105254,0.05513 0.0333,-11.51511 c -4.242272,-0.154524 -7.65944,-1.756906 -10.819086,-3.927091 l -0.08223,-5.938362 -2.247224,-0.0019 0.0354,-12.117799 -1.886999,-0.06721 -0.651749,-11.490115 z"
   id="path497"
   sodipodi:nodetypes="ccccccccccccccccc" /><path
   style="fill:#ffff00;fill-opacity:1;stroke:#ffff00;stroke-width:2.39684;stroke-linecap:round;stroke-linejoin:miter;stroke-dasharray:none;stroke-opacity:1"
   d="m 3.2108368,68.970873 0.030152,-8.05908 3.0607524,-0.223502 C 9.9555182,60.0361 11.858088,59.456813 14.408103,57.276906 l 18.336382,0.100348 2.639981,1.583995 c 2.533218,0.982263 5.171786,2.171826 7.25042,2.47612 l -0.004,7.734309 z"
   id="path4369"
   sodipodi:nodetypes="ccccccccc" /><path
   style="fill:#ffff00;fill-opacity:1;stroke:#ffff00;stroke-width:1.62707;stroke-linecap:round;stroke-opacity:1"
   d="m 20.058972,27.586226 -0.67815,9.67879 8.686882,-0.0049 -0.508264,-9.6887 z"
   id="path28703"
   sodipodi:nodetypes="ccccc" /></svg>
