<?xml version="1.0" encoding="UTF-8" standalone="no"?>
<!-- Generator: Adobe Illustrator 23.0.1, SVG Export Plug-In . SVG Version: 6.00 Build 0)  -->

<svg
   version="1.1"
   x="0px"
   y="0px"
   width="45.7px"
   height="72px"
   viewBox="0 0 45.7 72"
   enable-background="new 0 0 45.7 72"
   xml:space="preserve"
   id="svg16"
   sodipodi:docname="virtual-starboard.svg"
   inkscape:version="1.2.2 (b0a8486541, 2022-12-01)"
   xmlns:inkscape="http://www.inkscape.org/namespaces/inkscape"
   xmlns:sodipodi="http://sodipodi.sourceforge.net/DTD/sodipodi-0.dtd"
   xmlns="http://www.w3.org/2000/svg"
   xmlns:svg="http://www.w3.org/2000/svg"><defs
   id="defs20">
	
	
</defs><sodipodi:namedview
   id="namedview18"
   pagecolor="#ffffff"
   bordercolor="#000000"
   borderopacity="0.25"
   inkscape:showpageshadow="2"
   inkscape:pageopacity="0.0"
   inkscape:pagecheckerboard="0"
   inkscape:deskcolor="#d1d1d1"
   showgrid="false"
   inkscape:zoom="8.2299373"
   inkscape:cx="20.656293"
   inkscape:cy="48.846059"
   inkscape:window-width="1920"
   inkscape:window-height="1012"
   inkscape:window-x="0"
   inkscape:window-y="0"
   inkscape:window-maximized="1"
   inkscape:current-layer="svg16" />


<path
   style="fill:#008000;stroke:#212025;stroke-width:1.5;stroke-linejoin:bevel;stroke-dasharray:3,1.5;stroke-opacity:1;fill-opacity:1;stroke-dashoffset:0"
   d="m 19.575746,19.231719 c 0.679051,-0.885486 1.924782,-2.522986 2.768292,-3.638887 0.843509,-1.115901 1.568781,-2.031765 1.611714,-2.035252 0.06763,-0.0055 5.252438,6.722894 5.496008,7.132231 0.07177,0.120618 -1.06253,0.151884 -5.510137,0.151884 h -5.600514 z"
   id="path5684" /><path
   style="fill:#008000;fill-opacity:1;stroke:#212025;stroke-width:1.5;stroke-linejoin:round;stroke-dasharray:3,1.5;stroke-opacity:1;stroke-dashoffset:0"
   d="m 18.562486,25.992312 -0.759744,11.468428 -2.14015,0.0047 -0.197184,12.229583 -2.236282,-0.0053 -0.03262,5.864595 C 10.506674,58.22809 6.5953023,58.909935 1.2040345,58.94118 l -0.024293,12.079834 43.5105275,0.05513 0.03333,-11.51511 C 40.481297,59.40651 37.064129,57.804128 33.904483,55.633943 l -0.08223,-5.938362 -2.247224,-0.0019 0.0354,-12.117799 -1.886999,-0.06721 -0.651749,-11.490115 z"
   id="path497"
   sodipodi:nodetypes="ccccccccccccccccc" /></svg>
