<?xml version="1.0" encoding="UTF-8" standalone="no"?>
<!-- Generator: Adobe Illustrator 23.0.1, SVG Export Plug-In . SVG Version: 6.00 Build 0)  -->

<svg
   version="1.1"
   x="0px"
   y="0px"
   width="45.7px"
   height="72px"
   viewBox="0 0 45.7 72"
   enable-background="new 0 0 45.7 72"
   xml:space="preserve"
   id="svg431"
   sodipodi:docname="virtual-east.svg"
   inkscape:version="1.2.2 (b0a8486541, 2022-12-01)"
   xmlns:inkscape="http://www.inkscape.org/namespaces/inkscape"
   xmlns:sodipodi="http://sodipodi.sourceforge.net/DTD/sodipodi-0.dtd"
   xmlns="http://www.w3.org/2000/svg"
   xmlns:svg="http://www.w3.org/2000/svg"><defs
   id="defs435" /><sodipodi:namedview
   id="namedview433"
   pagecolor="#ffffff"
   bordercolor="#000000"
   borderopacity="0.25"
   inkscape:showpageshadow="2"
   inkscape:pageopacity="0.0"
   inkscape:pagecheckerboard="0"
   inkscape:deskcolor="#d1d1d1"
   showgrid="false"
   inkscape:zoom="8.2299373"
   inkscape:cx="-18.712172"
   inkscape:cy="28.189765"
   inkscape:window-width="1920"
   inkscape:window-height="1012"
   inkscape:window-x="0"
   inkscape:window-y="0"
   inkscape:window-maximized="1"
   inkscape:current-layer="svg431" />


<path
   style="fill:#ffff00;stroke:#212025;stroke-width:1.5;stroke-linejoin:bevel;stroke-dasharray:3,1.5;stroke-opacity:1;stroke-dashoffset:0"
   d="m 20.789178,20.064585 -2.769053,-3.692259 h 5.638097 5.638097 l -0.244375,0.322196 c -0.367054,0.483942 -5.373093,6.928366 -5.437717,7.000135 -0.0308,0.0342 -1.30207,-1.599329 -2.825049,-3.630072 z"
   id="path18889" /><path
   style="fill:#ffff00;stroke:#212025;stroke-width:1.5;stroke-linejoin:bevel;stroke-dasharray:3,1.5;stroke-opacity:1;fill-opacity:1;stroke-dashoffset:0"
   d="m 18.055639,14.075895 c 0.04721,-0.05907 1.294799,-1.673269 2.772412,-3.587112 1.477612,-1.913842 2.714034,-3.5108658 2.747603,-3.5489412 0.04747,-0.053846 5.346495,6.6779702 5.617221,7.1360532 0.05051,0.08547 -1.088611,0.107399 -5.579804,0.107399 -4.503125,0 -5.625933,-0.0217 -5.557432,-0.107399 z"
   id="path18891" /><path
   style="fill:#000000;fill-opacity:1;stroke:#212025;stroke-width:1.5;stroke-linejoin:round;stroke-dasharray:3,1.5;stroke-opacity:1;stroke-dashoffset:0"
   d="m 18.48843,26.116042 -0.759744,11.468428 -2.14015,0.0047 -0.197184,12.229583 -2.236282,-0.0053 -0.03262,5.864595 C 10.432618,58.35182 6.521246,59.033665 1.1299782,59.06491 l -0.024293,12.079834 43.5105278,0.05513 0.03333,-11.51511 C 40.407241,59.53024 36.990073,57.927858 33.830427,55.757673 l -0.08223,-5.938362 -2.247224,-0.0019 0.0354,-12.117799 -1.886999,-0.06721 -0.651749,-11.490115 z"
   id="path497"
   sodipodi:nodetypes="ccccccccccccccccc" /><path
   style="fill:#ffff00;fill-opacity:1;stroke:#ffff00;stroke-width:1.64;stroke-linecap:round;stroke-linejoin:miter;stroke-dasharray:none;stroke-opacity:1"
   d="m 14.797541,55.135863 -0.01911,-3.724375 2.174234,-0.03059 0.182409,-12.221943 12.767204,0.01977 0.03316,12.095695 2.202144,0.02602 0.0021,3.848173 z"
   id="path4369"
   sodipodi:nodetypes="ccccccccc" /></svg>
