<?xml version="1.0" encoding="UTF-8" standalone="no"?>
<svg
   width="24"
   height="24"
   viewBox="0 0 32 32"
   version="1.1"
   id="svg1"
   sodipodi:docname="carbon--string-integer.svg"
   inkscape:version="1.3.2 (091e20e, 2023-11-25)"
   xmlns:inkscape="http://www.inkscape.org/namespaces/inkscape"
   xmlns:sodipodi="http://sodipodi.sourceforge.net/DTD/sodipodi-0.dtd"
   xmlns="http://www.w3.org/2000/svg"
   xmlns:svg="http://www.w3.org/2000/svg">
  <defs
     id="defs1" />
  <sodipodi:namedview
     id="namedview1"
     pagecolor="#ffffff"
     bordercolor="#000000"
     borderopacity="0.25"
     inkscape:showpageshadow="2"
     inkscape:pageopacity="0.0"
     inkscape:pagecheckerboard="0"
     inkscape:deskcolor="#d1d1d1"
     inkscape:zoom="24.083333"
     inkscape:cx="12"
     inkscape:cy="11.979239"
     inkscape:window-width="1440"
     inkscape:window-height="900"
     inkscape:window-x="0"
     inkscape:window-y="0"
     inkscape:window-maximized="0"
     inkscape:current-layer="svg1" />
  <path
     fill="currentColor"
     d="M 26.325717,11.295751 H 22.19543 v 2.065144 h 4.130287 v 2.065144 h -3.097715 v 2.065143 h 3.097715 v 2.065143 H 22.19543 v 2.065144 h 4.130287 a 2.0682413,2.0682413 0 0 0 2.065144,-2.065144 v -6.19543 a 2.0651436,2.0651436 0 0 0 -2.065144,-2.065144 m -7.228002,10.325718 h -6.195431 v -4.130287 a 2.0651436,2.0651436 0 0 1 2.065144,-2.065143 h 2.065143 v -2.065144 h -4.130287 v -2.065144 h 4.130287 a 2.0651436,2.0651436 0 0 1 2.065144,2.065144 v 2.065144 a 2.0651436,2.0651436 0 0 1 -2.065144,2.065143 h -2.065143 v 2.065143 h 4.130287 z M 7.7394259,19.556325 V 11.295751 H 5.6742822 v 1.032572 H 3.6091387 v 2.065144 h 2.0651435 v 5.162858 H 3.6091387 v 2.065144 h 6.1954305 v -2.065144 z"
     id="path1"
     style="stroke-width:1.12429" />
  <rect
     style="mix-blend-mode:normal;fill:none;fill-opacity:1;fill-rule:nonzero;stroke:#000000;stroke-width:1.49418;stroke-linecap:square;stroke-linejoin:round;stroke-miterlimit:0;stroke-dasharray:none;stroke-opacity:1"
     id="rect1"
     width="29.839151"
     height="24.505823"
     x="1.0804241"
     y="4.0804214"
     inkscape:highlight-color="#000000"
     ry="2.2514625" />
</svg>
