<svg xmlns="http://www.w3.org/2000/svg" width="24" height="24" viewBox="0 0 24 24">
	<g fill="none" stroke="currentColor" stroke-linecap="round" stroke-linejoin="round" stroke-width="1.5">
		<path fill="currentColor" fill-opacity="0.3" d="M12 3c4.97 0 9 4.03 9 9c0 4.97 -4.03 9 -9 9c-4.97 0 -9 -4.03 -9 -9c0 -4.97 4.03 -9 9 -9Z" />
		<path d="M12 12h-5.5" transform="rotate(65 12 12)" />
	</g>
	<g fill="currentColor">
		<path d="M12 16C9.41 16 7.15 17.21 5.94 19L12 21L18.06 19C16.85 17.21 14.59 16 12 16Z" />
		<circle cx="7" cy="12" r="1" transform="rotate(15 12 12)" />
		<circle cx="7" cy="12" r="1" transform="rotate(65 12 12)" />
		<circle cx="7" cy="12" r="1" transform="rotate(115 12 12)" />
		<circle cx="7" cy="12" r="1" transform="rotate(165 12 12)" />
		<circle cx="12" cy="12" r="2" />
	</g>
</svg>