<!DOCTYPE svg PUBLIC "-//W3C//DTD SVG 1.1//EN" "http://www.w3.org/Graphics/SVG/1.1/DTD/svg11.dtd">
<!-- Uploaded to: SVG Repo, www.svgrepo.com, Transformed by: SVG Repo Mixer Tools -->
<svg width="256px" height="256px" viewBox="-0.75 -0.75 16.50 16.50" fill="none" xmlns="http://www.w3.org/2000/svg" transform="rotate(-45)" stroke="#000000" stroke-width="0.00015000000000000001">
<g id="SVGRepo_bgCarrier" stroke-width="0"/>
<g id="SVGRepo_tracerCarrier" stroke-linecap="round" stroke-linejoin="round" stroke="#CCCCCC" stroke-width="0.06"/>
<g id="SVGRepo_iconCarrier"> <path fill-rule="evenodd" clip-rule="evenodd" d="M10.3004 7.49991C10.3004 8.4943 9.49426 9.30041 8.49988 9.30041C7.50549 9.30041 6.69938 8.4943 6.69938 7.49991C6.69938 6.50553 7.50549 5.69942 8.49988 5.69942C9.49426 5.69942 10.3004 6.50553 10.3004 7.49991ZM11.205 8C10.9699 9.28029 9.84816 10.2504 8.49988 10.2504C7.1516 10.2504 6.0299 9.28029 5.79473 8H0.5C0.223858 8 0 7.77614 0 7.5C0 7.22386 0.223858 7 0.5 7H5.7947C6.0298 5.71962 7.15154 4.74942 8.49988 4.74942C9.84822 4.74942 10.9699 5.71962 11.2051 7H14.5C14.7761 7 15 7.22386 15 7.5C15 7.77614 14.7761 8 14.5 8H11.205Z" fill="#000000"/> </g>
</svg>