<?xml version="1.0" encoding="UTF-8" standalone="no"?>
<svg
   width="24"
   height="24"
   viewBox="0 0 30 30"
   version="1.1"
   id="svg1"
   sodipodi:docname="wi--wind-deg.svg"
   inkscape:version="1.3.2 (091e20e, 2023-11-25)"
   xmlns:inkscape="http://www.inkscape.org/namespaces/inkscape"
   xmlns:sodipodi="http://sodipodi.sourceforge.net/DTD/sodipodi-0.dtd"
   xmlns="http://www.w3.org/2000/svg"
   xmlns:svg="http://www.w3.org/2000/svg">
  <defs
     id="defs1" />
  <sodipodi:namedview
     id="namedview1"
     pagecolor="#ffffff"
     bordercolor="#000000"
     borderopacity="0.25"
     inkscape:showpageshadow="2"
     inkscape:pageopacity="0.0"
     inkscape:pagecheckerboard="0"
     inkscape:deskcolor="#d1d1d1"
     inkscape:zoom="9.8333333"
     inkscape:cx="11.949153"
     inkscape:cy="11.949153"
     inkscape:window-width="1440"
     inkscape:window-height="900"
     inkscape:window-x="0"
     inkscape:window-y="0"
     inkscape:window-maximized="0"
     inkscape:current-layer="svg1" />
  <path
     fill="currentColor"
     d="m 0.68588127,15.026096 c 0,-2.66182 0.64833033,-5.1279185 1.93227893,-7.3852457 1.2839483,-2.2573281 3.0255419,-4.044923 5.2247808,-5.3627848 2.199238,-1.317862 4.589163,-1.970269 7.169773,-1.970269 1.932278,0 3.788282,0.3914441 5.5553,1.1612843 1.767019,0.7698402 3.27979,1.8267393 4.563738,3.1315531 1.283949,1.3048138 2.300939,2.8705901 3.050967,4.6973299 0.75003,1.8267392 1.1314,3.7187192 1.1314,5.7281322 0,1.983317 -0.38137,3.888345 -1.1314,5.702036 -0.750028,1.813692 -1.77973,3.379468 -3.050967,4.684282 -1.271236,1.304816 -2.796719,2.348664 -4.563738,3.118506 -1.767018,0.76984 -3.610309,1.161284 -5.5553,1.161284 -1.944992,0 -3.81371,-0.391443 -5.5807281,-1.161284 C 7.6649675,27.761078 6.1394841,26.704179 4.8555357,25.399366 3.5715871,24.094552 2.5673107,22.528776 1.804569,20.728132 1.0418273,18.92749 0.68588127,17.022461 0.68588127,15.026096 m 3.15266543,0 c 0,3.092409 1.0932631,5.780326 3.2925016,8.063749 2.1992383,2.257329 4.8179857,3.379469 7.8816657,3.379469 2.008552,0 3.877269,-0.508878 5.580726,-1.539682 1.703456,-1.030801 3.076391,-2.413903 4.080668,-4.175404 1.004277,-1.761498 1.51277,-3.666525 1.51277,-5.728131 0,-2.061606 -0.508493,-3.979683 -1.51277,-5.7411813 C 23.669831,7.5234163 22.309609,6.1272661 20.59344,5.0964632 18.87727,4.0656603 17.021266,3.556783 15.012714,3.556783 c -2.008554,0 -3.877271,0.5088773 -5.5807281,1.5396802 C 7.7285292,6.1272661 6.3555943,7.5234163 5.3386053,9.2849157 4.3216165,11.046414 3.8385467,12.96449 3.8385467,15.026096 m 6.2163453,7.633161 4.767135,-17.106109 q 0.01906,-0.1957221 0.190687,-0.1957221 c 0.171617,0 0.177973,0.06524 0.190684,0.1957221 l 4.754423,17.106109 c 0.05085,0.14353 0.03814,0.247915 -0.02542,0.326203 -0.06356,0.07829 -0.165261,0.07829 -0.305097,0 l -4.41119,-1.696258 c -0.127123,-0.05219 -0.254246,-0.05219 -0.368659,0 l -4.449326,1.696258 q -0.190686,0.117439 -0.26696,0 c -0.07627,-0.117428 -0.101693,-0.195721 -0.07627,-0.326203"
     id="path1"
     style="stroke-width:1.28792" />
</svg>
