<svg>
  <defs id="defs1">
    <svg id="dashboard" xmlns="http://www.w3.org/2000/svg" width="24" height="24" viewBox="0 0 24 24">
      <path fill="currentColor" d="M5 5h4v6H5zm10 8h4v6h-4zM5 17h4v2H5zM15 5h4v2h-4z" opacity="0.3" />
      <path fill="currentColor" d="M3 13h8V3H3zm2-8h4v6H5zm8 16h8V11h-8zm2-8h4v6h-4zM13 3v6h8V3zm6 4h-4V5h4zM3 21h8v-6H3zm2-4h4v2H5z" />
    </svg>
    <svg id="data" xmlns="http://www.w3.org/2000/svg" width="24" height="24" viewBox="0 0 24 24">
      <path fill="currentColor" d="M5 19h14V5H5zm8-12h4v4h-4zm0 6h4v4h-4zM7 7h4v4H7zm0 6h4v4H7z" opacity="0.3" />
      <path fill="currentColor" d="M7 13h4v4H7zm6 0h4v4h-4z" />
      <path fill="currentColor" d="M19 3H5c-1.1 0-2 .9-2 2v14c0 1.1.9 2 2 2h14c1.1 0 2-.9 2-2V5c0-1.1-.9-2-2-2m0 16H5V5h14z" />
      <path fill="currentColor" d="M7 7h4v4H7zm6 0h4v4h-4z" />
    </svg>
    <svg id="help-center" xmlns="http://www.w3.org/2000/svg" width="24" height="24" viewBox="0 0 24 24">
      <path fill="currentColor" d="M5 5v14h14V5zm7.01 13c-.7 0-1.26-.56-1.26-1.26c0-.71.56-1.25 1.26-1.25c.71 0 1.25.54 1.25 1.25c-.01.69-.54 1.26-1.25 1.26m3.01-7.4c-.76 1.11-1.48 1.46-1.87 2.17c-.16.29-.22.48-.22 1.41h-1.82c0-.49-.08-1.29.31-1.98c.49-.87 1.42-1.39 1.96-2.16c.57-.81.25-2.33-1.37-2.33c-1.06 0-1.58.8-1.8 1.48l-1.65-.7C9.01 7.15 10.22 6 11.99 6c1.48 0 2.49.67 3.01 1.52c.44.72.7 2.07.02 3.08" opacity="0.3" />
      <path fill="currentColor" d="M13.25 16.74c0 .69-.53 1.26-1.25 1.26c-.7 0-1.26-.56-1.26-1.26c0-.71.56-1.25 1.26-1.25c.71 0 1.25.55 1.25 1.25M11.99 6c-1.77 0-2.98 1.15-3.43 2.49l1.64.69c.22-.67.74-1.48 1.8-1.48c1.62 0 1.94 1.52 1.37 2.33c-.54.77-1.47 1.29-1.96 2.16c-.39.69-.31 1.49-.31 1.98h1.82c0-.93.07-1.12.22-1.41c.39-.72 1.11-1.06 1.87-2.17c.68-1 .42-2.36-.02-3.08c-.51-.84-1.52-1.51-3-1.51M19 5H5v14h14zm0-2c1.1 0 2 .9 2 2v14c0 1.1-.9 2-2 2H5c-1.1 0-2-.9-2-2V5c0-1.1.9-2 2-2z" />
    </svg>
    <svg id="settings" xmlns="http://www.w3.org/2000/svg" width="24" height="24" viewBox="0 0 24 24">
      <path fill="currentColor" d="m19.28 8.6l-.7-1.21l-1.27.51l-1.06.43l-.91-.7c-.39-.3-.8-.54-1.23-.71l-1.06-.43l-.16-1.13L12.7 4h-1.4l-.19 1.35l-.16 1.13l-1.06.44c-.41.17-.82.41-1.25.73l-.9.68l-1.05-.42l-1.27-.52l-.7 1.21l1.08.84l.89.7l-.14 1.13c-.03.3-.05.53-.05.73s.02.43.05.73l.14 1.13l-.89.7l-1.08.84l.7 1.21l1.27-.51l1.06-.43l.91.7c.39.3.8.54 1.23.71l1.06.43l.16 1.13l.19 1.36h1.39l.19-1.35l.16-1.13l1.06-.43c.41-.17.82-.41 1.25-.73l.9-.68l1.04.42l1.27.51l.7-1.21l-1.08-.84l-.89-.7l.14-1.13c.04-.31.05-.52.05-.73s-.02-.43-.05-.73l-.14-1.13l.89-.7zM12 16c-2.21 0-4-1.79-4-4s1.79-4 4-4s4 1.79 4 4s-1.79 4-4 4" opacity="0.3" />
      <path fill="currentColor" d="M19.43 12.98c.04-.32.07-.64.07-.98s-.03-.66-.07-.98l2.11-1.65c.19-.15.24-.42.12-.64l-2-3.46a.5.5 0 0 0-.61-.22l-2.49 1c-.52-.4-1.08-.73-1.69-.98l-.38-2.65A.49.49 0 0 0 14 2h-4c-.25 0-.46.18-.49.42l-.38 2.65c-.61.25-1.17.59-1.69.98l-2.49-1a.6.6 0 0 0-.18-.03c-.17 0-.34.09-.43.25l-2 3.46c-.13.22-.07.49.12.64l2.11 1.65c-.04.32-.07.65-.07.98s.03.66.07.98l-2.11 1.65c-.19.15-.24.42-.12.64l2 3.46a.5.5 0 0 0 .61.22l2.49-1c.52.4 1.08.73 1.69.98l.38 2.65c.03.24.24.42.49.42h4c.25 0 .46-.18.49-.42l.38-2.65c.61-.25 1.17-.59 1.69-.98l2.49 1q.09.03.18.03c.17 0 .34-.09.43-.25l2-3.46c.12-.22.07-.49-.12-.64zm-1.98-1.71c.04.31.05.52.05.73s-.02.43-.05.73l-.14 1.13l.89.7l1.08.84l-.7 1.21l-1.27-.51l-1.04-.42l-.9.68c-.43.32-.84.56-1.25.73l-1.06.43l-.16 1.13l-.2 1.35h-1.4l-.19-1.35l-.16-1.13l-1.06-.43c-.43-.18-.83-.41-1.23-.71l-.91-.7l-1.06.43l-1.27.51l-.7-1.21l1.08-.84l.89-.7l-.14-1.13c-.03-.31-.05-.54-.05-.74s.02-.43.05-.73l.14-1.13l-.89-.7l-1.08-.84l.7-1.21l1.27.51l1.04.42l.9-.68c.43-.32.84-.56 1.25-.73l1.06-.43l.16-1.13l.2-1.35h1.39l.19 1.35l.16 1.13l1.06.43c.43.18.83.41 1.23.71l.91.7l1.06-.43l1.27-.51l.7 1.21l-1.07.85l-.89.7zM12 8c-2.21 0-4 1.79-4 4s1.79 4 4 4s4-1.79 4-4s-1.79-4-4-4m0 6c-1.1 0-2-.9-2-2s.9-2 2-2s2 .9 2 2s-.9 2-2 2" />
    </svg>
    <svg id="troubleshoot" xmlns="http://www.w3.org/2000/svg" width="24" height="24" viewBox="0 0 24 24">
      <path fill="currentColor" d="m22 20.59l-4.69-4.69A7.9 7.9 0 0 0 19 11c0-4.42-3.58-8-8-8c-4.08 0-7.44 3.05-7.93 7h2.02C5.57 7.17 8.03 5 11 5c3.31 0 6 2.69 6 6s-2.69 6-6 6c-2.42 0-4.5-1.44-5.45-3.5H3.4C4.45 16.69 7.46 19 11 19c1.85 0 3.55-.63 4.9-1.69L20.59 22z" />
      <path fill="currentColor" fill-opacity="0.5" d="M8.43 9.69L9.65 15h1.64l1.26-3.78l.95 2.28h2V12h-1l-1.25-3h-1.54l-1.12 3.37L9.35 7H7.7l-1.25 4H1v1.5h6.55z" />
    </svg>
    <svg id="tune" xmlns="http://www.w3.org/2000/svg" width="24" height="24" viewBox="0 0 24 24">
      <path fill="currentColor" d="M3 5h10v2H3zm4 6H3v2h4v2h2V9H7zm6 4h-2v6h2v-2h8v-2h-8zM3 17h6v2H3zm8-6h10v2H11zm6-8h-2v6h2V7h4V5h-4z" />
    </svg>
    <svg id="configuration" xmlns="http://www.w3.org/2000/svg" width="24" height="24" viewBox="0 0 24 24">
      <path fill="currentColor" fill-opacity="0.25" fill-rule="evenodd" d="M14 4.92V3H8.4c-.84 0-1.26 0-1.581.163a1.5 1.5 0 0 0-.656.656C6 4.139 6 4.559 6 5.4V8h2.264c.232 0 .495-.001.753.06a2.2 2.2 0 0 1 .635.264c.226.139.412.325.576.49l.042.041l1.875 1.875a8 8 0 0 0 .25.243q.025.014.052.02q.007.002.046.004c.063.003.147.003.302.003H18l.001-.4V7h-1.92c-.263 0-.49 0-.677-.015a1.5 1.5 0 0 1-.584-.148a1.5 1.5 0 0 1-.655-.656a1.5 1.5 0 0 1-.149-.583C14 5.41 14 5.183 14 4.919M12.611 13a2.8 2.8 0 0 1-.628-.06a2.2 2.2 0 0 1-.635-.264c-.227-.139-.412-.325-.576-.49l-.042-.041l-1.875-1.875a7 7 0 0 0-.25-.243a.2.2 0 0 0-.052-.02l-.047-.004A8 8 0 0 0 8.205 10H6v.6c0 .84 0 1.26.163 1.581a1.5 1.5 0 0 0 .656.656c.32.163.74.163 1.581.163zM15 4.9V3.09q.056.026.108.057c.101.062.188.149.36.322l2.063 2.062c.173.173.26.26.322.36q.032.054.057.109H16.1c-.288 0-.474 0-.616-.012a.6.6 0 0 1-.211-.043a.5.5 0 0 1-.218-.218a.6.6 0 0 1-.043-.21A9 9 0 0 1 15 4.9" clip-rule="evenodd" />
      <path fill="currentColor" d="M3 11.4c0-.84 0-1.26.163-1.581a1.5 1.5 0 0 1 .656-.656C4.139 9 4.559 9 5.4 9h2.805c.293 0 .44 0 .578.033q.185.045.347.144c.121.074.225.178.432.385l1.876 1.876c.207.207.311.311.432.385a1.2 1.2 0 0 0 .347.144c.138.033.285.033.578.033H18.6c.84 0 1.26 0 1.581.164a1.5 1.5 0 0 1 .656.655c.163.32.163.74.163 1.581v5.2c0 .84 0 1.26-.163 1.581a1.5 1.5 0 0 1-.656.656c-.32.163-.74.163-1.581.163H5.4c-.84 0-1.26 0-1.581-.163a1.5 1.5 0 0 1-.656-.656C3 20.861 3 20.441 3 19.6z" />
    </svg>
    <svg id="dataset" xmlns="http://www.w3.org/2000/svg" width="24" height="24" viewBox="0 0 48 48">
      <defs>
        <mask id="ipTDataSheet0">
          <g fill="none" stroke="#fff" stroke-linecap="round" stroke-linejoin="round" stroke-width="4">
            <rect width="40" height="32" x="4" y="8" fill="#555555" rx="2" />
            <path d="M32 25v7m-8-16v16m-8-12v12" />
          </g>
        </mask>
      </defs>
      <path fill="currentColor" d="M0 0h48v48H0z" mask="url(#ipTDataSheet0)" />
    </svg>
    <svg id="numericWidget" xmlns="http://www.w3.org/2000/svg" width="24" height="24" viewBox="0 0 32 32">
      <path
        fill="currentColor"
        d="M 26.325717,11.295751 H 22.19543 v 2.065144 h 4.130287 v 2.065144 h -3.097715 v 2.065143 h 3.097715 v 2.065143 H 22.19543 v 2.065144 h 4.130287 a 2.0682413,2.0682413 0 0 0 2.065144,-2.065144 v -6.19543 a 2.0651436,2.0651436 0 0 0 -2.065144,-2.065144 m -7.228002,10.325718 h -6.195431 v -4.130287 a 2.0651436,2.0651436 0 0 1 2.065144,-2.065143 h 2.065143 v -2.065144 h -4.130287 v -2.065144 h 4.130287 a 2.0651436,2.0651436 0 0 1 2.065144,2.065144 v 2.065144 a 2.0651436,2.0651436 0 0 1 -2.065144,2.065143 h -2.065143 v 2.065143 h 4.130287 z M 7.7394259,19.556325 V 11.295751 H 5.6742822 v 1.032572 H 3.6091387 v 2.065144 h 2.0651435 v 5.162858 H 3.6091387 v 2.065144 h 6.1954305 v -2.065144 z"
        style="stroke-width:1.12429" />
      <rect
        stroke="currentColor"
        stroke-opacity="1"
        style="mix-blend-mode:normal;fill-rule:nonzero;stroke-width:1.49418;stroke-linecap:square;stroke-linejoin:round;stroke-miterlimit:0;stroke-dasharray:none"
        fill="currentColor"
        fill-opacity="0.3"
        width="29.839151"
        height="24.505823"
        x="1.0804241"
        y="4.0804214"
        ry="2.2514625" />
    </svg>
    <svg id="textWidget" xmlns="http://www.w3.org/2000/svg" width="24" height="24" viewBox="0 0 32 32">
      <path
        fill="currentColor"
        d="m 28.976998,22.466668 h -4.806295 a 1.9254019,1.9254021 0 0 1 -1.922518,-1.922517 v -5.767556 a 1.9225182,1.9225182 0 0 1 1.922518,-1.922517 h 4.806295 v 1.922517 h -4.806295 v 5.767556 h 4.806295 z m -10.57385,-9.61259 H 14.558112 V 9.0090396 H 12.635594 V 22.466668 h 5.767554 a 1.9254019,1.9254021 0 0 0 1.922518,-1.922517 v -5.767556 a 1.9225182,1.9225182 0 0 0 -1.922518,-1.922517 m -3.845036,7.690073 v -5.767556 h 3.845036 v 5.767556 z M 8.790557,12.854078 H 3.9842616 v 1.922517 H 8.790557 v 1.922518 H 4.9455206 a 1.9225182,1.9225182 0 0 0 -1.9225181,1.922519 v 1.922519 a 1.9225182,1.9225182 0 0 0 1.9225181,1.922517 H 10.713076 V 14.776595 A 1.9225182,1.9225182 0 0 0 8.790557,12.854078 m 0,7.690073 H 4.9455206 V 18.621632 H 8.790557 Z"
        style="stroke-width:0.999998" />
      <rect
        stroke="currentColor"
        stroke-opacity="1"
        fill="currentColor"
        fill-opacity="0.3"
        style="mix-blend-mode:normal;fill-rule:nonzero;stroke-width:1.49418;stroke-linecap:square;stroke-linejoin:round;stroke-miterlimit:0;stroke-dasharray:none;"
        width="29.839151"
        height="24.505823"
        x="1.0804243"
        y="3.7470884"
        ry="2.2514625" />
    </svg>
    <svg id="datetimeWidget" xmlns="http://www.w3.org/2000/svg" width="24" height="24" viewBox="0 0 16 16">
      <path fill="currentColor" d="M9.5 14h-8C.67 14 0 13.33 0 12.5V2.38C0 1.55.67.88 1.5.88h11c.83 0 1.5.67 1.5 1.5v7.25c0 .28-.22.5-.5.5s-.5-.22-.5-.5V2.38c0-.28-.22-.5-.5-.5h-11c-.28 0-.5.22-.5.5V12.5c0 .28.22.5.5.5h8c.28 0 .5.22.5.5s-.22.5-.5.5" />
      <path fill="currentColor" d="M4 3.62c-.28 0-.5-.22-.5-.5V.5c0-.28.22-.5.5-.5s.5.22.5.5v2.62c0 .28-.22.5-.5.5m6.12 0c-.28 0-.5-.22-.5-.5V.5c0-.28.22-.5.5-.5s.5.22.5.5v2.62c0 .28-.22.5-.5.5M13.5 6H.5C.22 6 0 5.78 0 5.5S.22 5 .5 5h13c.28 0 .5.22.5.5s-.22.5-.5.5m-1 10C10.57 16 9 14.43 9 12.5S10.57 9 12.5 9s3.5 1.57 3.5 3.5s-1.57 3.5-3.5 3.5m0-6a2.5 2.5 0 0 0 0 5a2.5 2.5 0 0 0 0-5" />
      <path fill="currentColor" d="M13.5 14a.47.47 0 0 1-.35-.15l-1-1a.5.5 0 0 1-.15-.35V11c0-.28.22-.5.5-.5s.5.22.5.5v1.29l.85.85c.2.2.2.51 0 .71c-.1.1-.23.15-.35.15" />
    </svg>
    <svg id="switchpanelWidget" xmlns="http://www.w3.org/2000/svg" width="24" height="24" viewBox="0 0 24 24">
      <circle cx="17" cy="12" r="3" fill="currentColor" />
      <path fill="currentColor" fill-opacity="0.3" stroke="currentColor" stroke-linecap="round" stroke-linejoin="round" stroke-width="1.5" d="M12 7h5c2.76 0 5 2.24 5 5c0 2.76 -2.24 5 -5 5h-10c-2.76 0 -5 -2.24 -5 -5c0 -2.76 2.24 -5 5 -5Z" />
    </svg>
    <svg id="labelWidget" stroke-width="2" fill="none" width="24" height="24" viewBox="0 0 24 24" xmlns="http://www.w3.org/2000/svg">
      <path d="M7 6V14.5925C7 16.3108 9.02384 17.2291 10.317 16.0976L11 15.5" stroke="currentColor" stroke-linecap="round" stroke-linejoin="round"/>
      <path d="M4 9H10" stroke="currentColor" stroke-linecap="round" stroke-linejoin="round"/>
      <path d="M14 9L19 17" stroke="currentColor" stroke-linecap="round" stroke-linejoin="round"/>
      <path d="M19 9L14 17" stroke="currentColor" stroke-linecap="round" stroke-linejoin="round"/>
    </svg>
    <svg id="simpleLinearGauge" xmlns="http://www.w3.org/2000/svg" width="24" height="24" viewBox="0 0 16 16">
      <mask id="simpleLinearGaugeTwotone">
        <g>
          <path fill="#fff" d="M0 5v6h16V5zm15 5H1V6h14z" />
          <path fill="#fff" fill-opacity="0.3" d="M2 7h7v2H2z" />
        </g>
      </mask>
      <rect width="16" height="16" fill="currentColor" mask="url(#simpleLinearGaugeTwotone)" />
    </svg>
    <svg id="linearGauge" xmlns="http://www.w3.org/2000/svg" width="24" height="24" viewBox="0 0 32 32">
      <path fill="currentColor" fill-opacity="0.3" d="M20 10h7v2h-7zm0 6h10v2H20zm0 6h7v2h-7zm-10-1.816V7H8v13.184a3 3 0 1 0 2 0" />
      <path fill="currentColor" d="M30 4H12.974A4.983 4.983 0 0 0 4 7v11.11a7 7 0 1 0 10 0V7a5 5 0 0 0-.101-1H30ZM9 28a4.993 4.993 0 0 1-3.332-8.718L6 18.983V7a3 3 0 0 1 6 0v11.983l.332.299A4.993 4.993 0 0 1 9 28" />
    </svg>
    <svg id="radialGauge" xmlns="http://www.w3.org/2000/svg" width="24" height="24" viewBox="0 0 256 256">
      <g fill="currentColor">
        <path d="M232 152v24a8 8 0 0 1-8 8H32a8 8 0 0 1-8-8v-22.87C24 95.65 70.15 48.2 127.63 48A104 104 0 0 1 232 152" opacity="0.25" />
        <path d="M207.06 72.67A111.24 111.24 0 0 0 128 40h-.4C66.07 40.21 16 91 16 153.13V176a16 16 0 0 0 16 16h192a16 16 0 0 0 16-16v-24a111.25 111.25 0 0 0-32.94-79.33M224 176H119.71l54.76-75.3a8 8 0 0 0-12.94-9.42L99.92 176H32v-22.87c0-3.08.15-6.12.43-9.13H56a8 8 0 0 0 0-16H35.27c10.32-38.86 44-68.24 84.73-71.66V80a8 8 0 0 0 16 0V56.33A96.14 96.14 0 0 1 221 128h-21a8 8 0 0 0 0 16h23.67c.21 2.65.33 5.31.33 8Z" />
      </g>
    </svg>
    <svg id="compassGauge" xmlns="http://www.w3.org/2000/svg" width="24" height="24" viewBox="0 0 24 24">
      <mask id="lineMdCompassTwotone0">
        <g fill="none" stroke="#fff" stroke-linecap="round" stroke-linejoin="round" stroke-width="1.5">
          <path fill="#fff" fill-opacity="0.3" d="M12 3c4.97 0 9 4.03 9 9c0 4.97 -4.03 9 -9 9c-4.97 0 -9 -4.03 -9 -9c0 -4.97 4.03 -9 9 -9Z" />
          <path fill="#fff" stroke="none" d="M10.2 10.2L17 7L13.8 13.8L7 17z" transform="rotate(0 12 12)" />
          <circle cx="12" cy="12" r="1" fill="#000" stroke="none" />
        </g>
      </mask>
      <rect width="24" height="24" fill="currentColor" mask="url(#lineMdCompassTwotone0)" />
    </svg>
    <svg id="steelGauge" xmlns="http://www.w3.org/2000/svg" width="24" height="24" viewBox="0 0 24 24">
      <g fill="none" stroke="currentColor" stroke-linecap="round" stroke-linejoin="round" stroke-width="1.5">
        <path fill="currentColor" fill-opacity="0.3" d="M12 3c4.97 0 9 4.03 9 9c0 4.97 -4.03 9 -9 9c-4.97 0 -9 -4.03 -9 -9c0 -4.97 4.03 -9 9 -9Z" />
        <path d="M12 12h-5.5" transform="rotate(65 12 12)" />
      </g>
      <g fill="currentColor">
        <path d="M12 16C9.41 16 7.15 17.21 5.94 19L12 21L18.06 19C16.85 17.21 14.59 16 12 16Z" />
        <circle cx="7" cy="12" r="1" transform="rotate(15 12 12)" />
        <circle cx="7" cy="12" r="1" transform="rotate(65 12 12)" />
        <circle cx="7" cy="12" r="1" transform="rotate(115 12 12)" />
        <circle cx="7" cy="12" r="1" transform="rotate(165 12 12)" />
        <circle cx="12" cy="12" r="2" />
      </g>
    </svg>
    <svg id="pitchRollGauge" xmlns="http://www.w3.org/2000/svg" width="24" height="24" viewBox="0 0 24 24">
      <defs>
        <clipPath id="pitchRollGaugeClip">
          <circle cx="12" cy="12" r="9" />
        </clipPath>
      </defs>
      <g fill="currentColor">
        <circle cx="12" cy="12" r="9" fill-opacity="0.3" />
        <rect x="3" y="12" width="18" height="9" clip-path="url(#pitchRollGaugeClip)" />
      </g>
      <!-- Horizon and roll cues -->
      <g fill="none" stroke="currentColor" stroke-linecap="round" stroke-linejoin="round" stroke-width="1.5">
        <!-- Subtle roll arc along the top -->
        <path d="M6 6a9 9 0 0 1 12 0" />
        <!-- Roll zero index at top center -->
        <path d="M12 3v2.5" />
        <!-- Horizon line -->
        <path d="M7 12h10" />
      </g>
      <circle cx="12" cy="12" r="1.5" fill="currentColor" />
    </svg>
    <svg id="embedWidget" xmlns="http://www.w3.org/2000/svg" width="24" height="24" viewBox="0 0 20 20">
      <path fill="currentColor" d="M17 4H3c-1.1 0-2 .9-2 2v8c0 1.1.9 2 2 2h14c1.1 0 2-.9 2-2V6c0-1.1-.9-2-2-2m-3 6.5L12.5 12l1.5 1.5V15l-3-3l3-3zm1 4.5v-1.5l1.5-1.5l-1.5-1.5V9l3 3z" />
    </svg>
    <svg id="freeboardWidget" xmlns="http://www.w3.org/2000/svg" width="24" height="24" viewBox="0 0 24 24">
      <path fill="none" stroke="currentColor" stroke-width="1.5" d="M17.5 6.5L23 9v13l-7-3l-8 3l-7-3V6l5 2m10 11v-7M8 22V12m4 4.273S6 11.5 6 7c0-3.75 3-6 6-6s6 2.25 6 6c0 4.5-6 9.273-6 9.273ZM13 7a1 1 0 1 0-2 0a1 1 0 0 0 2 0Z" />
    </svg>
    <svg id="autopilotWidget" xmlns="http://www.w3.org/2000/svg" width="24" height="24" viewBox="0 0 48 48">
      <defs>
        <mask id="ipTControl0">
          <g fill="none" stroke="#fff" stroke-width="2.5">
            <rect width="30" height="40" x="9" y="4" rx="2" />
            <circle cx="24" cy="31" r="6" fill="#595959" />
            <path stroke-linecap="round" stroke-linejoin="round" d="M18 12h3m-3 6h3m6 0h3" />
          </g>
        </mask>
      </defs>
      <path fill="currentColor" d="M0 0h48v48H0z" mask="url(#ipTControl0)" />
    </svg>
    <svg id="tutorialWidget" xmlns="http://www.w3.org/2000/svg" width="24" height="24" viewBox="0 0 24 24">
      <g fill="none" stroke="currentColor" stroke-linecap="round" stroke-linejoin="round" stroke-width="1.5">
        <path fill="currentColor" fill-opacity="0.3" d="M4 21.4V2.6a.6.6 0 0 1 .6-.6h11.652a.6.6 0 0 1 .424.176l3.148 3.148A.6.6 0 0 1 20 5.75V21.4a.6.6 0 0 1-.6.6H4.6a.6.6 0 0 1-.6-.6M8 10h8m-8 8h8m-8-4h4" />
        <path d="M16 2v3.4a.6.6 0 0 0 .6.6H20" />
      </g>
    </svg>
    <svg id="racetimerWidget" height="24px" viewBox="0 -960 960 960" width="24px">
      <path fill="currentColor" d="M360-840v-80h240v80H360Zm80 440h80v-240h-80v240Zm40 320q-74 0-139.5-28.5T226-186q-49-49-77.5-114.5T120-440q0-74 28.5-139.5T226-694q49-49 114.5-77.5T480-800q62 0 119 20t107 58l56-56 56 56-56 56q38 50 58 107t20 119q0 74-28.5 139.5T734-186q-49 49-114.5 77.5T480-80Zm0-80q116 0 198-82t82-198q0-116-82-198t-198-82q-116 0-198 82t-82 198q0 116 82 198t198 82Zm0-280Z"/>
    </svg>
    <svg id="racerlineWidget" xmlns="http://www.w3.org/2000/svg" width="24" height="24" viewBox="-6 0 14 12">
      <path fill="currentColor" fill-rule="evenodd" clip-rule="evenodd" d="M 3.703125,3.2070313 3.7539063,5.6503906 5.84375,4.3847656 C 5.1298104,3.9929115 4.4165894,3.5997496 3.703125,3.2070313 Z m -8.8790087,0.053748 0.050781,2.4433593 2.0898437,-1.265625 C -3.7491985,4.0466599 -4.4624194,3.6534979 -5.1758837,3.2607793 Z M 3.4627877,3.1084358 v 0.2109375 7.5859377 h 0.453125 V 3.1084358 Z m -8.8867183,0.029297 v 0.2363281 7.5605471 h 0.5117187 V 3.1377327 Z M 7.0936479,9.4131239 2.4764606,9.7604438 2.5924083,10.102694 2.8754406,10.944373 h 3.126996 z m -7.2089848,0.6484391 c 0,0.294271 0,0.588541 0,0.882812 H 1.82021 v -0.882812 z m -2.6445312,0 c 0,0.294271 0,0.588541 0,0.882812 h 1.9375 v -0.882812 z m -2.6445313,0 c 0,0.294271 0,0.588541 0,0.882812 h 1.9375 v -0.882812 z"/>
    </svg>
    <svg id="racertimerWidget" xmlns="http://www.w3.org/2000/svg" width="24" height="24" viewBox="0 0 15 15">
      <path fill="currentColor" fill-rule="evenodd" d="M5.5.5A.5.5 0 0 1 6 0h3a.5.5 0 0 1 0 1H8v1.12a6.36 6.36 0 0 1 2.992 1.016a1 1 0 0 1 .066-.078l1-1a.625.625 0 0 1 .884.884l-.975.975A6.4 6.4 0 1 1 7 2.119V1H6a.5.5 0 0 1-.5-.5m-3.4 8a5.4 5.4 0 1 1 10.8 0a5.4 5.4 0 0 1-10.8 0m5.4 0V4.1a4.4 4.4 0 1 0 3.111 7.511z" clip-rule="evenodd" />
    </svg>
    <svg id="datachartWidget" xmlns="http://www.w3.org/2000/svg" width="24" height="24" viewBox="0 0 15 15">
      <path fill="none" stroke="currentColor" d="M.5 0v14.5h14V0M.5 4.5h2v1h2v3h2v3h1v3v-2h2v-2h2v-3h1v-2h2" />
    </svg>
    <svg id="windtrendsWidget" xmlns="http://www.w3.org/2000/svg" width="24" height="24" viewBox="0 0 15 15">
      <g fill="none" stroke="currentColor" stroke-linecap="round" stroke-linejoin="round">
        <!-- Axes: left and bottom baseline -->
        <path d="M.5.5v14"/>
        <path d="M.5 14.5h14"/>
        <!-- Subtle gridlines -->
        <path d="M1.5 9.5h13" stroke-opacity=".25" stroke-width=".5"/>
        <path d="M1.5 4.5h13" stroke-opacity=".25" stroke-width=".5"/>
        <!-- Axis ticks -->
        <path d="M.5 9.5h1" stroke-width=".7"/>
        <path d="M.5 4.5h1" stroke-width=".7"/>
        <path d="M4 14.5v-.9" stroke-width=".7"/>
        <path d="M8 14.5v-.9" stroke-width=".7"/>
        <path d="M12 14.5v-.9" stroke-width=".7"/>
        <!-- Dual chart-like vertical traces: primary jagged, secondary smooth -->
        <path d="M5 13 L6.2 11 L3.8 9 L6.4 7 L3.6 5 L5 3" stroke-width="1.2"/>
        <path d="M10 13 C 7.8 11, 8.4 8.5, 10.6 6.8 S 12.8 4.2, 10 3" stroke-opacity=".5" stroke-width="1.2"/>
        <!-- Small data points to enhance chart feel -->
        <g fill="currentColor" stroke="none">
          <circle cx="5" cy="13" r=".45"/>
          <circle cx="6.2" cy="11" r=".45"/>
          <circle cx="3.8" cy="9" r=".45"/>
          <circle cx="6.4" cy="7" r=".45"/>
          <circle cx="3.6" cy="5" r=".45"/>
          <circle cx="5" cy="3" r=".45"/>
          <circle cx="10" cy="13" r=".45" fill-opacity=".5"/>
          <circle cx="10.6" cy="6.8" r=".45" fill-opacity=".5"/>
          <circle cx="10" cy="3" r=".45" fill-opacity=".5"/>
        </g>
     </g>
    </svg>
    <svg id="windsteeringWidget" xmlns="http://www.w3.org/2000/svg" width="24" height="24" viewBox="0 0 30 30">
      <path fill="currentColor" d="m 0.68588127,15.026096 c 0,-2.66182 0.64833033,-5.1279185 1.93227893,-7.3852457 1.2839483,-2.2573281 3.0255419,-4.044923 5.2247808,-5.3627848 2.199238,-1.317862 4.589163,-1.970269 7.169773,-1.970269 1.932278,0 3.788282,0.3914441 5.5553,1.1612843 1.767019,0.7698402 3.27979,1.8267393 4.563738,3.1315531 1.283949,1.3048138 2.300939,2.8705901 3.050967,4.6973299 0.75003,1.8267392 1.1314,3.7187192 1.1314,5.7281322 0,1.983317 -0.38137,3.888345 -1.1314,5.702036 -0.750028,1.813692 -1.77973,3.379468 -3.050967,4.684282 -1.271236,1.304816 -2.796719,2.348664 -4.563738,3.118506 -1.767018,0.76984 -3.610309,1.161284 -5.5553,1.161284 -1.944992,0 -3.81371,-0.391443 -5.5807281,-1.161284 C 7.6649675,27.761078 6.1394841,26.704179 4.8555357,25.399366 3.5715871,24.094552 2.5673107,22.528776 1.804569,20.728132 1.0418273,18.92749 0.68588127,17.022461 0.68588127,15.026096 m 3.15266543,0 c 0,3.092409 1.0932631,5.780326 3.2925016,8.063749 2.1992383,2.257329 4.8179857,3.379469 7.8816657,3.379469 2.008552,0 3.877269,-0.508878 5.580726,-1.539682 1.703456,-1.030801 3.076391,-2.413903 4.080668,-4.175404 1.004277,-1.761498 1.51277,-3.666525 1.51277,-5.728131 0,-2.061606 -0.508493,-3.979683 -1.51277,-5.7411813 C 23.669831,7.5234163 22.309609,6.1272661 20.59344,5.0964632 18.87727,4.0656603 17.021266,3.556783 15.012714,3.556783 c -2.008554,0 -3.877271,0.5088773 -5.5807281,1.5396802 C 7.7285292,6.1272661 6.3555943,7.5234163 5.3386053,9.2849157 4.3216165,11.046414 3.8385467,12.96449 3.8385467,15.026096 m 6.2163453,7.633161 4.767135,-17.106109 q 0.01906,-0.1957221 0.190687,-0.1957221 c 0.171617,0 0.177973,0.06524 0.190684,0.1957221 l 4.754423,17.106109 c 0.05085,0.14353 0.03814,0.247915 -0.02542,0.326203 -0.06356,0.07829 -0.165261,0.07829 -0.305097,0 l -4.41119,-1.696258 c -0.127123,-0.05219 -0.254246,-0.05219 -0.368659,0 l -4.449326,1.696258 q -0.190686,0.117439 -0.26696,0 c -0.07627,-0.117428 -0.101693,-0.195721 -0.07627,-0.326203"/>
    </svg>
    <svg id="racesteeringWidget"  height="200px" width="200px" viewBox="0 0 320 320">
      <g id="XMLID_494_">
        <path fill="currentColor" fill-opacity="0.5" d="M290,160c0-10.177-1.172-20.079-3.383-29.583l27.947-22.704l-32-55.426 l-33.673,12.864c-14.386-13.487-31.839-23.738-51.202-29.596L192,0h-64l-5.689,35.556c-19.363,5.857-36.816,16.108-51.202,29.596 L37.436,52.287l-32,55.426l27.947,22.704C31.172,139.921,30,149.823,30,160s1.172,20.079,3.383,29.582L5.436,212.287l32,55.426 l33.672-12.865c14.387,13.488,31.84,23.739,51.203,29.596L128,320h64l5.689-35.557c19.363-5.856,36.816-16.107,51.203-29.596 l33.672,12.865l32-55.426l-27.947-22.705C288.828,180.079,290,170.177,290,160z"></path>
        <path fill="currentColor" fill-opacity="0.5" d="M160,0h-32l-5.689,35.556c-19.363,5.857-36.816,16.108-51.202,29.596L37.436,52.287 l-32,55.426l27.947,22.704C31.172,139.921,30,149.823,30,160s1.172,20.079,3.383,29.582L5.436,212.287l32,55.426l33.672-12.865 c14.387,13.488,31.84,23.739,51.203,29.596L128,320h32V0z"></path>
        <circle fill="#000000" fill-opacity="0.7" cx="160" cy="160" r="95"></circle>
        <polygon fill="currentColor" fill-opacity="1" points="160,180 110,210 160,90 210,210 "></polygon>
        <polygon fill="currentColor" fill-opacity="1" points="160,180 110,210 160,90 "></polygon>
      </g>
    </svg>
    <svg id="positionWidget" xmlns="http://www.w3.org/2000/svg" height="24" viewBox="0 -960 960 960" width="24">
      <path fill="currentColor" d="M440-42v-80q-125-14-214.5-103.5T122-440H42v-80h80q14-125 103.5-214.5T440-838v-80h80v80q125 14 214.5 103.5T838-520h80v80h-80q-14 125-103.5 214.5T520-122v80h-80Zm40-158q116 0 198-82t82-198q0-116-82-198t-198-82q-116 0-198 82t-82 198q0 116 82 198t198 82Zm0-120q-66 0-113-47t-47-113q0-66 47-113t113-47q66 0 113 47t47 113q0 66-47 113t-113 47Zm0-80q33 0 56.5-23.5T560-480q0-33-23.5-56.5T480-560q-33 0-56.5 23.5T400-480q0 33 23.5 56.5T480-400Zm0-80Z"/>
    </svg>
    <svg id="sliderWidget" width="256px" height="256px" viewBox="-0.75 -0.75 16.50 16.50" xmlns="http://www.w3.org/2000/svg">
      <g stroke-linecap="round" stroke-linejoin="round" stroke="currentColor" stroke-width="0.06"/>
      <path fill-rule="evenodd" clip-rule="evenodd" d="M10.3004 7.49991C10.3004 8.4943 9.49426 9.30041 8.49988 9.30041C7.50549 9.30041 6.69938 8.4943 6.69938 7.49991C6.69938 6.50553 7.50549 5.69942 8.49988 5.69942C9.49426 5.69942 10.3004 6.50553 10.3004 7.49991ZM11.205 8C10.9699 9.28029 9.84816 10.2504 8.49988 10.2504C7.1516 10.2504 6.0299 9.28029 5.79473 8H0.5C0.223858 8 0 7.77614 0 7.5C0 7.22386 0.223858 7 0.5 7H5.7947C6.0298 5.71962 7.15154 4.74942 8.49988 4.74942C9.84822 4.74942 10.9699 5.71962 11.2051 7H14.5C14.7761 7 15 7.22386 15 7.5C15 7.77614 14.7761 8 14.5 8H11.205Z" fill="currentColor"/>
    </svg>
  </defs>
</svg>
