<svg xmlns="http://www.w3.org/2000/svg">
  <defs>
    <symbol id="solar-panel-cells" viewBox="0 0 158.90796 94.949027">
      <g transform="translate(28.916566,-34.967544)">
        <path style="fill:currentColor;fill-opacity:1;fill-rule:evenodd;stroke:none;stroke-width:0.264583" d="m -28.916566,128.62739 v -12.41202 l 1.289173,-1.29917 h 12.412028 l 1.299166,1.29917 v 12.41202 l -1.299166,1.28918 h -12.412028 z"/>
        <path style="fill:currentColor;fill-opacity:1;fill-rule:evenodd;stroke:none;stroke-width:0.264583" d="m -12.926835,112.63766 v -12.41203 l 1.289172,-1.299161 H 0.774366 l 1.299165,1.299161 v 12.41203 l -1.299165,1.28918 h -12.412029 z"/>
        <path style="fill:currentColor;fill-opacity:1;fill-rule:evenodd;stroke:none;stroke-width:0.264583" d="m -12.926835,128.62739 v -12.41202 l 1.289172,-1.29917 H 0.774366 l 1.299165,1.29917 v 12.41202 l -1.299165,1.28918 h -12.412029 z"/>
        <path style="fill:currentColor;fill-opacity:1;fill-rule:evenodd;stroke:none;stroke-width:0.264583" d="m -28.916566,112.63766 v -12.41203 l 1.289173,-1.299161 h 12.412028 l 1.299166,1.299161 v 12.41203 l -1.299166,1.28918 h -12.412028 z"/>
        <path style="fill:currentColor;fill-opacity:1;fill-rule:evenodd;stroke:none;stroke-width:0.264583" d="M -28.916566,96.647933 V 84.235902 l 1.289173,-1.299165 h 12.412028 l 1.299166,1.299165 v 12.412031 l -1.299166,1.289171 h -12.412028 z"/>
        <path style="fill:currentColor;fill-opacity:1;fill-rule:evenodd;stroke:none;stroke-width:0.264583" d="m -12.926835,80.658201 v -12.41203 l 1.289172,-1.299165 H 0.774366 l 1.299165,1.299165 v 12.41203 l -1.299165,1.289172 h -12.412029 z"/>
        <path style="fill:currentColor;fill-opacity:1;fill-rule:evenodd;stroke:none;stroke-width:0.264583" d="M -12.926835,96.647933 V 84.235902 l 1.289172,-1.299165 H 0.774366 l 1.299165,1.299165 v 12.412031 l -1.299165,1.289171 h -12.412029 z"/>
        <path style="fill:currentColor;fill-opacity:1;fill-rule:evenodd;stroke:none;stroke-width:0.264583" d="m -28.916566,80.658201 v -12.41203 l 1.289173,-1.299165 h 12.412028 l 1.299166,1.299165 v 12.41203 l -1.299166,1.289172 h -12.412028 z"/>
        <path style="fill:currentColor;fill-opacity:1;fill-rule:evenodd;stroke:none;stroke-width:0.264583" d="M -28.916566,64.66847 V 52.25644 l 1.289173,-1.299165 h 12.412028 l 1.299166,1.299165 v 12.41203 l -1.299166,1.289172 h -12.412028 z"/>
        <path style="fill:currentColor;fill-opacity:1;fill-rule:evenodd;stroke:none;stroke-width:0.264583" d="M -12.926835,48.678739 V 36.266711 l 1.289172,-1.299167 H 0.774366 l 1.299165,1.299167 v 12.412028 l -1.299165,1.289172 h -12.412029 z"/>
        <path style="fill:currentColor;fill-opacity:1;fill-rule:evenodd;stroke:none;stroke-width:0.264583" d="M -12.926835,64.66847 V 52.25644 l 1.289172,-1.299165 H 0.774366 l 1.299165,1.299165 v 12.41203 l -1.299165,1.289172 h -12.412029 z"/>
        <path style="fill:currentColor;fill-opacity:1;fill-rule:evenodd;stroke:none;stroke-width:0.264583" d="M -28.916566,48.678739 V 36.266711 l 1.289173,-1.299167 h 12.412028 l 1.299166,1.299167 v 12.412028 l -1.299166,1.289172 h -12.412028 z"/>
        <path style="fill:currentColor;fill-opacity:1;fill-rule:evenodd;stroke:none;stroke-width:0.264583" d="m 3.062896,128.62739 v -12.41202 l 1.289171,-1.29917 h 12.412031 l 1.299165,1.29917 v 12.41202 l -1.299165,1.28918 H 4.352067 Z"/>
        <path style="fill:currentColor;fill-opacity:1;fill-rule:evenodd;stroke:none;stroke-width:0.264583" d="m 19.052627,112.63766 v -12.41203 l 1.289172,-1.299161 h 12.412029 l 1.29917,1.299161 v 12.41203 l -1.29917,1.28918 H 20.341799 Z"/>
        <path style="fill:currentColor;fill-opacity:1;fill-rule:evenodd;stroke:none;stroke-width:0.264583" d="m 19.052627,128.62739 v -12.41202 l 1.289172,-1.29917 h 12.412029 l 1.29917,1.29917 v 12.41202 l -1.29917,1.28918 H 20.341799 Z"/>
        <path style="fill:currentColor;fill-opacity:1;fill-rule:evenodd;stroke:none;stroke-width:0.264583" d="m 3.062896,112.63766 v -12.41203 l 1.289171,-1.299161 h 12.412031 l 1.299165,1.299161 v 12.41203 l -1.299165,1.28918 H 4.352067 Z"/>
        <path style="fill:currentColor;fill-opacity:1;fill-rule:evenodd;stroke:none;stroke-width:0.264583" d="M 3.062896,96.647933 V 84.235902 l 1.289171,-1.299165 h 12.412031 l 1.299165,1.299165 v 12.412031 l -1.299165,1.289171 H 4.352067 Z"/>
        <path style="fill:currentColor;fill-opacity:1;fill-rule:evenodd;stroke:none;stroke-width:0.264583" d="m 19.052627,80.658201 v -12.41203 l 1.289172,-1.299165 h 12.412029 l 1.29917,1.299165 v 12.41203 l -1.29917,1.289172 H 20.341799 Z"/>
        <path style="fill:currentColor;fill-opacity:1;fill-rule:evenodd;stroke:none;stroke-width:0.264583" d="M 19.052627,96.647933 V 84.235902 l 1.289172,-1.299165 h 12.412029 l 1.29917,1.299165 v 12.412031 l -1.29917,1.289171 H 20.341799 Z"/>
        <path style="fill:currentColor;fill-opacity:1;fill-rule:evenodd;stroke:none;stroke-width:0.264583" d="m 3.062896,80.658201 v -12.41203 l 1.289171,-1.299165 h 12.412031 l 1.299165,1.299165 v 12.41203 l -1.299165,1.289172 H 4.352067 Z"/>
        <path style="fill:currentColor;fill-opacity:1;fill-rule:evenodd;stroke:none;stroke-width:0.264583" d="M 3.062896,64.66847 V 52.25644 l 1.289171,-1.299165 h 12.412031 l 1.299165,1.299165 v 12.41203 l -1.299165,1.289172 H 4.352067 Z"/>
        <path style="fill:currentColor;fill-opacity:1;fill-rule:evenodd;stroke:none;stroke-width:0.264583" d="M 19.052627,48.678739 V 36.266711 l 1.289172,-1.299167 h 12.412029 l 1.29917,1.299167 v 12.412028 l -1.29917,1.289172 H 20.341799 Z"/>
        <path style="fill:currentColor;fill-opacity:1;fill-rule:evenodd;stroke:none;stroke-width:0.264583" d="M 19.052627,64.66847 V 52.25644 l 1.289172,-1.299165 h 12.412029 l 1.29917,1.299165 v 12.41203 l -1.29917,1.289172 H 20.341799 Z"/>
        <path style="fill:currentColor;fill-opacity:1;fill-rule:evenodd;stroke:none;stroke-width:0.264583" d="M 3.062896,48.678739 V 36.266711 l 1.289171,-1.299167 h 12.412031 l 1.299165,1.299167 v 12.412028 l -1.299165,1.289172 H 4.352067 Z"/>
        <path style="fill:currentColor;fill-opacity:1;fill-rule:evenodd;stroke:none;stroke-width:0.264583" d="m 35.042358,128.62739 v -12.41202 l 1.28917,-1.29917 h 12.41203 l 1.29917,1.29917 v 12.41202 l -1.29917,1.28918 h -12.41203 z"/>
        <path style="fill:currentColor;fill-opacity:1;fill-rule:evenodd;stroke:none;stroke-width:0.264583" d="m 35.042358,112.63766 v -12.41203 l 1.28917,-1.299161 h 12.41203 l 1.29917,1.299161 v 12.41203 l -1.29917,1.28918 h -12.41203 z"/>
        <path style="fill:currentColor;fill-opacity:1;fill-rule:evenodd;stroke:none;stroke-width:0.264583" d="M 35.042358,96.647933 V 84.235902 l 1.28917,-1.299165 h 12.41203 l 1.29917,1.299165 v 12.412031 l -1.29917,1.289171 h -12.41203 z"/>
        <path style="fill:currentColor;fill-opacity:1;fill-rule:evenodd;stroke:none;stroke-width:0.264583" d="m 35.042358,80.658201 v -12.41203 l 1.28917,-1.299165 h 12.41203 l 1.29917,1.299165 v 12.41203 l -1.29917,1.289172 h -12.41203 z"/>
        <path style="fill:currentColor;fill-opacity:1;fill-rule:evenodd;stroke:none;stroke-width:0.264583" d="M 35.042358,64.66847 V 52.25644 l 1.28917,-1.299165 h 12.41203 l 1.29917,1.299165 v 12.41203 l -1.29917,1.289172 h -12.41203 z"/>
        <path style="fill:currentColor;fill-opacity:1;fill-rule:evenodd;stroke:none;stroke-width:0.264583" d="M 35.042358,48.678739 V 36.266711 l 1.28917,-1.299167 h 12.41203 l 1.29917,1.299167 v 12.412028 l -1.29917,1.289172 h -12.41203 z"/>
        <path style="fill:currentColor;fill-opacity:1;fill-rule:evenodd;stroke:none;stroke-width:0.264583" d="m 51.032088,128.62739 v -12.41202 l 1.28917,-1.29917 h 12.41203 l 1.29917,1.29917 v 12.41202 l -1.29917,1.28918 h -12.41203 z"/>
        <path style="fill:currentColor;fill-opacity:1;fill-rule:evenodd;stroke:none;stroke-width:0.264583" d="m 67.021818,112.63766 v -12.41203 l 1.289172,-1.299161 h 12.41203 l 1.29916,1.299161 v 12.41203 l -1.29916,1.28918 H 68.31099 Z"/>
        <path style="fill:currentColor;fill-opacity:1;fill-rule:evenodd;stroke:none;stroke-width:0.264583" d="m 67.021818,128.62739 v -12.41202 l 1.289172,-1.29917 h 12.41203 l 1.29916,1.29917 v 12.41202 l -1.29916,1.28918 H 68.31099 Z"/>
        <path style="fill:currentColor;fill-opacity:1;fill-rule:evenodd;stroke:none;stroke-width:0.264583" d="m 51.032088,112.63766 v -12.41203 l 1.28917,-1.299161 h 12.41203 l 1.29917,1.299161 v 12.41203 l -1.29917,1.28918 h -12.41203 z"/>
        <path style="fill:currentColor;fill-opacity:1;fill-rule:evenodd;stroke:none;stroke-width:0.264583" d="M 51.032088,96.647933 V 84.235902 l 1.28917,-1.299165 h 12.41203 l 1.29917,1.299165 v 12.412031 l -1.29917,1.289171 h -12.41203 z"/>
        <path style="fill:currentColor;fill-opacity:1;fill-rule:evenodd;stroke:none;stroke-width:0.264583" d="m 67.021818,80.658201 v -12.41203 l 1.289172,-1.299165 h 12.41203 l 1.29916,1.299165 v 12.41203 l -1.29916,1.289172 H 68.31099 Z"/>
        <path style="fill:currentColor;fill-opacity:1;fill-rule:evenodd;stroke:none;stroke-width:0.264583" d="M 67.021818,96.647933 V 84.235902 l 1.289172,-1.299165 h 12.41203 l 1.29916,1.299165 v 12.412031 l -1.29916,1.289171 H 68.31099 Z"/>
        <path style="fill:currentColor;fill-opacity:1;fill-rule:evenodd;stroke:none;stroke-width:0.264583" d="m 51.032088,80.658201 v -12.41203 l 1.28917,-1.299165 h 12.41203 l 1.29917,1.299165 v 12.41203 l -1.29917,1.289172 h -12.41203 z"/>
        <path style="fill:currentColor;fill-opacity:1;fill-rule:evenodd;stroke:none;stroke-width:0.264583" d="M 51.032088,64.66847 V 52.25644 l 1.28917,-1.299165 h 12.41203 l 1.29917,1.299165 v 12.41203 l -1.29917,1.289172 h -12.41203 z"/>
        <path style="fill:currentColor;fill-opacity:1;fill-rule:evenodd;stroke:none;stroke-width:0.264583" d="M 67.021818,48.678739 V 36.266711 l 1.289172,-1.299167 h 12.41203 l 1.29916,1.299167 v 12.412028 l -1.29916,1.289172 H 68.31099 Z"/>
        <path style="fill:currentColor;fill-opacity:1;fill-rule:evenodd;stroke:none;stroke-width:0.264583" d="M 67.021818,64.66847 V 52.25644 l 1.289172,-1.299165 h 12.41203 l 1.29916,1.299165 v 12.41203 l -1.29916,1.289172 H 68.31099 Z"/>
        <path style="fill:currentColor;fill-opacity:1;fill-rule:evenodd;stroke:none;stroke-width:0.264583" d="M 51.032088,48.678739 V 36.266711 l 1.28917,-1.299167 h 12.41203 l 1.29917,1.299167 v 12.412028 l -1.29917,1.289172 h -12.41203 z"/>
        <path style="fill:currentColor;fill-opacity:1;fill-rule:evenodd;stroke:none;stroke-width:0.264583" d="m 83.01155,128.62739 v -12.41202 l 1.28917,-1.29917 h 12.41203 l 1.29917,1.29917 v 12.41202 l -1.29917,1.28918 H 84.30072 Z"/>
        <path style="fill:currentColor;fill-opacity:1;fill-rule:evenodd;stroke:none;stroke-width:0.264583" d="m 99.00128,112.63766 v -12.41203 l 1.28917,-1.299161 h 12.41203 l 1.29917,1.299161 v 12.41203 l -1.29917,1.28918 h -12.41203 z"/>
        <path style="fill:currentColor;fill-opacity:1;fill-rule:evenodd;stroke:none;stroke-width:0.264583" d="m 99.00128,128.62739 v -12.41202 l 1.28917,-1.29917 h 12.41203 l 1.29917,1.29917 v 12.41202 l -1.29917,1.28918 h -12.41203 z"/>
        <path style="fill:currentColor;fill-opacity:1;fill-rule:evenodd;stroke:none;stroke-width:0.264583" d="m 83.01155,112.63766 v -12.41203 l 1.28917,-1.299161 h 12.41203 l 1.29917,1.299161 v 12.41203 l -1.29917,1.28918 H 84.30072 Z"/>
        <path style="fill:currentColor;fill-opacity:1;fill-rule:evenodd;stroke:none;stroke-width:0.264583" d="M 83.01155,96.647933 V 84.235902 l 1.28917,-1.299165 h 12.41203 l 1.29917,1.299165 v 12.412031 l -1.29917,1.289171 H 84.30072 Z"/>
        <path style="fill:currentColor;fill-opacity:1;fill-rule:evenodd;stroke:none;stroke-width:0.264583" d="m 99.00128,80.658201 v -12.41203 l 1.28917,-1.299165 h 12.41203 l 1.29917,1.299165 v 12.41203 l -1.29917,1.289172 h -12.41203 z"/>
        <path style="fill:currentColor;fill-opacity:1;fill-rule:evenodd;stroke:none;stroke-width:0.264583" d="M 99.00128,96.647933 V 84.235902 l 1.28917,-1.299165 h 12.41203 l 1.29917,1.299165 v 12.412031 l -1.29917,1.289171 h -12.41203 z"/>
        <path style="fill:currentColor;fill-opacity:1;fill-rule:evenodd;stroke:none;stroke-width:0.264583" d="m 83.01155,80.658201 v -12.41203 l 1.28917,-1.299165 h 12.41203 l 1.29917,1.299165 v 12.41203 l -1.29917,1.289172 H 84.30072 Z"/>
        <path style="fill:currentColor;fill-opacity:1;fill-rule:evenodd;stroke:none;stroke-width:0.264583" d="M 83.01155,64.66847 V 52.25644 l 1.28917,-1.299165 h 12.41203 l 1.29917,1.299165 v 12.41203 l -1.29917,1.289172 H 84.30072 Z"/>
        <path style="fill:currentColor;fill-opacity:1;fill-rule:evenodd;stroke:none;stroke-width:0.264583" d="M 99.00128,48.678739 V 36.266711 l 1.28917,-1.299167 h 12.41203 l 1.29917,1.299167 v 12.412028 l -1.29917,1.289172 h -12.41203 z"/>
        <path style="fill:currentColor;fill-opacity:1;fill-rule:evenodd;stroke:none;stroke-width:0.264583" d="M 99.00128,64.66847 V 52.25644 l 1.28917,-1.299165 h 12.41203 l 1.29917,1.299165 v 12.41203 l -1.29917,1.289172 h -12.41203 z"/>
        <path style="fill:currentColor;fill-opacity:1;fill-rule:evenodd;stroke:none;stroke-width:0.264583" d="M 83.01155,48.678739 V 36.266711 l 1.28917,-1.299167 h 12.41203 l 1.29917,1.299167 v 12.412028 l -1.29917,1.289172 H 84.30072 Z"/>
        <path style="fill:currentColor;fill-opacity:1;fill-rule:evenodd;stroke:none;stroke-width:0.264583" d="m 114.99101,128.62739 v -12.41202 l 1.28917,-1.29917 h 12.41203 l 1.29917,1.29917 v 12.41202 l -1.29917,1.28918 h -12.41203 z"/>
        <path style="fill:currentColor;fill-opacity:1;fill-rule:evenodd;stroke:none;stroke-width:0.264583" d="m 114.99101,112.63766 v -12.41203 l 1.28917,-1.299161 h 12.41203 l 1.29917,1.299161 v 12.41203 l -1.29917,1.28918 h -12.41203 z"/>
        <path style="fill:currentColor;fill-opacity:1;fill-rule:evenodd;stroke:none;stroke-width:0.264583" d="M 114.99101,96.647933 V 84.235902 l 1.28917,-1.299165 h 12.41203 l 1.29917,1.299165 v 12.412031 l -1.29917,1.289171 h -12.41203 z"/>
        <path style="fill:currentColor;fill-opacity:1;fill-rule:evenodd;stroke:none;stroke-width:0.264583" d="m 114.99101,80.658201 v -12.41203 l 1.28917,-1.299165 h 12.41203 l 1.29917,1.299165 v 12.41203 l -1.29917,1.289172 h -12.41203 z"/>
        <path style="fill:currentColor;fill-opacity:1;fill-rule:evenodd;stroke:none;stroke-width:0.264583" d="M 114.99101,64.66847 V 52.25644 l 1.28917,-1.299165 h 12.41203 l 1.29917,1.299165 v 12.41203 l -1.29917,1.289172 h -12.41203 z"/>
        <path style="fill:currentColor;fill-opacity:1;fill-rule:evenodd;stroke:none;stroke-width:0.264583" d="M 114.99101,48.678739 V 36.266711 l 1.28917,-1.299167 h 12.41203 l 1.29917,1.299167 v 12.412028 l -1.29917,1.289172 h -12.41203 z"/>
      </g>
    </symbol>
  </defs>
</svg>
