<svg xmlns="http://www.w3.org/2000/svg" width="24" height="24" viewBox="0 0 48 48">
	<ellipse cx="41.879" cy="33.4" fill="none" stroke="currentColor" stroke-linecap="round" stroke-linejoin="round" rx="1.622" ry="1.612" />
	<circle cx="38.303" cy="33.39" r=".75" fill="currentColor" />
	<circle cx="9.697" cy="33.39" r=".75" fill="currentColor" />
	<circle cx="13.273" cy="33.39" r=".75" fill="currentColor" />
	<circle cx="16.849" cy="33.39" r=".75" fill="currentColor" />
	<circle cx="20.424" cy="33.39" r=".75" fill="currentColor" />
	<circle cx="24" cy="33.39" r=".75" fill="currentColor" />
	<circle cx="27.576" cy="33.39" r=".75" fill="currentColor" />
	<circle cx="31.151" cy="33.39" r=".75" fill="currentColor" />
	<circle cx="34.727" cy="33.39" r=".75" fill="currentColor" />
	<path fill="none" stroke="currentColor" stroke-linecap="round" stroke-linejoin="round" d="M38.303 20.857v7.923m-3.576-7.923v7.923m-14.303-7.923v7.923m7.152-7.923v7.923m3.576-7.923v7.923m-14.303-7.923v7.923M6.121 12.988V28.78m35.758-15.792V28.78M9.697 20.857v7.923m3.576-7.923v7.923M24 16.574v12.204" />
	<circle cx="6.121" cy="33.39" r="1.622" fill="none" stroke="currentColor" stroke-linecap="round" stroke-linejoin="round" />
</svg>