<?xml version="1.0" encoding="UTF-8" standalone="no"?>
<svg
   width="24"
   height="24"
   viewBox="0 0 32 32"
   version="1.1"
   id="svg1"
   sodipodi:docname="carbon--string-text.svg"
   inkscape:version="1.3.2 (091e20e, 2023-11-25)"
   xmlns:inkscape="http://www.inkscape.org/namespaces/inkscape"
   xmlns:sodipodi="http://sodipodi.sourceforge.net/DTD/sodipodi-0.dtd"
   xmlns="http://www.w3.org/2000/svg"
   xmlns:svg="http://www.w3.org/2000/svg">
  <defs
     id="defs1">
    <linearGradient
       id="swatch5"
       inkscape:swatch="solid">
      <stop
         style="stop-color:#0000ff;stop-opacity:1;"
         offset="0"
         id="stop6" />
    </linearGradient>
  </defs>
  <sodipodi:namedview
     id="namedview1"
     pagecolor="#ffffff"
     bordercolor="#000000"
     borderopacity="0.25"
     inkscape:showpageshadow="2"
     inkscape:pageopacity="0.0"
     inkscape:pagecheckerboard="0"
     inkscape:deskcolor="#d1d1d1"
     inkscape:zoom="9.8333333"
     inkscape:cx="12"
     inkscape:cy="12"
     inkscape:window-width="1344"
     inkscape:window-height="449"
     inkscape:window-x="86"
     inkscape:window-y="25"
     inkscape:window-maximized="0"
     inkscape:current-layer="svg1" />
  <path
     fill="currentColor"
     d="m 28.976998,22.466668 h -4.806295 a 1.9254019,1.9254021 0 0 1 -1.922518,-1.922517 v -5.767556 a 1.9225182,1.9225182 0 0 1 1.922518,-1.922517 h 4.806295 v 1.922517 h -4.806295 v 5.767556 h 4.806295 z m -10.57385,-9.61259 H 14.558112 V 9.0090396 H 12.635594 V 22.466668 h 5.767554 a 1.9254019,1.9254021 0 0 0 1.922518,-1.922517 v -5.767556 a 1.9225182,1.9225182 0 0 0 -1.922518,-1.922517 m -3.845036,7.690073 v -5.767556 h 3.845036 v 5.767556 z M 8.790557,12.854078 H 3.9842616 v 1.922517 H 8.790557 v 1.922518 H 4.9455206 a 1.9225182,1.9225182 0 0 0 -1.9225181,1.922519 v 1.922519 a 1.9225182,1.9225182 0 0 0 1.9225181,1.922517 H 10.713076 V 14.776595 A 1.9225182,1.9225182 0 0 0 8.790557,12.854078 m 0,7.690073 H 4.9455206 V 18.621632 H 8.790557 Z"
     id="path1"
     style="stroke-width:0.999998" />
  <rect
     style="mix-blend-mode:normal;fill:none;fill-opacity:1;fill-rule:nonzero;stroke:#000000;stroke-width:1.49418;stroke-linecap:square;stroke-linejoin:round;stroke-miterlimit:0;stroke-dasharray:none;stroke-opacity:1"
     id="rect1"
     width="29.839151"
     height="24.505823"
     x="1.0804243"
     y="3.7470884"
     inkscape:highlight-color="#000000"
     ry="2.2514625" />
</svg>
