<svg viewBox="0 0 24 24" xmlns="http://www.w3.org/2000/svg">
  <path
     stroke="#600304"
     stroke-width="0.278122"
     fill="none"
     stroke-linecap="butt"
     vector-effect="non-scaling-stroke"
     d="m 12.61832,13.476574 -1.78693,3.992448 a 0.12932695,0.12793634 20.3 0 0 0.082,0.176608 l 1.59225,0.471417 a 0.2127637,0.21415431 14.5 0 0 0.26839,-0.15853 l 0.89973,-3.999401 a 0.11403022,0.11403022 0 0 0 -0.0654,-0.127936 l -0.88304,-0.396325 a 0.08204613,0.08204613 0 0 0 -0.10708,0.04172"
     id="path1" />
  <path
     fill="#000305"
     d="M 18.41301,2.593641 A 1.5936418,1.5936418 0 0 1 16.81936,4.187283 1.5936418,1.5936418 0 0 1 15.22572,2.593641 1.5936418,1.5936418 0 0 1 16.81936,0.999999 1.5936418,1.5936418 0 0 1 18.41301,2.593641 Z"
     id="path2"
     style="stroke-width:0.2;stroke:#bf0303;stroke-opacity:1;stroke-dasharray:none" />
  <path
     fill="#000305"
     d="M 17.1392,6.488746 A 1.5936418,1.5936418 0 0 1 15.54556,8.082388 1.5936418,1.5936418 0 0 1 13.95192,6.488746 1.5936418,1.5936418 0 0 1 15.54556,4.895104 1.5936418,1.5936418 0 0 1 17.1392,6.488746 Z"
     id="path3"
     style="stroke-width:0.2;stroke:#bf0303;stroke-opacity:1;stroke-dasharray:none" />
  <path
     fill="#000305"
     d="m 13.28999,10.090432 0.60074,0.176608 a 0.13906124,0.14045185 16.7 0 0 0.17383,-0.09456 l 0.45751,-1.551923 a 0.17104533,0.17104533 0 0 1 0.21137,-0.115421 l 0.16271,0.04867 a 0.14323308,0.14323308 0 0 1 0.0973,0.177998 l -0.44778,1.514377 a 0.25309146,0.25309146 0 0 0 0.17244,0.314278 l 0.36573,0.108468 a 0.14879553,0.14879553 0 0 1 0.1029,0.172436 q -0.20998,1.013757 -1.56443,6.890485 -0.22111,0.960913 -0.1933,1.464314 0.0542,0.940054 0.21137,1.88428 a 0.26143513,0.26004452 3.5 0 0 0.18495,0.208592 q 0.20582,0.06119 0.48811,0.02086 a 0.18634206,0.18634206 0 0 1 0.21276,0.184952 v 0.175217 a 0.1905139,0.1905139 0 0 1 -0.19051,0.190514 h -2.25001 a 0.30315351,0.30037228 16.6 0 0 -0.2517,0.134889 C 11.43765,22.603164 10.90227,23.202518 10.1124,22.93413 9.71468,22.79924 9.36703,22.394572 9.15983,22.031622 A 0.34209065,0.34626249 75.2 0 0 8.86085,21.859186 H 5.76256 A 0.17521716,0.17521716 0 0 1 5.5943,21.633907 l 0.0222,-0.07648 a 0.32679392,0.32679392 0 0 1 0.31289,-0.233623 h 0.35599 a 0.55624497,0.55624497 0 0 0 0.41163,-0.18217 l 3.13583,-3.458453 a 0.26560697,0.28646616 76.2 0 0 0.0487,-0.0737 l 3.35555,-7.494011 a 0.0444996,0.0444996 0 0 1 0.0528,-0.02503 z m -0.67167,3.386142 -1.78693,3.992448 a 0.12932695,0.12793634 20.3 0 0 0.082,0.176608 l 1.59225,0.471417 a 0.2127637,0.21415431 14.5 0 0 0.26839,-0.15853 l 0.89973,-3.999401 a 0.11403022,0.11403022 0 0 0 -0.0654,-0.127936 l -0.88304,-0.396325 a 0.08204613,0.08204613 0 0 0 -0.10708,0.04172 z m -1.31273,8.115614 a 0.82324255,0.82324255 0 0 0 -0.82325,-0.823243 0.82324255,0.82324255 0 0 0 -0.82324,0.823243 0.82324255,0.82324255 0 0 0 0.82324,0.823242 0.82324255,0.82324255 0 0 0 0.82325,-0.823242 z"
     id="path4"
     style="stroke-width:0.2;stroke:#bf0303;stroke-opacity:1;stroke-dasharray:none" />
  <path
     fill="#bf0303"
     d="m 12.7254,13.434855 0.88304,0.396325 a 0.11403022,0.11403022 0 0 1 0.0654,0.127936 l -0.89973,3.999401 a 0.2127637,0.21415431 14.5 0 1 -0.26839,0.15853 L 10.91347,17.64563 a 0.12932695,0.12793634 20.3 0 1 -0.082,-0.176608 l 1.78693,-3.992448 a 0.08204613,0.08204613 0 0 1 0.10708,-0.04172 z"
     id="path5"
     style="stroke-width:0.139061" />
</svg>
