<svg viewBox="0 0 24 24" xmlns="http://www.w3.org/2000/svg">
  <path
     id="rect19"
     style="fill:#000000;fill-opacity:1;stroke-width:0.2;stroke-linejoin:round;stroke-miterlimit:0;stroke:#aa0000;stroke-opacity:1;stroke-dasharray:none"
     d="M 12 5.6640625 A 1.8643425 1.8643425 0 0 0 10.134766 7.5273438 A 1.8643425 1.8643425 0 0 0 11.736328 9.3730469 L 11.736328 11.447266 L 10.761719 11.447266 C 10.683624 11.447266 10.619141 11.50278 10.619141 11.570312 L 10.619141 22.353516 L 9.8613281 22.353516 C 9.7671319 22.353516 9.6914062 22.398604 9.6914062 22.455078 L 9.6914062 22.898438 C 9.6914062 22.954911 9.7671319 23 9.8613281 23 L 14.138672 23 C 14.232868 23 14.308594 22.954911 14.308594 22.898438 L 14.308594 22.455078 C 14.308594 22.398604 14.232868 22.353516 14.138672 22.353516 L 13.380859 22.353516 L 13.380859 11.570312 C 13.380859 11.50278 13.316376 11.447266 13.238281 11.447266 L 12.263672 11.447266 L 12.263672 9.3730469 A 1.8643425 1.8643425 0 0 1 12.265625 9.3730469 A 1.8643425 1.8643425 0 0 0 13.865234 7.5273438 A 1.8643425 1.8643425 0 0 0 12 5.6640625 z " />
  <path
     fill="#ffcc00"
     d="m 13.148926,18.654917 a 0.09383637,0.10353853 0 0 1 -0.0937,0.103706 l -2.104388,0.0042 a 0.09383637,0.10353853 0 0 1 -0.09398,-0.103377 l -0.0058,-3.948046 a 0.09383637,0.10353853 0 0 1 0.0937,-0.103706 l 2.104397,-0.0042 a 0.09383637,0.10353853 0 0 1 0.09398,0.103377 z"
     id="path13"
     style="display:inline;stroke-width:0.161586;fill:#aa0000;fill-opacity:1" />
  <path
     fill="#000407"
     d="M 13.86434,2.9184099 A 1.8643425,1.8643425 0 0 1 12,4.7827523 1.8643425,1.8643425 0 0 1 10.13566,2.9184099 1.8643425,1.8643425 0 0 1 12,1.0540674 1.8643425,1.8643425 0 0 1 13.86434,2.9184099 Z"
     id="path11"
     style="stroke-width:0.2;stroke:#aa0000;stroke-opacity:1;stroke-dasharray:none" />
</svg>
