<svg viewBox="0 0 24 24" xmlns="http://www.w3.org/2000/svg">
  <rect
     style="fill:#000000;fill-opacity:1;stroke-width:0.631398;stroke-linejoin:round;stroke-miterlimit:0"
     id="rect19"
     width="2.7602751"
     height="11.105944"
     x="10.619862"
     y="11.447474"
     ry="0.12190025"
     rx="0.14096494" />
  <rect
     style="fill:#000000;fill-opacity:1;stroke-width:0.441075;stroke-linejoin:round;stroke-miterlimit:0"
     id="rect20"
     width="4.6179342"
     height="0.64726102"
     x="9.6910324"
     y="22.352739"
     rx="0.17002945"
     ry="0.10193813" />
  <path
     fill="#ffcc00"
     d="m 13.148926,18.654917 a 0.09383637,0.10353853 0 0 1 -0.0937,0.103706 l -2.104388,0.0042 a 0.09383637,0.10353853 0 0 1 -0.09398,-0.103377 l -0.0058,-3.948046 a 0.09383637,0.10353853 0 0 1 0.0937,-0.103706 l 2.104397,-0.0042 a 0.09383637,0.10353853 0 0 1 0.09398,0.103377 z"
     id="path13"
     style="display:inline;stroke-width:0.161586;fill:#aa0000;fill-opacity:1" />
  <rect
     style="fill:#000000;fill-opacity:1;stroke-width:0.519864;stroke-linejoin:round;stroke-miterlimit:0"
     id="rect21"
     width="0.52595037"
     height="2.5133708"
     x="11.737024"
     y="9.1483345"
     rx="0.071343638"
     ry="0.17101918" />
  <path
     fill="#000407"
     d="M 13.86434,2.9184099 A 1.8643425,1.8643425 0 0 1 12,4.7827523 1.8643425,1.8643425 0 0 1 10.13566,2.9184099 1.8643425,1.8643425 0 0 1 12,1.0540674 1.8643425,1.8643425 0 0 1 13.86434,2.9184099 Z"
     id="path11"
     style="stroke-width:0.130465" />
  <path
     fill="#000407"
     d="M 13.86434,7.5276758 A 1.8643425,1.8643425 0 0 1 12,9.3920182 1.8643425,1.8643425 0 0 1 10.13566,7.5276758 1.8643425,1.8643425 0 0 1 12,5.6633333 1.8643425,1.8643425 0 0 1 13.86434,7.5276758 Z"
     id="path11-4"
     style="stroke-width:0.130465" />
</svg>
