<svg viewBox="0 0 24 24" xmlns="http://www.w3.org/2000/svg">
  <path
     id="rect20-3"
     style="fill:#ffffff;fill-opacity:1;stroke:#010702;stroke-width:0.193287;stroke-linejoin:round;stroke-miterlimit:0;stroke-dasharray:none;stroke-opacity:1"
     d="m 11.014193,6.068869 c -0.127186,0 -0.228622,0.044773 -0.228622,0.1002849 V 22.438956 H 9.8476363 c -0.094801,0 -0.1719546,0.03212 -0.1719546,0.07111 v 0.306324 c 0,0.039 0.077153,0.06928 0.1719546,0.06928 h 4.3047267 c 0.09481,0 0.171955,-0.0303 0.171955,-0.06928 v -0.306324 c 0,-0.039 -0.07716,-0.07111 -0.171955,-0.07111 H 13.21443 V 6.1691537 c 0,-0.055511 -0.101436,-0.1002849 -0.228621,-0.1002849 z" />
  <path
     id="rect20-3-2"
     style="fill:#d40000;fill-opacity:1;stroke:#010702;stroke-width:0.193287;stroke-linejoin:round;stroke-miterlimit:0;stroke-dasharray:none;stroke-opacity:1"
     d="M 12.030519,6.0682474 V 22.885055 h 2.122077 c 0.0948,0 0.171954,-0.0303 0.171954,-0.06928 V 22.50945 c 0,-0.039 -0.07716,-0.07111 -0.171954,-0.07111 H 13.214661 V 6.1685321 c 0,-0.055511 -0.101436,-0.1002849 -0.228622,-0.1002849 z" />
  <path
     fill="#000407"
     d="M 13.86434,2.9495755 A 1.8643425,1.8643425 0 0 1 12,4.8139175 1.8643425,1.8643425 0 0 1 10.13566,2.9495755 1.8643425,1.8643425 0 0 1 12,1.0852325 a 1.8643425,1.8643425 0 0 1 1.86434,1.864343 z"
     id="path11"
     style="fill:#d40000;fill-opacity:1;stroke:#010702;stroke-width:0.130465;stroke-opacity:1" />
</svg>
