<svg viewBox="0 0 24 24" xmlns="http://www.w3.org/2000/svg">
  <g
     id="g1"
     transform="translate(1.1661553,0.08643349)">
    <g
       stroke-width="2"
       fill="none"
       stroke-linecap="butt"
       id="g2"
       transform="matrix(0.13071715,0,0,0.13071715,-11.304812,0.59488753)">
      <path
         stroke="#808283"
         vector-effect="non-scaling-stroke"
         d="m 135.16,157.08 h 11.49 a 1.97,1.97 0 0 0 1.89,-1.42 c 1.08,-3.77 4.64,-7.28 8.91,-7.61 q 2.55,-0.2 4.21,-0.24 a 0.8,0.8 0 0 0 0.73,-0.54 l 28.35,-80.01 a 1.6,1.6 0 0 0 -0.24,-1.51 l -0.18,-0.23 a 0.68,0.68 0 0 0 -1.15,0.12 q -2.99,6.19 -9.46,20.65 c -6.56,14.67 -12.76,29.4 -17.23,38.72 q -1.72,3.58 -4.81,6.9 -13.24,14.21 -22.67,24.8 a 0.22,0.22 0 0 0 0.16,0.37"
         id="path1" />
      <path
         stroke="#600204"
         vector-effect="non-scaling-stroke"
         d="m 191.93,67.07 q -0.87,1.79 -1.85,5.46 a 4.75,4 -28.8 0 1 -0.34,0.88 c -1.86,3.73 -2.79,7.55 -5.53,15.15 q -3.9,10.85 -4.12,11.56 c -1.75,5.66 -3.66,10.01 -5.57,15.69 q -1,2.95 -3.45,9.73 -2.73,7.56 -4.31,12.75 a 5.35,5.22 68.2 0 1 -0.39,0.94 q -1.93,3.65 -2.62,7.98 a 0.74,0.73 17.7 0 0 0.41,0.78 q 5.47,2.66 8.1,8.44 a 1.09,1.09 0 0 0 0.99,0.64 h 6.97 a 0.99,0.99 0 0 0 0.98,-1.11 q -0.93,-7.75 -1.92,-16.21 -0.54,-4.68 -0.09,-6.78 8.44,-38.74 11.56,-52.27 2.21,-9.59 3.12,-12.9 a 1.04,1.04 0 0 0 -1.94,-0.73"
         id="path2" />
    </g>
    <path
       fill="#000407"
       d="m 14.181105,21.113556 a 0.13463866,0.13463866 0 0 1 0.134643,0.13464 v 0.522868 a 0.12548845,0.12679563 0 0 1 -0.125489,0.126796 h -2.856166 a 0.23136933,0.23136933 0 0 0 -0.222221,0.167317 q -0.132028,0.458817 -0.58823,0.775154 -0.398686,0.27712 -0.9477016,0.265355 -1.074493,-0.02484 -1.4927899,-1.065344 A 0.2235263,0.22221914 79 0 0 7.8766232,21.900474 H 4.1250359 A 0.13463866,0.13333149 0 0 1 3.9904,21.767142 v -0.492803 a 0.1464032,0.1464032 0 0 1 0.142479,-0.146403 c 0.2366026,-0.0078 0.7437809,0.07844 1.0182882,-0.188233 0.5895339,-0.573848 1.0575038,-1.151619 1.5097872,-1.628735 q 0.930704,-0.984301 1.9333062,-2.121539 c 0.2562,-0.2915 0.4862633,-0.711101 0.6169815,-1.011751 Q 10.141946,14.043067 12.32623,9.1921537 a 0.69280087,0.64835701 77.8 0 1 0.08496,-0.1424818 q 0.372542,-0.483653 0.912403,-0.8169821 c 0.356857,-0.2222189 1.099334,0.1725469 1.328085,0.3934586 0.338557,0.3241787 0.199996,1.5267766 0.116337,1.9006276 q -0.805216,3.606485 -1.643113,7.156764 -0.01304,0.0549 -0.06797,0.546397 c -0.03395,0.299342 0.05228,0.648357 0.05881,0.95685 q 0.0054,0.240519 0.03395,0.40653 0.128104,0.758159 0.132021,1.393443 a 0.12810279,0.12679563 89.7 0 0 0.126794,0.126796 z m -7.8181871,0.01438 h 1.5019373 a 0.25751276,0.25751276 0 0 0 0.2470532,-0.18562 c 0.1411752,-0.492804 0.6065307,-0.951622 1.1646923,-0.994758 q 0.3333267,-0.02615 0.5503183,-0.03138 a 0.10457371,0.10457371 0 0 0 0.095428,-0.07057 L 13.628172,9.3869192 a 0.20914742,0.20914742 0 0 0 -0.03137,-0.1973833 l -0.02349,-0.030062 a 0.08888766,0.08888766 0 0 0 -0.150322,0.015686 q -0.390841,0.8091392 -1.236581,2.6993091 c -0.857503,1.917621 -1.667953,3.843085 -2.252258,5.061368 q -0.2248353,0.467967 -0.6287499,0.901949 -1.7306967,1.857491 -2.9633554,3.241785 a 0.02875778,0.02875778 0 0 0 0.020915,0.04837 z M 13.78373,9.3620828 q -0.113728,0.2339835 -0.241832,0.7137152 a 0.52286855,0.62090642 61.2 0 1 -0.04441,0.115032 c -0.243129,0.487574 -0.3647,0.986914 -0.722866,1.980365 q -0.509794,1.418279 -0.538552,1.51109 c -0.228752,0.739858 -0.478427,1.308478 -0.728094,2.050951 q -0.130718,0.385616 -0.450973,1.271878 -0.356857,0.988222 -0.56339,1.666644 a 0.69933669,0.68234344 68.2 0 1 -0.05099,0.122874 q -0.252282,0.477117 -0.34248,1.043122 a 0.09673068,0.09542351 17.7 0 0 0.05358,0.101959 q 0.715022,0.347709 1.058807,1.103254 a 0.14248167,0.14248167 0 0 0 0.129415,0.08366 h 0.911091 a 0.12940997,0.12940997 0 0 0 0.128104,-0.145096 q -0.121563,-1.013057 -0.250979,-2.118925 -0.07059,-0.611755 -0.01175,-0.886261 1.103251,-5.063983 1.511091,-6.832585 0.288883,-1.2535775 0.40784,-1.6862513 A 0.13594582,0.13594582 0 0 0 13.783743,9.3620828 Z M 10.536177,21.354491 A 0.78822432,0.78822432 0 0 0 9.7383838,20.575953 l -0.2823233,0.0034 a 0.78822432,0.78822432 0 0 0 -0.7785344,0.797793 l 0.00339,0.290178 a 0.78822432,0.78822432 0 0 0 0.797793,0.778539 l 0.2823233,-0.0034 A 0.78822432,0.78822432 0 0 0 10.539577,21.64467 Z"
       id="path3"
       style="stroke-width:0.130717" />
    <path
       fill="#ffffff"
       d="m 6.3629179,21.127936 a 0.02875778,0.02875778 0 0 1 -0.020916,-0.04837 q 1.2326588,-1.384294 2.9633553,-3.241785 0.403915,-0.433982 0.6287503,-0.901948 c 0.5843055,-1.218284 1.3947555,-3.143748 2.2522575,-5.061369 q 0.845741,-1.8901703 1.236583,-2.6993094 a 0.08888766,0.08888766 0 0 1 0.150322,-0.015686 l 0.02349,0.030062 a 0.20914742,0.20914742 0 0 1 0.03137,0.1973832 L 9.9223073,19.845601 a 0.10457371,0.10457371 0 0 1 -0.095428,0.07058 q -0.2169925,0.0052 -0.5503181,0.03138 c -0.5581619,0.04313 -1.0235173,0.501953 -1.1646926,0.994757 a 0.25751276,0.25751276 0 0 1 -0.2470533,0.185619 z"
       id="path4"
       style="stroke-width:0.130717" />
    <path
       fill="#bf0000"
       d="m 13.78373,9.3620862 a 0.13594582,0.13594582 0 0 1 0.253593,0.095423 q -0.118957,0.432674 -0.40784,1.6862508 -0.40784,1.768604 -1.511091,6.832586 -0.05881,0.274505 0.01174,0.886262 0.129415,1.105867 0.250979,2.118924 a 0.12940997,0.12940997 0 0 1 -0.128103,0.145096 H 11.341915 A 0.14248167,0.14248167 0 0 1 11.2125,21.042968 q -0.343779,-0.755544 -1.058803,-1.103253 a 0.09673068,0.09542351 17.7 0 1 -0.05358,-0.101959 q 0.0902,-0.566006 0.342482,-1.043122 a 0.69933669,0.68234344 68.2 0 0 0.051,-0.122875 q 0.206533,-0.678421 0.563389,-1.666644 0.320256,-0.886261 0.450974,-1.271877 c 0.249667,-0.742474 0.499342,-1.311093 0.728095,-2.050952 q 0.02873,-0.09281 0.538549,-1.511089 c 0.358173,-0.993452 0.479744,-1.492791 0.722872,-1.980366 A 0.52286855,0.62090642 61.2 0 0 13.541888,10.0758 Q 13.66999,9.5960679 13.783719,9.3620844 Z"
       id="path5"
       style="stroke-width:0.130717" />
    <path
       fill="#000407"
       d="m 17.360762,4.5114773 a 1.8733828,1.8733828 0 0 1 -1.87338,1.8733813 1.8733828,1.8733828 0 0 1 -1.87338,-1.8733813 1.8733828,1.8733828 0 0 1 1.87338,-1.8733833 1.8733828,1.8733828 0 0 1 1.87338,1.8733833 z"
       id="path11"
       style="fill:#d40000;fill-opacity:1;stroke:#010702;stroke-width:0.633055;stroke-dasharray:none;stroke-opacity:1" />
  </g>
</svg>
